<?xml version="1.0" standalone="no"?>
 <!DOCTYPE svg PUBLIC "-//W3C//DTD SVG 1.1//EN" 
 "http://www.w3.org/Graphics/SVG/1.1/DTD/svg11.dtd"> 
<svg
  xmlns:svg="http://www.w3.org/2000/svg"
  xmlns="http://www.w3.org/2000/svg"
  xmlns:xlink="http://www.w3.org/1999/xlink"
  version="1.1"
  width="8.2296mm" height="18.1356mm" viewBox="0.0000 0.0000 8.2296 18.1356">
<title>SVG Image created as Conn_01x05_unit1.svg date 2025/08/14 19:40:30 </title>
  <desc>Image generated by Eeschema-SVG </desc>
<g style="fill:#000000; fill-opacity:1.0000;stroke:#000000; stroke-opacity:1.0000;
stroke-linecap:round; stroke-linejoin:round;"
 transform="translate(0 0) scale(1 1)">
</g>
<g style="fill:#FFFFC2; fill-opacity:1.0000; stroke:none;">
<rect x="4.876900" y="3.800100" width="2.540000" height="12.700000" rx="0.000000" />
</g>
<g style="fill:none; 
stroke:#840000; stroke-width:0.2540; stroke-opacity:1; 
stroke-linecap:round; stroke-linejoin:round;">
<rect x="4.876900" y="3.800100" width="2.540000" height="12.700000" rx="0.000000" />
</g>
<g style="fill:none; 
stroke:#840000; stroke-width:0.1524; stroke-opacity:1; 
stroke-linecap:round; stroke-linejoin:round;">
<rect x="4.876900" y="4.943100" width="1.270000" height="0.254000" rx="0.000000" />
<rect x="4.876900" y="7.483100" width="1.270000" height="0.254000" rx="0.000000" />
<rect x="4.876900" y="10.023100" width="1.270000" height="0.254000" rx="0.000000" />
<rect x="4.876900" y="12.563100" width="1.270000" height="0.254000" rx="0.000000" />
<rect x="4.876900" y="15.103100" width="1.270000" height="0.254000" rx="0.000000" />
<path d="M4.8769 5.0701
L1.0669 5.0701
" />
</g>
<g style="fill:none; 
stroke:#A90000; stroke-width:0.1524; stroke-opacity:1; 
stroke-linecap:round; stroke-linejoin:round;">
<text x="2.9719" y="4.8161"
textLength="1.4127" font-size="1.6933" lengthAdjust="spacingAndGlyphs"
text-anchor="middle" opacity="0" stroke-opacity="0">1</text>
<g class="stroked-text"><desc>1</desc>
<path d="M3.3348 4.6526
L2.6091 4.6526
" />
<path d="M2.9719 4.6526
L2.9719 3.3826
" />
<path d="M2.9719 3.3826
L2.8510 3.5641
" />
<path d="M2.8510 3.5641
L2.7300 3.6850
" />
<path d="M2.7300 3.6850
L2.6091 3.7455
" />
</g></g>
<g style="fill:none; 
stroke:#840000; stroke-width:0.1524; stroke-opacity:1; 
stroke-linecap:round; stroke-linejoin:round;">
<path d="M4.8769 7.6101
L1.0669 7.6101
" />
</g>
<g style="fill:none; 
stroke:#A90000; stroke-width:0.1524; stroke-opacity:1; 
stroke-linecap:round; stroke-linejoin:round;">
<text x="2.9719" y="7.3561"
textLength="1.4127" font-size="1.6933" lengthAdjust="spacingAndGlyphs"
text-anchor="middle" opacity="0" stroke-opacity="0">2</text>
<g class="stroked-text"><desc>2</desc>
<path d="M2.6091 6.0436
L2.6695 5.9831
" />
<path d="M2.6695 5.9831
L2.7905 5.9226
" />
<path d="M2.7905 5.9226
L3.0929 5.9226
" />
<path d="M3.0929 5.9226
L3.2138 5.9831
" />
<path d="M3.2138 5.9831
L3.2743 6.0436
" />
<path d="M3.2743 6.0436
L3.3348 6.1645
" />
<path d="M3.3348 6.1645
L3.3348 6.2855
" />
<path d="M3.3348 6.2855
L3.2743 6.4669
" />
<path d="M3.2743 6.4669
L2.5486 7.1926
" />
<path d="M2.5486 7.1926
L3.3348 7.1926
" />
</g></g>
<g style="fill:none; 
stroke:#840000; stroke-width:0.1524; stroke-opacity:1; 
stroke-linecap:round; stroke-linejoin:round;">
<path d="M4.8769 10.1501
L1.0669 10.1501
" />
</g>
<g style="fill:none; 
stroke:#A90000; stroke-width:0.1524; stroke-opacity:1; 
stroke-linecap:round; stroke-linejoin:round;">
<text x="2.9719" y="9.8961"
textLength="1.4127" font-size="1.6933" lengthAdjust="spacingAndGlyphs"
text-anchor="middle" opacity="0" stroke-opacity="0">3</text>
<g class="stroked-text"><desc>3</desc>
<path d="M2.5486 8.4626
L3.3348 8.4626
" />
<path d="M3.3348 8.4626
L2.9114 8.9464
" />
<path d="M2.9114 8.9464
L3.0929 8.9464
" />
<path d="M3.0929 8.9464
L3.2138 9.0069
" />
<path d="M3.2138 9.0069
L3.2743 9.0674
" />
<path d="M3.2743 9.0674
L3.3348 9.1883
" />
<path d="M3.3348 9.1883
L3.3348 9.4907
" />
<path d="M3.3348 9.4907
L3.2743 9.6117
" />
<path d="M3.2743 9.6117
L3.2138 9.6722
" />
<path d="M3.2138 9.6722
L3.0929 9.7326
" />
<path d="M3.0929 9.7326
L2.7300 9.7326
" />
<path d="M2.7300 9.7326
L2.6091 9.6722
" />
<path d="M2.6091 9.6722
L2.5486 9.6117
" />
</g></g>
<g style="fill:none; 
stroke:#840000; stroke-width:0.1524; stroke-opacity:1; 
stroke-linecap:round; stroke-linejoin:round;">
<path d="M4.8769 12.6901
L1.0669 12.6901
" />
</g>
<g style="fill:none; 
stroke:#A90000; stroke-width:0.1524; stroke-opacity:1; 
stroke-linecap:round; stroke-linejoin:round;">
<text x="2.9719" y="12.4361"
textLength="1.4127" font-size="1.6933" lengthAdjust="spacingAndGlyphs"
text-anchor="middle" opacity="0" stroke-opacity="0">4</text>
<g class="stroked-text"><desc>4</desc>
<path d="M3.2138 11.4260
L3.2138 12.2726
" />
<path d="M2.9114 10.9422
L2.6091 11.8493
" />
<path d="M2.6091 11.8493
L3.3952 11.8493
" />
</g></g>
<g style="fill:none; 
stroke:#840000; stroke-width:0.1524; stroke-opacity:1; 
stroke-linecap:round; stroke-linejoin:round;">
<path d="M4.8769 15.2301
L1.0669 15.2301
" />
</g>
<g style="fill:none; 
stroke:#A90000; stroke-width:0.1524; stroke-opacity:1; 
stroke-linecap:round; stroke-linejoin:round;">
<text x="2.9719" y="14.9761"
textLength="1.4127" font-size="1.6933" lengthAdjust="spacingAndGlyphs"
text-anchor="middle" opacity="0" stroke-opacity="0">5</text>
<g class="stroked-text"><desc>5</desc>
<path d="M3.2743 13.5426
L2.6695 13.5426
" />
<path d="M2.6695 13.5426
L2.6091 14.1474
" />
<path d="M2.6091 14.1474
L2.6695 14.0869
" />
<path d="M2.6695 14.0869
L2.7905 14.0264
" />
<path d="M2.7905 14.0264
L3.0929 14.0264
" />
<path d="M3.0929 14.0264
L3.2138 14.0869
" />
<path d="M3.2138 14.0869
L3.2743 14.1474
" />
<path d="M3.2743 14.1474
L3.3348 14.2683
" />
<path d="M3.3348 14.2683
L3.3348 14.5707
" />
<path d="M3.3348 14.5707
L3.2743 14.6917
" />
<path d="M3.2743 14.6917
L3.2138 14.7522
" />
<path d="M3.2138 14.7522
L3.0929 14.8126
" />
<path d="M3.0929 14.8126
L2.7905 14.8126
" />
<path d="M2.7905 14.8126
L2.6695 14.7522
" />
<path d="M2.6695 14.7522
L2.6091 14.6917
" />
</g></g>
<g style="fill:none; 
stroke:#006464; stroke-width:0.1524; stroke-opacity:1; 
stroke-linecap:round; stroke-linejoin:round;">
<text x="2.0321" y="-5.9027"
textLength="2.2594" font-size="1.6933" lengthAdjust="spacingAndGlyphs"
text-anchor="middle" opacity="0" stroke-opacity="0">J?</text>
<g class="stroked-text"><desc>J?</desc>
<path d="M1.6693 -7.2281
L1.6693 -6.3209
" />
<path d="M1.6693 -6.3209
L1.6088 -6.1395
" />
<path d="M1.6088 -6.1395
L1.4879 -6.0186
" />
<path d="M1.4879 -6.0186
L1.3064 -5.9581
" />
<path d="M1.3064 -5.9581
L1.1855 -5.9581
" />
<path d="M2.4554 -6.0790
L2.5158 -6.0186
" />
<path d="M2.5158 -6.0186
L2.4554 -5.9581
" />
<path d="M2.4554 -5.9581
L2.3949 -6.0186
" />
<path d="M2.3949 -6.0186
L2.4554 -6.0790
" />
<path d="M2.4554 -6.0790
L2.4554 -5.9581
" />
<path d="M2.2135 -7.1676
L2.3344 -7.2281
" />
<path d="M2.3344 -7.2281
L2.6368 -7.2281
" />
<path d="M2.6368 -7.2281
L2.7577 -7.1676
" />
<path d="M2.7577 -7.1676
L2.8182 -7.0466
" />
<path d="M2.8182 -7.0466
L2.8182 -6.9257
" />
<path d="M2.8182 -6.9257
L2.7577 -6.8047
" />
<path d="M2.7577 -6.8047
L2.6973 -6.7443
" />
<path d="M2.6973 -6.7443
L2.5763 -6.6838
" />
<path d="M2.5763 -6.6838
L2.5158 -6.6233
" />
<path d="M2.5158 -6.6233
L2.4554 -6.5024
" />
<path d="M2.4554 -6.5024
L2.4554 -6.4419
" />
</g></g> 
</svg>
