<?xml version="1.0" standalone="no"?>
 <!DOCTYPE svg PUBLIC "-//W3C//DTD SVG 1.1//EN" 
 "http://www.w3.org/Graphics/SVG/1.1/DTD/svg11.dtd"> 
<svg
  xmlns:svg="http://www.w3.org/2000/svg"
  xmlns="http://www.w3.org/2000/svg"
  xmlns:xlink="http://www.w3.org/1999/xlink"
  version="1.1"
  width="8.2296mm" height="15.0876mm" viewBox="0.0000 0.0000 8.2296 15.0876">
<title>SVG Image created as Conn_01x04_unit1.svg date 2025/08/14 19:40:30 </title>
  <desc>Image generated by Eeschema-SVG </desc>
<g style="fill:#000000; fill-opacity:1.0000;stroke:#000000; stroke-opacity:1.0000;
stroke-linecap:round; stroke-linejoin:round;"
 transform="translate(0 0) scale(1 1)">
</g>
<g style="fill:#FFFFC2; fill-opacity:1.0000; stroke:none;">
<rect x="4.876900" y="3.546100" width="2.540000" height="10.160000" rx="0.000000" />
</g>
<g style="fill:none; 
stroke:#840000; stroke-width:0.2540; stroke-opacity:1; 
stroke-linecap:round; stroke-linejoin:round;">
<rect x="4.876900" y="3.546100" width="2.540000" height="10.160000" rx="0.000000" />
</g>
<g style="fill:none; 
stroke:#840000; stroke-width:0.1524; stroke-opacity:1; 
stroke-linecap:round; stroke-linejoin:round;">
<rect x="4.876900" y="4.689100" width="1.270000" height="0.254000" rx="0.000000" />
<rect x="4.876900" y="7.229100" width="1.270000" height="0.254000" rx="0.000000" />
<rect x="4.876900" y="9.769100" width="1.270000" height="0.254000" rx="0.000000" />
<rect x="4.876900" y="12.309100" width="1.270000" height="0.254000" rx="0.000000" />
<path d="M4.8769 4.8161
L1.0669 4.8161
" />
</g>
<g style="fill:none; 
stroke:#A90000; stroke-width:0.1524; stroke-opacity:1; 
stroke-linecap:round; stroke-linejoin:round;">
<text x="2.9719" y="4.5621"
textLength="1.4127" font-size="1.6933" lengthAdjust="spacingAndGlyphs"
text-anchor="middle" opacity="0" stroke-opacity="0">1</text>
<g class="stroked-text"><desc>1</desc>
<path d="M3.3348 4.3986
L2.6091 4.3986
" />
<path d="M2.9719 4.3986
L2.9719 3.1286
" />
<path d="M2.9719 3.1286
L2.8510 3.3101
" />
<path d="M2.8510 3.3101
L2.7300 3.4310
" />
<path d="M2.7300 3.4310
L2.6091 3.4915
" />
</g></g>
<g style="fill:none; 
stroke:#840000; stroke-width:0.1524; stroke-opacity:1; 
stroke-linecap:round; stroke-linejoin:round;">
<path d="M4.8769 7.3561
L1.0669 7.3561
" />
</g>
<g style="fill:none; 
stroke:#A90000; stroke-width:0.1524; stroke-opacity:1; 
stroke-linecap:round; stroke-linejoin:round;">
<text x="2.9719" y="7.1021"
textLength="1.4127" font-size="1.6933" lengthAdjust="spacingAndGlyphs"
text-anchor="middle" opacity="0" stroke-opacity="0">2</text>
<g class="stroked-text"><desc>2</desc>
<path d="M2.6091 5.7896
L2.6695 5.7291
" />
<path d="M2.6695 5.7291
L2.7905 5.6686
" />
<path d="M2.7905 5.6686
L3.0929 5.6686
" />
<path d="M3.0929 5.6686
L3.2138 5.7291
" />
<path d="M3.2138 5.7291
L3.2743 5.7896
" />
<path d="M3.2743 5.7896
L3.3348 5.9105
" />
<path d="M3.3348 5.9105
L3.3348 6.0315
" />
<path d="M3.3348 6.0315
L3.2743 6.2129
" />
<path d="M3.2743 6.2129
L2.5486 6.9386
" />
<path d="M2.5486 6.9386
L3.3348 6.9386
" />
</g></g>
<g style="fill:none; 
stroke:#840000; stroke-width:0.1524; stroke-opacity:1; 
stroke-linecap:round; stroke-linejoin:round;">
<path d="M4.8769 9.8961
L1.0669 9.8961
" />
</g>
<g style="fill:none; 
stroke:#A90000; stroke-width:0.1524; stroke-opacity:1; 
stroke-linecap:round; stroke-linejoin:round;">
<text x="2.9719" y="9.6421"
textLength="1.4127" font-size="1.6933" lengthAdjust="spacingAndGlyphs"
text-anchor="middle" opacity="0" stroke-opacity="0">3</text>
<g class="stroked-text"><desc>3</desc>
<path d="M2.5486 8.2086
L3.3348 8.2086
" />
<path d="M3.3348 8.2086
L2.9114 8.6924
" />
<path d="M2.9114 8.6924
L3.0929 8.6924
" />
<path d="M3.0929 8.6924
L3.2138 8.7529
" />
<path d="M3.2138 8.7529
L3.2743 8.8134
" />
<path d="M3.2743 8.8134
L3.3348 8.9343
" />
<path d="M3.3348 8.9343
L3.3348 9.2367
" />
<path d="M3.3348 9.2367
L3.2743 9.3577
" />
<path d="M3.2743 9.3577
L3.2138 9.4182
" />
<path d="M3.2138 9.4182
L3.0929 9.4786
" />
<path d="M3.0929 9.4786
L2.7300 9.4786
" />
<path d="M2.7300 9.4786
L2.6091 9.4182
" />
<path d="M2.6091 9.4182
L2.5486 9.3577
" />
</g></g>
<g style="fill:none; 
stroke:#840000; stroke-width:0.1524; stroke-opacity:1; 
stroke-linecap:round; stroke-linejoin:round;">
<path d="M4.8769 12.4361
L1.0669 12.4361
" />
</g>
<g style="fill:none; 
stroke:#A90000; stroke-width:0.1524; stroke-opacity:1; 
stroke-linecap:round; stroke-linejoin:round;">
<text x="2.9719" y="12.1821"
textLength="1.4127" font-size="1.6933" lengthAdjust="spacingAndGlyphs"
text-anchor="middle" opacity="0" stroke-opacity="0">4</text>
<g class="stroked-text"><desc>4</desc>
<path d="M3.2138 11.1720
L3.2138 12.0186
" />
<path d="M2.9114 10.6882
L2.6091 11.5953
" />
<path d="M2.6091 11.5953
L3.3952 11.5953
" />
</g></g>
<g style="fill:none; 
stroke:#006464; stroke-width:0.1524; stroke-opacity:1; 
stroke-linecap:round; stroke-linejoin:round;">
<text x="2.0321" y="-4.6327"
textLength="2.2594" font-size="1.6933" lengthAdjust="spacingAndGlyphs"
text-anchor="middle" opacity="0" stroke-opacity="0">J?</text>
<g class="stroked-text"><desc>J?</desc>
<path d="M1.6693 -5.9581
L1.6693 -5.0509
" />
<path d="M1.6693 -5.0509
L1.6088 -4.8695
" />
<path d="M1.6088 -4.8695
L1.4879 -4.7486
" />
<path d="M1.4879 -4.7486
L1.3064 -4.6881
" />
<path d="M1.3064 -4.6881
L1.1855 -4.6881
" />
<path d="M2.4554 -4.8090
L2.5158 -4.7486
" />
<path d="M2.5158 -4.7486
L2.4554 -4.6881
" />
<path d="M2.4554 -4.6881
L2.3949 -4.7486
" />
<path d="M2.3949 -4.7486
L2.4554 -4.8090
" />
<path d="M2.4554 -4.8090
L2.4554 -4.6881
" />
<path d="M2.2135 -5.8976
L2.3344 -5.9581
" />
<path d="M2.3344 -5.9581
L2.6368 -5.9581
" />
<path d="M2.6368 -5.9581
L2.7577 -5.8976
" />
<path d="M2.7577 -5.8976
L2.8182 -5.7766
" />
<path d="M2.8182 -5.7766
L2.8182 -5.6557
" />
<path d="M2.8182 -5.6557
L2.7577 -5.5347
" />
<path d="M2.7577 -5.5347
L2.6973 -5.4743
" />
<path d="M2.6973 -5.4743
L2.5763 -5.4138
" />
<path d="M2.5763 -5.4138
L2.5158 -5.3533
" />
<path d="M2.5158 -5.3533
L2.4554 -5.2324
" />
<path d="M2.4554 -5.2324
L2.4554 -5.1719
" />
</g></g> 
</svg>
