<?xml version="1.0" standalone="no"?>
 <!DOCTYPE svg PUBLIC "-//W3C//DTD SVG 1.1//EN" 
 "http://www.w3.org/Graphics/SVG/1.1/DTD/svg11.dtd"> 
<svg
  xmlns:svg="http://www.w3.org/2000/svg"
  xmlns="http://www.w3.org/2000/svg"
  xmlns:xlink="http://www.w3.org/1999/xlink"
  version="1.1"
  width="10.0584mm" height="5.9436mm" viewBox="0.0000 0.0000 10.0584 5.9436">
<title>SVG Image created as D_1N4448_unit1.svg date 2025/08/14 19:40:30 </title>
  <desc>Image generated by Eeschema-SVG </desc>
<g style="fill:#000000; fill-opacity:1.0000;stroke:#000000; stroke-opacity:1.0000;
stroke-linecap:round; stroke-linejoin:round;"
 transform="translate(0 0) scale(1 1)">
<path style="fill:none; 
stroke:#840000; stroke-width:0.2540; stroke-opacity:1; 
stroke-linecap:round; stroke-linejoin:round;fill:none"
d="M 3.7592,2.7841
3.7592,5.3241
" /> 
<path style="fill:none; 
stroke:#840000; stroke-width:0.2540; stroke-opacity:1; 
stroke-linecap:round; stroke-linejoin:round;fill:none"
d="M 6.2992,2.7841
6.2992,5.3241
3.7592,4.0541
Z" /> 
<path style="fill:none; 
stroke:#840000; stroke-width:0.1524; stroke-opacity:1; 
stroke-linecap:round; stroke-linejoin:round;fill:none"
d="M 6.2992,4.0541
3.7592,4.0541
" /> 
</g>
<g style="fill:none; 
stroke:#840000; stroke-width:0.1524; stroke-opacity:1; 
stroke-linecap:round; stroke-linejoin:round;">
<path d="M3.7592 4.0541
L1.2192 4.0541
" />
<path d="M6.2992 4.0541
L8.8392 4.0541
" />
</g>
<g style="fill:none; 
stroke:#006464; stroke-width:0.1524; stroke-opacity:1; 
stroke-linecap:round; stroke-linejoin:round;">
<text x="0.0000" y="-0.8227"
textLength="2.5618" font-size="1.6933" lengthAdjust="spacingAndGlyphs"
text-anchor="middle" opacity="0" stroke-opacity="0">D?</text>
<g class="stroked-text"><desc>D?</desc>
<path d="M-0.8769 -0.8781
L-0.8769 -2.1481
" />
<path d="M-0.8769 -2.1481
L-0.5745 -2.1481
" />
<path d="M-0.5745 -2.1481
L-0.3931 -2.0876
" />
<path d="M-0.3931 -2.0876
L-0.2721 -1.9666
" />
<path d="M-0.2721 -1.9666
L-0.2116 -1.8457
" />
<path d="M-0.2116 -1.8457
L-0.1512 -1.6038
" />
<path d="M-0.1512 -1.6038
L-0.1512 -1.4224
" />
<path d="M-0.1512 -1.4224
L-0.2116 -1.1805
" />
<path d="M-0.2116 -1.1805
L-0.2721 -1.0595
" />
<path d="M-0.2721 -1.0595
L-0.3931 -0.9386
" />
<path d="M-0.3931 -0.9386
L-0.5745 -0.8781
" />
<path d="M-0.5745 -0.8781
L-0.8769 -0.8781
" />
<path d="M0.5745 -0.9990
L0.6349 -0.9386
" />
<path d="M0.6349 -0.9386
L0.5745 -0.8781
" />
<path d="M0.5745 -0.8781
L0.5140 -0.9386
" />
<path d="M0.5140 -0.9386
L0.5745 -0.9990
" />
<path d="M0.5745 -0.9990
L0.5745 -0.8781
" />
<path d="M0.3326 -2.0876
L0.4535 -2.1481
" />
<path d="M0.4535 -2.1481
L0.7559 -2.1481
" />
<path d="M0.7559 -2.1481
L0.8768 -2.0876
" />
<path d="M0.8768 -2.0876
L0.9373 -1.9666
" />
<path d="M0.9373 -1.9666
L0.9373 -1.8457
" />
<path d="M0.9373 -1.8457
L0.8768 -1.7247
" />
<path d="M0.8768 -1.7247
L0.8164 -1.6643
" />
<path d="M0.8164 -1.6643
L0.6954 -1.6038
" />
<path d="M0.6954 -1.6038
L0.6349 -1.5433
" />
<path d="M0.6349 -1.5433
L0.5745 -1.4224
" />
<path d="M0.5745 -1.4224
L0.5745 -1.3619
" />
</g></g> 
</svg>
