<?xml version="1.0" standalone="no"?>
 <!DOCTYPE svg PUBLIC "-//W3C//DTD SVG 1.1//EN" 
 "http://www.w3.org/Graphics/SVG/1.1/DTD/svg11.dtd"> 
<svg
  xmlns:svg="http://www.w3.org/2000/svg"
  xmlns="http://www.w3.org/2000/svg"
  xmlns:xlink="http://www.w3.org/1999/xlink"
  version="1.1"
  width="19.2024mm" height="15.9766mm" viewBox="0.0000 0.0000 19.2024 15.9766">
<title>SVG Image created as D_BAV70_unit1.svg date 2025/08/14 19:40:30 </title>
  <desc>Image generated by Eeschema-SVG </desc>
<g style="fill:#000000; fill-opacity:1.0000;stroke:#000000; stroke-opacity:1.0000;
stroke-linecap:round; stroke-linejoin:round;"
 transform="translate(0 0) scale(1 1)">
</g>
<g style="fill:#FFFFC2; fill-opacity:1.0000; stroke:none;">
<rect x="4.521200" y="4.353000" width="10.160000" height="10.160000" rx="0.000000" />
<path style="fill:none; 
stroke:#840000; stroke-width:0.1524; stroke-opacity:1; 
stroke-linecap:round; stroke-linejoin:round;fill:none"
d="M 4.5212,6.8930
7.0612,6.8930
" /> 
<path style="fill:none; 
stroke:#840000; stroke-width:0.1524; stroke-opacity:1; 
stroke-linecap:round; stroke-linejoin:round;fill:none"
d="M 4.5212,11.9730
7.0612,11.9730
" /> 
</g>
<g style="fill:none; 
stroke:#840000; stroke-width:0.2540; stroke-opacity:1; 
stroke-linecap:round; stroke-linejoin:round;">
<rect x="4.521200" y="4.353000" width="10.160000" height="10.160000" rx="0.000000" />
<path style="fill:none; 
stroke:#840000; stroke-width:0.2540; stroke-opacity:1; 
stroke-linecap:round; stroke-linejoin:round;fill:none"
d="M 7.0612,5.6230
9.6012,6.8930
" /> 
<path style="fill:none; 
stroke:#840000; stroke-width:0.2540; stroke-opacity:1; 
stroke-linecap:round; stroke-linejoin:round;fill:none"
d="M 7.0612,6.8930
7.0612,5.6230
" /> 
<path style="fill:none; 
stroke:#840000; stroke-width:0.2540; stroke-opacity:1; 
stroke-linecap:round; stroke-linejoin:round;fill:none"
d="M 7.0612,8.1630
7.0612,6.8930
" /> 
<path style="fill:none; 
stroke:#840000; stroke-width:0.2540; stroke-opacity:1; 
stroke-linecap:round; stroke-linejoin:round;fill:none"
d="M 7.0612,10.7030
9.6012,11.9730
" /> 
<path style="fill:none; 
stroke:#840000; stroke-width:0.2540; stroke-opacity:1; 
stroke-linecap:round; stroke-linejoin:round;fill:none"
d="M 7.0612,11.9730
7.0612,10.7030
" /> 
<path style="fill:none; 
stroke:#840000; stroke-width:0.2540; stroke-opacity:1; 
stroke-linecap:round; stroke-linejoin:round;fill:none"
d="M 7.0612,13.2430
7.0612,11.9730
" /> 
<path style="fill:none; 
stroke:#840000; stroke-width:0.2540; stroke-opacity:1; 
stroke-linecap:round; stroke-linejoin:round;fill:none"
d="M 9.6012,6.8930
7.0612,8.1630
" /> 
<path style="fill:none; 
stroke:#840000; stroke-width:0.2540; stroke-opacity:1; 
stroke-linecap:round; stroke-linejoin:round;fill:none"
d="M 9.6012,6.8930
9.6012,5.6230
" /> 
<path style="fill:none; 
stroke:#840000; stroke-width:0.2540; stroke-opacity:1; 
stroke-linecap:round; stroke-linejoin:round;fill:none"
d="M 9.6012,8.1630
9.6012,6.8930
" /> 
<path style="fill:none; 
stroke:#840000; stroke-width:0.2540; stroke-opacity:1; 
stroke-linecap:round; stroke-linejoin:round;fill:none"
d="M 9.6012,11.9730
7.0612,13.2430
" /> 
<path style="fill:none; 
stroke:#840000; stroke-width:0.2540; stroke-opacity:1; 
stroke-linecap:round; stroke-linejoin:round;fill:none"
d="M 9.6012,11.9730
9.6012,10.7030
" /> 
<path style="fill:none; 
stroke:#840000; stroke-width:0.2540; stroke-opacity:1; 
stroke-linecap:round; stroke-linejoin:round;fill:none"
d="M 9.6012,13.2430
9.6012,11.9730
" /> 
<path style="fill:none; 
stroke:#840000; stroke-width:0.1524; stroke-opacity:1; 
stroke-linecap:round; stroke-linejoin:round;fill:none"
d="M 12.1412,6.8930
9.6012,6.8930
" /> 
<path style="fill:none; 
stroke:#840000; stroke-width:0.1524; stroke-opacity:1; 
stroke-linecap:round; stroke-linejoin:round;fill:none"
d="M 12.1412,9.4330
12.1412,6.8930
" /> 
<path style="fill:none; 
stroke:#840000; stroke-width:0.1524; stroke-opacity:1; 
stroke-linecap:round; stroke-linejoin:round;fill:none"
d="M 12.1412,9.4330
14.6812,9.4330
" /> 
<path style="fill:none; 
stroke:#840000; stroke-width:0.1524; stroke-opacity:1; 
stroke-linecap:round; stroke-linejoin:round;fill:none"
d="M 12.1412,11.9730
9.6012,11.9730
" /> 
<path style="fill:none; 
stroke:#840000; stroke-width:0.1524; stroke-opacity:1; 
stroke-linecap:round; stroke-linejoin:round;fill:none"
d="M 12.1412,11.9730
12.1412,9.4330
" /> 
</g>
<g style="fill:none; 
stroke:#840000; stroke-width:0.1524; stroke-opacity:1; 
stroke-linecap:round; stroke-linejoin:round;">
<path d="M4.5212 6.8930
L1.9812 6.8930
" />
</g>
<g style="fill:none; 
stroke:#A90000; stroke-width:0.1524; stroke-opacity:1; 
stroke-linecap:round; stroke-linejoin:round;">
<text x="3.2512" y="6.6390"
textLength="1.2216" font-size="1.3546" lengthAdjust="spacingAndGlyphs"
text-anchor="middle" opacity="0" stroke-opacity="0">1</text>
<g class="stroked-text"><desc>1</desc>
<path d="M3.5414 6.5066
L2.9609 6.5066
" />
<path d="M3.2512 6.5066
L3.2512 5.4906
" />
<path d="M3.2512 5.4906
L3.1544 5.6358
" />
<path d="M3.1544 5.6358
L3.0576 5.7325
" />
<path d="M3.0576 5.7325
L2.9609 5.7809
" />
</g></g>
<g style="fill:none; 
stroke:#840000; stroke-width:0.1524; stroke-opacity:1; 
stroke-linecap:round; stroke-linejoin:round;">
<path d="M4.5212 11.9730
L1.9812 11.9730
" />
</g>
<g style="fill:none; 
stroke:#A90000; stroke-width:0.1524; stroke-opacity:1; 
stroke-linecap:round; stroke-linejoin:round;">
<text x="3.2512" y="11.7190"
textLength="1.2216" font-size="1.3546" lengthAdjust="spacingAndGlyphs"
text-anchor="middle" opacity="0" stroke-opacity="0">2</text>
<g class="stroked-text"><desc>2</desc>
<path d="M2.9609 10.6674
L3.0093 10.6190
" />
<path d="M3.0093 10.6190
L3.1060 10.5706
" />
<path d="M3.1060 10.5706
L3.3479 10.5706
" />
<path d="M3.3479 10.5706
L3.4447 10.6190
" />
<path d="M3.4447 10.6190
L3.4931 10.6674
" />
<path d="M3.4931 10.6674
L3.5414 10.7642
" />
<path d="M3.5414 10.7642
L3.5414 10.8609
" />
<path d="M3.5414 10.8609
L3.4931 11.0061
" />
<path d="M3.4931 11.0061
L2.9125 11.5866
" />
<path d="M2.9125 11.5866
L3.5414 11.5866
" />
</g></g>
<g style="fill:none; 
stroke:#840000; stroke-width:0.1524; stroke-opacity:1; 
stroke-linecap:round; stroke-linejoin:round;">
<path d="M14.6812 9.4330
L17.2212 9.4330
" />
</g>
<g style="fill:none; 
stroke:#A90000; stroke-width:0.1524; stroke-opacity:1; 
stroke-linecap:round; stroke-linejoin:round;">
<text x="15.9512" y="9.1790"
textLength="1.2216" font-size="1.3546" lengthAdjust="spacingAndGlyphs"
text-anchor="middle" opacity="0" stroke-opacity="0">3</text>
<g class="stroked-text"><desc>3</desc>
<path d="M15.6125 8.0306
L16.2414 8.0306
" />
<path d="M16.2414 8.0306
L15.9028 8.4177
" />
<path d="M15.9028 8.4177
L16.0479 8.4177
" />
<path d="M16.0479 8.4177
L16.1447 8.4661
" />
<path d="M16.1447 8.4661
L16.1931 8.5144
" />
<path d="M16.1931 8.5144
L16.2414 8.6112
" />
<path d="M16.2414 8.6112
L16.2414 8.8531
" />
<path d="M16.2414 8.8531
L16.1931 8.9499
" />
<path d="M16.1931 8.9499
L16.1447 8.9983
" />
<path d="M16.1447 8.9983
L16.0479 9.0466
" />
<path d="M16.0479 9.0466
L15.7576 9.0466
" />
<path d="M15.7576 9.0466
L15.6609 8.9983
" />
<path d="M15.6609 8.9983
L15.6125 8.9499
" />
</g></g>
<g style="fill:none; 
stroke:#006464; stroke-width:0.1524; stroke-opacity:1; 
stroke-linecap:round; stroke-linejoin:round;">
<text x="-5.0800" y="-4.9053"
textLength="2.5618" font-size="1.6933" lengthAdjust="spacingAndGlyphs"
text-anchor="start" opacity="0" stroke-opacity="0">D?</text>
<g class="stroked-text"><desc>D?</desc>
<path d="M-4.6774 -5.0687
L-4.6774 -6.3387
" />
<path d="M-4.6774 -6.3387
L-4.3750 -6.3387
" />
<path d="M-4.3750 -6.3387
L-4.1936 -6.2782
" />
<path d="M-4.1936 -6.2782
L-4.0726 -6.1572
" />
<path d="M-4.0726 -6.1572
L-4.0121 -6.0363
" />
<path d="M-4.0121 -6.0363
L-3.9517 -5.7944
" />
<path d="M-3.9517 -5.7944
L-3.9517 -5.6130
" />
<path d="M-3.9517 -5.6130
L-4.0121 -5.3711
" />
<path d="M-4.0121 -5.3711
L-4.0726 -5.2501
" />
<path d="M-4.0726 -5.2501
L-4.1936 -5.1292
" />
<path d="M-4.1936 -5.1292
L-4.3750 -5.0687
" />
<path d="M-4.3750 -5.0687
L-4.6774 -5.0687
" />
<path d="M-3.2259 -5.1896
L-3.1655 -5.1292
" />
<path d="M-3.1655 -5.1292
L-3.2259 -5.0687
" />
<path d="M-3.2259 -5.0687
L-3.2864 -5.1292
" />
<path d="M-3.2864 -5.1292
L-3.2259 -5.1896
" />
<path d="M-3.2259 -5.1896
L-3.2259 -5.0687
" />
<path d="M-3.4678 -6.2782
L-3.3469 -6.3387
" />
<path d="M-3.3469 -6.3387
L-3.0445 -6.3387
" />
<path d="M-3.0445 -6.3387
L-2.9236 -6.2782
" />
<path d="M-2.9236 -6.2782
L-2.8631 -6.1572
" />
<path d="M-2.8631 -6.1572
L-2.8631 -6.0363
" />
<path d="M-2.8631 -6.0363
L-2.9236 -5.9153
" />
<path d="M-2.9236 -5.9153
L-2.9840 -5.8549
" />
<path d="M-2.9840 -5.8549
L-3.1050 -5.7944
" />
<path d="M-3.1050 -5.7944
L-3.1655 -5.7339
" />
<path d="M-3.1655 -5.7339
L-3.2259 -5.6130
" />
<path d="M-3.2259 -5.6130
L-3.2259 -5.5525
" />
</g></g> 
</svg>
