<?xml version="1.0" standalone="no"?>
 <!DOCTYPE svg PUBLIC "-//W3C//DTD SVG 1.1//EN" 
 "http://www.w3.org/Graphics/SVG/1.1/DTD/svg11.dtd"> 
<svg
  xmlns:svg="http://www.w3.org/2000/svg"
  xmlns="http://www.w3.org/2000/svg"
  xmlns:xlink="http://www.w3.org/1999/xlink"
  version="1.1"
  width="10.0584mm" height="5.4864mm" viewBox="0.0000 0.0000 10.0584 5.4864">
<title>SVG Image created as D_Generic_unit1.svg date 2025/08/14 19:40:30 </title>
  <desc>Image generated by Eeschema-SVG </desc>
<g style="fill:#000000; fill-opacity:1.0000;stroke:#000000; stroke-opacity:1.0000;
stroke-linecap:round; stroke-linejoin:round;"
 transform="translate(0 0) scale(1 1)">
<path style="fill:none; 
stroke:#840000; stroke-width:0.2540; stroke-opacity:1; 
stroke-linecap:round; stroke-linejoin:round;fill:none"
d="M 3.7592,2.3622
3.7592,4.9022
" /> 
<path style="fill:none; 
stroke:#840000; stroke-width:0.1524; stroke-opacity:1; 
stroke-linecap:round; stroke-linejoin:round;fill:none"
d="M 3.8862,1.9812
5.4102,0.4572
5.4102,0.9652
5.4102,0.4572
4.9022,0.4572
" /> 
<path style="fill:none; 
stroke:#840000; stroke-width:0.1524; stroke-opacity:1; 
stroke-linecap:round; stroke-linejoin:round;fill:none"
d="M 5.1562,1.9812
6.6802,0.4572
6.6802,0.9652
" /> 
<path style="fill:none; 
stroke:#840000; stroke-width:0.1524; stroke-opacity:1; 
stroke-linecap:round; stroke-linejoin:round;fill:none"
d="M 6.2992,3.6322
3.7592,3.6322
" /> 
<path style="fill:none; 
stroke:#840000; stroke-width:0.2540; stroke-opacity:1; 
stroke-linecap:round; stroke-linejoin:round;fill:none"
d="M 6.2992,4.9022
3.7592,3.6322
6.2992,2.3622
Z" /> 
<path style="fill:none; 
stroke:#840000; stroke-width:0.1524; stroke-opacity:1; 
stroke-linecap:round; stroke-linejoin:round;fill:none"
d="M 6.6802,0.4572
6.1722,0.4572
" /> 
</g>
<g style="fill:none; 
stroke:#840000; stroke-width:0.1524; stroke-opacity:1; 
stroke-linecap:round; stroke-linejoin:round;">
<path d="M3.7592 3.6322
L1.2192 3.6322
" />
<path d="M6.2992 3.6322
L8.8392 3.6322
" />
</g>
<g style="fill:none; 
stroke:#006464; stroke-width:0.1524; stroke-opacity:1; 
stroke-linecap:round; stroke-linejoin:round;">
<text x="1.7780" y="-0.2540"
textLength="2.5618" font-size="1.6933" lengthAdjust="spacingAndGlyphs"
text-anchor="start" opacity="0" stroke-opacity="0">D?</text>
<g class="stroked-text"><desc>D?</desc>
<path d="M2.1805 -0.3094
L2.1805 -1.5794
" />
<path d="M2.1805 -1.5794
L2.4829 -1.5794
" />
<path d="M2.4829 -1.5794
L2.6643 -1.5189
" />
<path d="M2.6643 -1.5189
L2.7853 -1.3979
" />
<path d="M2.7853 -1.3979
L2.8458 -1.2770
" />
<path d="M2.8458 -1.2770
L2.9062 -1.0351
" />
<path d="M2.9062 -1.0351
L2.9062 -0.8537
" />
<path d="M2.9062 -0.8537
L2.8458 -0.6118
" />
<path d="M2.8458 -0.6118
L2.7853 -0.4908
" />
<path d="M2.7853 -0.4908
L2.6643 -0.3699
" />
<path d="M2.6643 -0.3699
L2.4829 -0.3094
" />
<path d="M2.4829 -0.3094
L2.1805 -0.3094
" />
<path d="M3.6320 -0.4303
L3.6924 -0.3699
" />
<path d="M3.6924 -0.3699
L3.6320 -0.3094
" />
<path d="M3.6320 -0.3094
L3.5715 -0.3699
" />
<path d="M3.5715 -0.3699
L3.6320 -0.4303
" />
<path d="M3.6320 -0.4303
L3.6320 -0.3094
" />
<path d="M3.3901 -1.5189
L3.5110 -1.5794
" />
<path d="M3.5110 -1.5794
L3.8134 -1.5794
" />
<path d="M3.8134 -1.5794
L3.9343 -1.5189
" />
<path d="M3.9343 -1.5189
L3.9948 -1.3979
" />
<path d="M3.9948 -1.3979
L3.9948 -1.2770
" />
<path d="M3.9948 -1.2770
L3.9343 -1.1560
" />
<path d="M3.9343 -1.1560
L3.8739 -1.0956
" />
<path d="M3.8739 -1.0956
L3.7529 -1.0351
" />
<path d="M3.7529 -1.0351
L3.6924 -0.9746
" />
<path d="M3.6924 -0.9746
L3.6320 -0.8537
" />
<path d="M3.6320 -0.8537
L3.6320 -0.7932
" />
</g></g> 
</svg>
