<?xml version="1.0" standalone="no"?>
 <!DOCTYPE svg PUBLIC "-//W3C//DTD SVG 1.1//EN" 
 "http://www.w3.org/Graphics/SVG/1.1/DTD/svg11.dtd"> 
<svg
  xmlns:svg="http://www.w3.org/2000/svg"
  xmlns="http://www.w3.org/2000/svg"
  xmlns:xlink="http://www.w3.org/1999/xlink"
  version="1.1"
  width="19.2024mm" height="19.2024mm" viewBox="0.0000 0.0000 19.2024 19.2024">
<title>SVG Image created as D_SK6812MINI-E_unit1.svg date 2025/08/14 19:40:30 </title>
  <desc>Image generated by Eeschema-SVG </desc>
<g style="fill:#000000; fill-opacity:1.0000;stroke:#000000; stroke-opacity:1.0000;
stroke-linecap:round; stroke-linejoin:round;"
 transform="translate(0 0) scale(1 1)">
</g>
<g style="fill:#FFFFC2; fill-opacity:1.0000; stroke:none;">
<rect x="4.521200" y="4.521200" width="10.160000" height="10.160000" rx="0.000000" />
</g>
<g style="fill:none; 
stroke:#840000; stroke-width:0.2540; stroke-opacity:1; 
stroke-linecap:round; stroke-linejoin:round;">
<rect x="4.521200" y="4.521200" width="10.160000" height="10.160000" rx="0.000000" />
</g>
<g style="fill:none; 
stroke:#840000; stroke-width:0.1524; stroke-opacity:1; 
stroke-linecap:round; stroke-linejoin:round;">
<path d="M4.5212 9.6012
L1.9812 9.6012
" />
</g>
<g style="fill:none; 
stroke:#006464; stroke-width:0.1524; stroke-opacity:1; 
stroke-linecap:round; stroke-linejoin:round;">
<text x="5.5372" y="10.0965"
textLength="2.7592" font-size="1.3208" lengthAdjust="spacingAndGlyphs"
text-anchor="start" opacity="0" stroke-opacity="0">DIN</text>
<g class="stroked-text"><desc>DIN</desc>
<path d="M5.8732 10.0514
L5.8732 9.0608
" />
<path d="M5.8732 9.0608
L6.1091 9.0608
" />
<path d="M6.1091 9.0608
L6.2506 9.1080
" />
<path d="M6.2506 9.1080
L6.3449 9.2023
" />
<path d="M6.3449 9.2023
L6.3921 9.2967
" />
<path d="M6.3921 9.2967
L6.4393 9.4854
" />
<path d="M6.4393 9.4854
L6.4393 9.6269
" />
<path d="M6.4393 9.6269
L6.3921 9.8156
" />
<path d="M6.3921 9.8156
L6.3449 9.9099
" />
<path d="M6.3449 9.9099
L6.2506 10.0043
" />
<path d="M6.2506 10.0043
L6.1091 10.0514
" />
<path d="M6.1091 10.0514
L5.8732 10.0514
" />
<path d="M6.8638 10.0514
L6.8638 9.0608
" />
<path d="M7.3355 10.0514
L7.3355 9.0608
" />
<path d="M7.3355 9.0608
L7.9016 10.0514
" />
<path d="M7.9016 10.0514
L7.9016 9.0608
" />
</g></g>
<g style="fill:none; 
stroke:#A90000; stroke-width:0.1524; stroke-opacity:1; 
stroke-linecap:round; stroke-linejoin:round;">
<text x="3.2512" y="9.3472"
textLength="1.4127" font-size="1.6933" lengthAdjust="spacingAndGlyphs"
text-anchor="middle" opacity="0" stroke-opacity="0">4</text>
<g class="stroked-text"><desc>4</desc>
<path d="M3.4931 8.3371
L3.4931 9.1837
" />
<path d="M3.1907 7.8533
L2.8884 8.7604
" />
<path d="M2.8884 8.7604
L3.6745 8.7604
" />
</g></g>
<g style="fill:none; 
stroke:#840000; stroke-width:0.1524; stroke-opacity:1; 
stroke-linecap:round; stroke-linejoin:round;">
<path d="M9.6012 4.5212
L9.6012 1.9812
" />
</g>
<g style="fill:none; 
stroke:#006464; stroke-width:0.1524; stroke-opacity:1; 
stroke-linecap:round; stroke-linejoin:round;">
<g transform="rotate(-90.000000 9.6012 5.5372)">
<text x="9.6012" y="6.0325"
textLength="3.0894" font-size="1.3208" lengthAdjust="spacingAndGlyphs"
text-anchor="end" opacity="0" stroke-opacity="0">VDD</text>
</g>
<g class="stroked-text"><desc>VDD</desc>
<path d="M9.0608 8.3733
L10.0514 8.0431
" />
<path d="M10.0514 8.0431
L9.0608 7.7129
" />
<path d="M10.0514 7.3827
L9.0608 7.3827
" />
<path d="M9.0608 7.3827
L9.0608 7.1468
" />
<path d="M9.0608 7.1468
L9.1080 7.0053
" />
<path d="M9.1080 7.0053
L9.2023 6.9110
" />
<path d="M9.2023 6.9110
L9.2967 6.8638
" />
<path d="M9.2967 6.8638
L9.4854 6.8166
" />
<path d="M9.4854 6.8166
L9.6269 6.8166
" />
<path d="M9.6269 6.8166
L9.8156 6.8638
" />
<path d="M9.8156 6.8638
L9.9099 6.9110
" />
<path d="M9.9099 6.9110
L10.0043 7.0053
" />
<path d="M10.0043 7.0053
L10.0514 7.1468
" />
<path d="M10.0514 7.1468
L10.0514 7.3827
" />
<path d="M10.0514 6.3921
L9.0608 6.3921
" />
<path d="M9.0608 6.3921
L9.0608 6.1562
" />
<path d="M9.0608 6.1562
L9.1080 6.0147
" />
<path d="M9.1080 6.0147
L9.2023 5.9204
" />
<path d="M9.2023 5.9204
L9.2967 5.8732
" />
<path d="M9.2967 5.8732
L9.4854 5.8260
" />
<path d="M9.4854 5.8260
L9.6269 5.8260
" />
<path d="M9.6269 5.8260
L9.8156 5.8732
" />
<path d="M9.8156 5.8732
L9.9099 5.9204
" />
<path d="M9.9099 5.9204
L10.0043 6.0147
" />
<path d="M10.0043 6.0147
L10.0514 6.1562
" />
<path d="M10.0514 6.1562
L10.0514 6.3921
" />
</g></g>
<g style="fill:none; 
stroke:#A90000; stroke-width:0.1524; stroke-opacity:1; 
stroke-linecap:round; stroke-linejoin:round;">
<g transform="rotate(-90.000000 9.3472 3.2512)">
<text x="9.3472" y="3.2512"
textLength="1.4127" font-size="1.6933" lengthAdjust="spacingAndGlyphs"
text-anchor="middle" opacity="0" stroke-opacity="0">1</text>
</g>
<g class="stroked-text"><desc>1</desc>
<path d="M9.1837 2.8882
L9.1837 3.6139
" />
<path d="M9.1837 3.2511
L7.9137 3.2511
" />
<path d="M7.9137 3.2511
L8.0952 3.3720
" />
<path d="M8.0952 3.3720
L8.2161 3.4930
" />
<path d="M8.2161 3.4930
L8.2766 3.6139
" />
</g></g>
<g style="fill:none; 
stroke:#840000; stroke-width:0.1524; stroke-opacity:1; 
stroke-linecap:round; stroke-linejoin:round;">
<path d="M9.6012 14.6812
L9.6012 17.2212
" />
</g>
<g style="fill:none; 
stroke:#006464; stroke-width:0.1524; stroke-opacity:1; 
stroke-linecap:round; stroke-linejoin:round;">
<g transform="rotate(-90.000000 9.6012 13.6652)">
<text x="9.6012" y="14.1605"
textLength="2.9950" font-size="1.3208" lengthAdjust="spacingAndGlyphs"
text-anchor="start" opacity="0" stroke-opacity="0">VSS</text>
</g>
<g class="stroked-text"><desc>VSS</desc>
<path d="M9.0608 13.4706
L10.0514 13.1404
" />
<path d="M10.0514 13.1404
L9.0608 12.8102
" />
<path d="M10.0043 12.5272
L10.0514 12.3857
" />
<path d="M10.0514 12.3857
L10.0514 12.1498
" />
<path d="M10.0514 12.1498
L10.0043 12.0555
" />
<path d="M10.0043 12.0555
L9.9571 12.0083
" />
<path d="M9.9571 12.0083
L9.8627 11.9611
" />
<path d="M9.8627 11.9611
L9.7684 11.9611
" />
<path d="M9.7684 11.9611
L9.6741 12.0083
" />
<path d="M9.6741 12.0083
L9.6269 12.0555
" />
<path d="M9.6269 12.0555
L9.5797 12.1498
" />
<path d="M9.5797 12.1498
L9.5325 12.3385
" />
<path d="M9.5325 12.3385
L9.4854 12.4328
" />
<path d="M9.4854 12.4328
L9.4382 12.4800
" />
<path d="M9.4382 12.4800
L9.3439 12.5272
" />
<path d="M9.3439 12.5272
L9.2495 12.5272
" />
<path d="M9.2495 12.5272
L9.1552 12.4800
" />
<path d="M9.1552 12.4800
L9.1080 12.4328
" />
<path d="M9.1080 12.4328
L9.0608 12.3385
" />
<path d="M9.0608 12.3385
L9.0608 12.1026
" />
<path d="M9.0608 12.1026
L9.1080 11.9611
" />
<path d="M10.0043 11.5838
L10.0514 11.4423
" />
<path d="M10.0514 11.4423
L10.0514 11.2064
" />
<path d="M10.0514 11.2064
L10.0043 11.1121
" />
<path d="M10.0043 11.1121
L9.9571 11.0649
" />
<path d="M9.9571 11.0649
L9.8627 11.0177
" />
<path d="M9.8627 11.0177
L9.7684 11.0177
" />
<path d="M9.7684 11.0177
L9.6741 11.0649
" />
<path d="M9.6741 11.0649
L9.6269 11.1121
" />
<path d="M9.6269 11.1121
L9.5797 11.2064
" />
<path d="M9.5797 11.2064
L9.5325 11.3951
" />
<path d="M9.5325 11.3951
L9.4854 11.4894
" />
<path d="M9.4854 11.4894
L9.4382 11.5366
" />
<path d="M9.4382 11.5366
L9.3439 11.5838
" />
<path d="M9.3439 11.5838
L9.2495 11.5838
" />
<path d="M9.2495 11.5838
L9.1552 11.5366
" />
<path d="M9.1552 11.5366
L9.1080 11.4894
" />
<path d="M9.1080 11.4894
L9.0608 11.3951
" />
<path d="M9.0608 11.3951
L9.0608 11.1592
" />
<path d="M9.0608 11.1592
L9.1080 11.0177
" />
</g></g>
<g style="fill:none; 
stroke:#A90000; stroke-width:0.1524; stroke-opacity:1; 
stroke-linecap:round; stroke-linejoin:round;">
<g transform="rotate(-90.000000 9.3472 15.9512)">
<text x="9.3472" y="15.9512"
textLength="1.4127" font-size="1.6933" lengthAdjust="spacingAndGlyphs"
text-anchor="middle" opacity="0" stroke-opacity="0">3</text>
</g>
<g class="stroked-text"><desc>3</desc>
<path d="M7.9137 16.3744
L7.9137 15.5882
" />
<path d="M7.9137 15.5882
L8.3975 16.0116
" />
<path d="M8.3975 16.0116
L8.3975 15.8301
" />
<path d="M8.3975 15.8301
L8.4580 15.7092
" />
<path d="M8.4580 15.7092
L8.5185 15.6487
" />
<path d="M8.5185 15.6487
L8.6394 15.5882
" />
<path d="M8.6394 15.5882
L8.9418 15.5882
" />
<path d="M8.9418 15.5882
L9.0628 15.6487
" />
<path d="M9.0628 15.6487
L9.1233 15.7092
" />
<path d="M9.1233 15.7092
L9.1837 15.8301
" />
<path d="M9.1837 15.8301
L9.1837 16.1930
" />
<path d="M9.1837 16.1930
L9.1233 16.3139
" />
<path d="M9.1233 16.3139
L9.0628 16.3744
" />
</g></g>
<g style="fill:none; 
stroke:#840000; stroke-width:0.1524; stroke-opacity:1; 
stroke-linecap:round; stroke-linejoin:round;">
<path d="M14.6812 9.6012
L17.2212 9.6012
" />
</g>
<g style="fill:none; 
stroke:#006464; stroke-width:0.1524; stroke-opacity:1; 
stroke-linecap:round; stroke-linejoin:round;">
<text x="13.6652" y="10.0965"
textLength="4.0800" font-size="1.3208" lengthAdjust="spacingAndGlyphs"
text-anchor="end" opacity="0" stroke-opacity="0">DOUT</text>
<g class="stroked-text"><desc>DOUT</desc>
<path d="M9.9799 10.0514
L9.9799 9.0608
" />
<path d="M9.9799 9.0608
L10.2158 9.0608
" />
<path d="M10.2158 9.0608
L10.3573 9.1080
" />
<path d="M10.3573 9.1080
L10.4516 9.2023
" />
<path d="M10.4516 9.2023
L10.4988 9.2967
" />
<path d="M10.4988 9.2967
L10.5460 9.4854
" />
<path d="M10.5460 9.4854
L10.5460 9.6269
" />
<path d="M10.5460 9.6269
L10.4988 9.8156
" />
<path d="M10.4988 9.8156
L10.4516 9.9099
" />
<path d="M10.4516 9.9099
L10.3573 10.0043
" />
<path d="M10.3573 10.0043
L10.2158 10.0514
" />
<path d="M10.2158 10.0514
L9.9799 10.0514
" />
<path d="M11.1592 9.0608
L11.3479 9.0608
" />
<path d="M11.3479 9.0608
L11.4422 9.1080
" />
<path d="M11.4422 9.1080
L11.5366 9.2023
" />
<path d="M11.5366 9.2023
L11.5837 9.3910
" />
<path d="M11.5837 9.3910
L11.5837 9.7212
" />
<path d="M11.5837 9.7212
L11.5366 9.9099
" />
<path d="M11.5366 9.9099
L11.4422 10.0043
" />
<path d="M11.4422 10.0043
L11.3479 10.0514
" />
<path d="M11.3479 10.0514
L11.1592 10.0514
" />
<path d="M11.1592 10.0514
L11.0649 10.0043
" />
<path d="M11.0649 10.0043
L10.9705 9.9099
" />
<path d="M10.9705 9.9099
L10.9233 9.7212
" />
<path d="M10.9233 9.7212
L10.9233 9.3910
" />
<path d="M10.9233 9.3910
L10.9705 9.2023
" />
<path d="M10.9705 9.2023
L11.0649 9.1080
" />
<path d="M11.0649 9.1080
L11.1592 9.0608
" />
<path d="M12.0083 9.0608
L12.0083 9.8627
" />
<path d="M12.0083 9.8627
L12.0555 9.9571
" />
<path d="M12.0555 9.9571
L12.1027 10.0043
" />
<path d="M12.1027 10.0043
L12.1970 10.0514
" />
<path d="M12.1970 10.0514
L12.3857 10.0514
" />
<path d="M12.3857 10.0514
L12.4800 10.0043
" />
<path d="M12.4800 10.0043
L12.5272 9.9571
" />
<path d="M12.5272 9.9571
L12.5744 9.8627
" />
<path d="M12.5744 9.8627
L12.5744 9.0608
" />
<path d="M12.9046 9.0608
L13.4707 9.0608
" />
<path d="M13.1876 10.0514
L13.1876 9.0608
" />
</g></g>
<g style="fill:none; 
stroke:#A90000; stroke-width:0.1524; stroke-opacity:1; 
stroke-linecap:round; stroke-linejoin:round;">
<text x="15.9512" y="9.3472"
textLength="1.4127" font-size="1.6933" lengthAdjust="spacingAndGlyphs"
text-anchor="middle" opacity="0" stroke-opacity="0">2</text>
<g class="stroked-text"><desc>2</desc>
<path d="M15.5884 8.0347
L15.6488 7.9742
" />
<path d="M15.6488 7.9742
L15.7698 7.9137
" />
<path d="M15.7698 7.9137
L16.0722 7.9137
" />
<path d="M16.0722 7.9137
L16.1931 7.9742
" />
<path d="M16.1931 7.9742
L16.2536 8.0347
" />
<path d="M16.2536 8.0347
L16.3141 8.1556
" />
<path d="M16.3141 8.1556
L16.3141 8.2766
" />
<path d="M16.3141 8.2766
L16.2536 8.4580
" />
<path d="M16.2536 8.4580
L15.5279 9.1837
" />
<path d="M15.5279 9.1837
L16.3141 9.1837
" />
</g></g>
<g style="fill:none; 
stroke:#006464; stroke-width:0.1524; stroke-opacity:1; 
stroke-linecap:round; stroke-linejoin:round;">
<text x="4.5720" y="-5.7277"
textLength="1.6779" font-size="0.9821" lengthAdjust="spacingAndGlyphs"
text-anchor="middle" opacity="0" stroke-opacity="0">D?</text>
<g class="stroked-text"><desc>D?</desc>
<path d="M4.0633 -5.7632
L4.0633 -6.4998
" />
<path d="M4.0633 -6.4998
L4.2387 -6.4998
" />
<path d="M4.2387 -6.4998
L4.3439 -6.4647
" />
<path d="M4.3439 -6.4647
L4.4141 -6.3945
" />
<path d="M4.4141 -6.3945
L4.4492 -6.3244
" />
<path d="M4.4492 -6.3244
L4.4842 -6.1841
" />
<path d="M4.4842 -6.1841
L4.4842 -6.0789
" />
<path d="M4.4842 -6.0789
L4.4492 -5.9386
" />
<path d="M4.4492 -5.9386
L4.4141 -5.8684
" />
<path d="M4.4141 -5.8684
L4.3439 -5.7983
" />
<path d="M4.3439 -5.7983
L4.2387 -5.7632
" />
<path d="M4.2387 -5.7632
L4.0633 -5.7632
" />
<path d="M4.9052 -5.8333
L4.9402 -5.7983
" />
<path d="M4.9402 -5.7983
L4.9052 -5.7632
" />
<path d="M4.9052 -5.7632
L4.8701 -5.7983
" />
<path d="M4.8701 -5.7983
L4.9052 -5.8333
" />
<path d="M4.9052 -5.8333
L4.9052 -5.7632
" />
<path d="M4.7649 -6.4647
L4.8350 -6.4998
" />
<path d="M4.8350 -6.4998
L5.0104 -6.4998
" />
<path d="M5.0104 -6.4998
L5.0805 -6.4647
" />
<path d="M5.0805 -6.4647
L5.1156 -6.3945
" />
<path d="M5.1156 -6.3945
L5.1156 -6.3244
" />
<path d="M5.1156 -6.3244
L5.0805 -6.2542
" />
<path d="M5.0805 -6.2542
L5.0455 -6.2192
" />
<path d="M5.0455 -6.2192
L4.9753 -6.1841
" />
<path d="M4.9753 -6.1841
L4.9402 -6.1490
" />
<path d="M4.9402 -6.1490
L4.9052 -6.0789
" />
<path d="M4.9052 -6.0789
L4.9052 -6.0438
" />
</g></g> 
</svg>
