<?xml version="1.0" standalone="no"?>
 <!DOCTYPE svg PUBLIC "-//W3C//DTD SVG 1.1//EN" 
 "http://www.w3.org/Graphics/SVG/1.1/DTD/svg11.dtd"> 
<svg
  xmlns:svg="http://www.w3.org/2000/svg"
  xmlns="http://www.w3.org/2000/svg"
  xmlns:xlink="http://www.w3.org/1999/xlink"
  version="1.1"
  width="4.9022mm" height="6.2484mm" viewBox="0.0000 0.0000 4.9022 6.2484">
<title>SVG Image created as GND_unit1.svg date 2025/08/14 19:40:30 </title>
  <desc>Image generated by Eeschema-SVG </desc>
<g style="fill:#000000; fill-opacity:1.0000;stroke:#000000; stroke-opacity:1.0000;
stroke-linecap:round; stroke-linejoin:round;"
 transform="translate(0 0) scale(1 1)">
<path style="fill:none; 
stroke:#840000; stroke-width:0.1524; stroke-opacity:1; 
stroke-linecap:round; stroke-linejoin:round;fill:none"
d="M 2.4511,0.8989
2.4511,2.1689
3.7211,2.1689
2.4511,3.4389
1.1811,2.1689
2.4511,2.1689
" /> 
</g>
<g style="fill:none; 
stroke:#840000; stroke-width:0.1524; stroke-opacity:1; 
stroke-linecap:round; stroke-linejoin:round;">
<path d="M2.4511 0.8989
L2.4511 0.8989
" />
</g>
<g style="fill:none; 
stroke:#006464; stroke-width:0.1524; stroke-opacity:1; 
stroke-linecap:round; stroke-linejoin:round;">
<text x="0.0000" y="2.2197"
textLength="4.0737" font-size="1.6933" lengthAdjust="spacingAndGlyphs"
text-anchor="middle" opacity="0" stroke-opacity="0">GND</text>
<g class="stroked-text"><desc>GND</desc>
<path d="M-0.9675 0.9547
L-1.0885 0.8942
" />
<path d="M-1.0885 0.8942
L-1.2699 0.8942
" />
<path d="M-1.2699 0.8942
L-1.4513 0.9547
" />
<path d="M-1.4513 0.9547
L-1.5723 1.0757
" />
<path d="M-1.5723 1.0757
L-1.6328 1.1966
" />
<path d="M-1.6328 1.1966
L-1.6932 1.4385
" />
<path d="M-1.6932 1.4385
L-1.6932 1.6199
" />
<path d="M-1.6932 1.6199
L-1.6328 1.8618
" />
<path d="M-1.6328 1.8618
L-1.5723 1.9828
" />
<path d="M-1.5723 1.9828
L-1.4513 2.1038
" />
<path d="M-1.4513 2.1038
L-1.2699 2.1642
" />
<path d="M-1.2699 2.1642
L-1.1490 2.1642
" />
<path d="M-1.1490 2.1642
L-0.9675 2.1038
" />
<path d="M-0.9675 2.1038
L-0.9071 2.0433
" />
<path d="M-0.9071 2.0433
L-0.9071 1.6199
" />
<path d="M-0.9071 1.6199
L-1.1490 1.6199
" />
<path d="M-0.3628 2.1642
L-0.3628 0.8942
" />
<path d="M-0.3628 0.8942
L0.3628 2.1642
" />
<path d="M0.3628 2.1642
L0.3628 0.8942
" />
<path d="M0.9676 2.1642
L0.9676 0.8942
" />
<path d="M0.9676 0.8942
L1.2700 0.8942
" />
<path d="M1.2700 0.8942
L1.4514 0.9547
" />
<path d="M1.4514 0.9547
L1.5724 1.0757
" />
<path d="M1.5724 1.0757
L1.6329 1.1966
" />
<path d="M1.6329 1.1966
L1.6933 1.4385
" />
<path d="M1.6933 1.4385
L1.6933 1.6199
" />
<path d="M1.6933 1.6199
L1.6329 1.8618
" />
<path d="M1.6329 1.8618
L1.5724 1.9828
" />
<path d="M1.5724 1.9828
L1.4514 2.1038
" />
<path d="M1.4514 2.1038
L1.2700 2.1642
" />
<path d="M1.2700 2.1642
L0.9676 2.1642
" />
</g></g> 
</svg>
