<?xml version="1.0" standalone="no"?>
 <!DOCTYPE svg PUBLIC "-//W3C//DTD SVG 1.1//EN" 
 "http://www.w3.org/Graphics/SVG/1.1/DTD/svg11.dtd"> 
<svg
  xmlns:svg="http://www.w3.org/2000/svg"
  xmlns="http://www.w3.org/2000/svg"
  xmlns:xlink="http://www.w3.org/1999/xlink"
  version="1.1"
  width="31.3944mm" height="19.6088mm" viewBox="0.0000 0.0000 31.3944 19.6088">
<title>SVG Image created as IC_SMF05CT1G_unit1.svg date 2025/08/14 19:40:30 </title>
  <desc>Image generated by Eeschema-SVG </desc>
<g style="fill:#000000; fill-opacity:1.0000;stroke:#000000; stroke-opacity:1.0000;
stroke-linecap:round; stroke-linejoin:round;"
 transform="translate(0 0) scale(1 1)">
<path style="fill:#FFFFC2; fill-opacity:1.0000; stroke:none;fill-rule:evenodd;"
d="M 8.0772,7.7371
23.3172,7.7371
23.3172,17.8971
8.0772,17.8971
Z" /> 
<path style="fill:none; 
stroke:#840000; stroke-width:0.1524; stroke-opacity:1; 
stroke-linecap:round; stroke-linejoin:round;fill:none"
d="M 8.0772,7.7371
23.3172,7.7371
23.3172,17.8971
8.0772,17.8971
Z" /> 
</g>
<g style="fill:none; 
stroke:#840000; stroke-width:0.1524; stroke-opacity:1; 
stroke-linecap:round; stroke-linejoin:round;">
<path d="M8.0772 10.2771
L2.9972 10.2771
" />
</g>
<g style="fill:none; 
stroke:#006464; stroke-width:0.1524; stroke-opacity:1; 
stroke-linecap:round; stroke-linejoin:round;">
<text x="8.8392" y="10.9121"
textLength="3.6503" font-size="1.6933" lengthAdjust="spacingAndGlyphs"
text-anchor="start" opacity="0" stroke-opacity="0">K_1</text>
<g class="stroked-text"><desc>K_1</desc>
<path d="M9.2417 10.8566
L9.2417 9.5866
" />
<path d="M9.9674 10.8566
L9.4232 10.1309
" />
<path d="M9.9674 9.5866
L9.2417 10.3123
" />
<path d="M10.2094 10.9776
L11.1770 10.9776
" />
<path d="M12.1446 10.8566
L11.4189 10.8566
" />
<path d="M11.7817 10.8566
L11.7817 9.5866
" />
<path d="M11.7817 9.5866
L11.6608 9.7681
" />
<path d="M11.6608 9.7681
L11.5398 9.8890
" />
<path d="M11.5398 9.8890
L11.4189 9.9495
" />
</g></g>
<g style="fill:none; 
stroke:#A90000; stroke-width:0.1524; stroke-opacity:1; 
stroke-linecap:round; stroke-linejoin:round;">
<text x="5.5372" y="10.0231"
textLength="1.4127" font-size="1.6933" lengthAdjust="spacingAndGlyphs"
text-anchor="middle" opacity="0" stroke-opacity="0">1</text>
<g class="stroked-text"><desc>1</desc>
<path d="M5.9001 9.8596
L5.1744 9.8596
" />
<path d="M5.5372 9.8596
L5.5372 8.5896
" />
<path d="M5.5372 8.5896
L5.4163 8.7711
" />
<path d="M5.4163 8.7711
L5.2953 8.8920
" />
<path d="M5.2953 8.8920
L5.1744 8.9525
" />
</g></g>
<g style="fill:none; 
stroke:#840000; stroke-width:0.1524; stroke-opacity:1; 
stroke-linecap:round; stroke-linejoin:round;">
<path d="M8.0772 12.8171
L2.9972 12.8171
" />
</g>
<g style="fill:none; 
stroke:#006464; stroke-width:0.1524; stroke-opacity:1; 
stroke-linecap:round; stroke-linejoin:round;">
<text x="8.8392" y="13.4521"
textLength="1.2918" font-size="1.6933" lengthAdjust="spacingAndGlyphs"
text-anchor="start" opacity="0" stroke-opacity="0">A</text>
<g class="stroked-text"><desc>A</desc>
<path d="M9.1813 13.0338
L9.7860 13.0338
" />
<path d="M9.0603 13.3966
L9.4836 12.1266
" />
<path d="M9.4836 12.1266
L9.9070 13.3966
" />
</g></g>
<g style="fill:none; 
stroke:#A90000; stroke-width:0.1524; stroke-opacity:1; 
stroke-linecap:round; stroke-linejoin:round;">
<text x="5.5372" y="12.5631"
textLength="1.4127" font-size="1.6933" lengthAdjust="spacingAndGlyphs"
text-anchor="middle" opacity="0" stroke-opacity="0">2</text>
<g class="stroked-text"><desc>2</desc>
<path d="M5.1744 11.2506
L5.2348 11.1901
" />
<path d="M5.2348 11.1901
L5.3558 11.1296
" />
<path d="M5.3558 11.1296
L5.6582 11.1296
" />
<path d="M5.6582 11.1296
L5.7791 11.1901
" />
<path d="M5.7791 11.1901
L5.8396 11.2506
" />
<path d="M5.8396 11.2506
L5.9001 11.3715
" />
<path d="M5.9001 11.3715
L5.9001 11.4925
" />
<path d="M5.9001 11.4925
L5.8396 11.6739
" />
<path d="M5.8396 11.6739
L5.1139 12.3996
" />
<path d="M5.1139 12.3996
L5.9001 12.3996
" />
</g></g>
<g style="fill:none; 
stroke:#840000; stroke-width:0.1524; stroke-opacity:1; 
stroke-linecap:round; stroke-linejoin:round;">
<path d="M8.0772 15.3571
L2.9972 15.3571
" />
</g>
<g style="fill:none; 
stroke:#006464; stroke-width:0.1524; stroke-opacity:1; 
stroke-linecap:round; stroke-linejoin:round;">
<text x="8.8392" y="15.9921"
textLength="3.6503" font-size="1.6933" lengthAdjust="spacingAndGlyphs"
text-anchor="start" opacity="0" stroke-opacity="0">K_2</text>
<g class="stroked-text"><desc>K_2</desc>
<path d="M9.2417 15.9366
L9.2417 14.6666
" />
<path d="M9.9674 15.9366
L9.4232 15.2109
" />
<path d="M9.9674 14.6666
L9.2417 15.3923
" />
<path d="M10.2094 16.0576
L11.1770 16.0576
" />
<path d="M11.4189 14.7876
L11.4793 14.7271
" />
<path d="M11.4793 14.7271
L11.6003 14.6666
" />
<path d="M11.6003 14.6666
L11.9027 14.6666
" />
<path d="M11.9027 14.6666
L12.0236 14.7271
" />
<path d="M12.0236 14.7271
L12.0841 14.7876
" />
<path d="M12.0841 14.7876
L12.1446 14.9085
" />
<path d="M12.1446 14.9085
L12.1446 15.0295
" />
<path d="M12.1446 15.0295
L12.0841 15.2109
" />
<path d="M12.0841 15.2109
L11.3584 15.9366
" />
<path d="M11.3584 15.9366
L12.1446 15.9366
" />
</g></g>
<g style="fill:none; 
stroke:#A90000; stroke-width:0.1524; stroke-opacity:1; 
stroke-linecap:round; stroke-linejoin:round;">
<text x="5.5372" y="15.1031"
textLength="1.4127" font-size="1.6933" lengthAdjust="spacingAndGlyphs"
text-anchor="middle" opacity="0" stroke-opacity="0">3</text>
<g class="stroked-text"><desc>3</desc>
<path d="M5.1139 13.6696
L5.9001 13.6696
" />
<path d="M5.9001 13.6696
L5.4767 14.1534
" />
<path d="M5.4767 14.1534
L5.6582 14.1534
" />
<path d="M5.6582 14.1534
L5.7791 14.2139
" />
<path d="M5.7791 14.2139
L5.8396 14.2744
" />
<path d="M5.8396 14.2744
L5.9001 14.3953
" />
<path d="M5.9001 14.3953
L5.9001 14.6977
" />
<path d="M5.9001 14.6977
L5.8396 14.8187
" />
<path d="M5.8396 14.8187
L5.7791 14.8792
" />
<path d="M5.7791 14.8792
L5.6582 14.9396
" />
<path d="M5.6582 14.9396
L5.2953 14.9396
" />
<path d="M5.2953 14.9396
L5.1744 14.8792
" />
<path d="M5.1744 14.8792
L5.1139 14.8187
" />
</g></g>
<g style="fill:none; 
stroke:#840000; stroke-width:0.1524; stroke-opacity:1; 
stroke-linecap:round; stroke-linejoin:round;">
<path d="M23.3172 10.2771
L28.3972 10.2771
" />
</g>
<g style="fill:none; 
stroke:#006464; stroke-width:0.1524; stroke-opacity:1; 
stroke-linecap:round; stroke-linejoin:round;">
<text x="22.5552" y="10.9121"
textLength="3.6503" font-size="1.6933" lengthAdjust="spacingAndGlyphs"
text-anchor="end" opacity="0" stroke-opacity="0">K_5</text>
<g class="stroked-text"><desc>K_5</desc>
<path d="M19.3102 10.8566
L19.3102 9.5866
" />
<path d="M20.0359 10.8566
L19.4917 10.1309
" />
<path d="M20.0359 9.5866
L19.3102 10.3123
" />
<path d="M20.2779 10.9776
L21.2455 10.9776
" />
<path d="M22.1526 9.5866
L21.5478 9.5866
" />
<path d="M21.5478 9.5866
L21.4874 10.1914
" />
<path d="M21.4874 10.1914
L21.5478 10.1309
" />
<path d="M21.5478 10.1309
L21.6688 10.0704
" />
<path d="M21.6688 10.0704
L21.9712 10.0704
" />
<path d="M21.9712 10.0704
L22.0921 10.1309
" />
<path d="M22.0921 10.1309
L22.1526 10.1914
" />
<path d="M22.1526 10.1914
L22.2131 10.3123
" />
<path d="M22.2131 10.3123
L22.2131 10.6147
" />
<path d="M22.2131 10.6147
L22.1526 10.7357
" />
<path d="M22.1526 10.7357
L22.0921 10.7962
" />
<path d="M22.0921 10.7962
L21.9712 10.8566
" />
<path d="M21.9712 10.8566
L21.6688 10.8566
" />
<path d="M21.6688 10.8566
L21.5478 10.7962
" />
<path d="M21.5478 10.7962
L21.4874 10.7357
" />
</g></g>
<g style="fill:none; 
stroke:#A90000; stroke-width:0.1524; stroke-opacity:1; 
stroke-linecap:round; stroke-linejoin:round;">
<text x="25.8572" y="10.0231"
textLength="1.4127" font-size="1.6933" lengthAdjust="spacingAndGlyphs"
text-anchor="middle" opacity="0" stroke-opacity="0">6</text>
<g class="stroked-text"><desc>6</desc>
<path d="M26.0991 8.5896
L25.8572 8.5896
" />
<path d="M25.8572 8.5896
L25.7363 8.6501
" />
<path d="M25.7363 8.6501
L25.6758 8.7106
" />
<path d="M25.6758 8.7106
L25.5548 8.8920
" />
<path d="M25.5548 8.8920
L25.4944 9.1339
" />
<path d="M25.4944 9.1339
L25.4944 9.6177
" />
<path d="M25.4944 9.6177
L25.5548 9.7387
" />
<path d="M25.5548 9.7387
L25.6153 9.7992
" />
<path d="M25.6153 9.7992
L25.7363 9.8596
" />
<path d="M25.7363 9.8596
L25.9782 9.8596
" />
<path d="M25.9782 9.8596
L26.0991 9.7992
" />
<path d="M26.0991 9.7992
L26.1596 9.7387
" />
<path d="M26.1596 9.7387
L26.2201 9.6177
" />
<path d="M26.2201 9.6177
L26.2201 9.3153
" />
<path d="M26.2201 9.3153
L26.1596 9.1944
" />
<path d="M26.1596 9.1944
L26.0991 9.1339
" />
<path d="M26.0991 9.1339
L25.9782 9.0734
" />
<path d="M25.9782 9.0734
L25.7363 9.0734
" />
<path d="M25.7363 9.0734
L25.6153 9.1339
" />
<path d="M25.6153 9.1339
L25.5548 9.1944
" />
<path d="M25.5548 9.1944
L25.4944 9.3153
" />
</g></g>
<g style="fill:none; 
stroke:#840000; stroke-width:0.1524; stroke-opacity:1; 
stroke-linecap:round; stroke-linejoin:round;">
<path d="M23.3172 12.8171
L28.3972 12.8171
" />
</g>
<g style="fill:none; 
stroke:#006464; stroke-width:0.1524; stroke-opacity:1; 
stroke-linecap:round; stroke-linejoin:round;">
<text x="22.5552" y="13.4521"
textLength="3.6503" font-size="1.6933" lengthAdjust="spacingAndGlyphs"
text-anchor="end" opacity="0" stroke-opacity="0">K_4</text>
<g class="stroked-text"><desc>K_4</desc>
<path d="M19.3102 13.3966
L19.3102 12.1266
" />
<path d="M20.0359 13.3966
L19.4917 12.6709
" />
<path d="M20.0359 12.1266
L19.3102 12.8523
" />
<path d="M20.2779 13.5176
L21.2455 13.5176
" />
<path d="M22.0921 12.5500
L22.0921 13.3966
" />
<path d="M21.7897 12.0662
L21.4874 12.9733
" />
<path d="M21.4874 12.9733
L22.2735 12.9733
" />
</g></g>
<g style="fill:none; 
stroke:#A90000; stroke-width:0.1524; stroke-opacity:1; 
stroke-linecap:round; stroke-linejoin:round;">
<text x="25.8572" y="12.5631"
textLength="1.4127" font-size="1.6933" lengthAdjust="spacingAndGlyphs"
text-anchor="middle" opacity="0" stroke-opacity="0">5</text>
<g class="stroked-text"><desc>5</desc>
<path d="M26.1596 11.1296
L25.5548 11.1296
" />
<path d="M25.5548 11.1296
L25.4944 11.7344
" />
<path d="M25.4944 11.7344
L25.5548 11.6739
" />
<path d="M25.5548 11.6739
L25.6758 11.6134
" />
<path d="M25.6758 11.6134
L25.9782 11.6134
" />
<path d="M25.9782 11.6134
L26.0991 11.6739
" />
<path d="M26.0991 11.6739
L26.1596 11.7344
" />
<path d="M26.1596 11.7344
L26.2201 11.8553
" />
<path d="M26.2201 11.8553
L26.2201 12.1577
" />
<path d="M26.2201 12.1577
L26.1596 12.2787
" />
<path d="M26.1596 12.2787
L26.0991 12.3392
" />
<path d="M26.0991 12.3392
L25.9782 12.3996
" />
<path d="M25.9782 12.3996
L25.6758 12.3996
" />
<path d="M25.6758 12.3996
L25.5548 12.3392
" />
<path d="M25.5548 12.3392
L25.4944 12.2787
" />
</g></g>
<g style="fill:none; 
stroke:#840000; stroke-width:0.1524; stroke-opacity:1; 
stroke-linecap:round; stroke-linejoin:round;">
<path d="M23.3172 15.3571
L28.3972 15.3571
" />
</g>
<g style="fill:none; 
stroke:#006464; stroke-width:0.1524; stroke-opacity:1; 
stroke-linecap:round; stroke-linejoin:round;">
<text x="22.5552" y="15.9921"
textLength="3.6503" font-size="1.6933" lengthAdjust="spacingAndGlyphs"
text-anchor="end" opacity="0" stroke-opacity="0">K_3</text>
<g class="stroked-text"><desc>K_3</desc>
<path d="M19.3102 15.9366
L19.3102 14.6666
" />
<path d="M20.0359 15.9366
L19.4917 15.2109
" />
<path d="M20.0359 14.6666
L19.3102 15.3923
" />
<path d="M20.2779 16.0576
L21.2455 16.0576
" />
<path d="M21.4269 14.6666
L22.2131 14.6666
" />
<path d="M22.2131 14.6666
L21.7897 15.1504
" />
<path d="M21.7897 15.1504
L21.9712 15.1504
" />
<path d="M21.9712 15.1504
L22.0921 15.2109
" />
<path d="M22.0921 15.2109
L22.1526 15.2714
" />
<path d="M22.1526 15.2714
L22.2131 15.3923
" />
<path d="M22.2131 15.3923
L22.2131 15.6947
" />
<path d="M22.2131 15.6947
L22.1526 15.8157
" />
<path d="M22.1526 15.8157
L22.0921 15.8762
" />
<path d="M22.0921 15.8762
L21.9712 15.9366
" />
<path d="M21.9712 15.9366
L21.6083 15.9366
" />
<path d="M21.6083 15.9366
L21.4874 15.8762
" />
<path d="M21.4874 15.8762
L21.4269 15.8157
" />
</g></g>
<g style="fill:none; 
stroke:#A90000; stroke-width:0.1524; stroke-opacity:1; 
stroke-linecap:round; stroke-linejoin:round;">
<text x="25.8572" y="15.1031"
textLength="1.4127" font-size="1.6933" lengthAdjust="spacingAndGlyphs"
text-anchor="middle" opacity="0" stroke-opacity="0">4</text>
<g class="stroked-text"><desc>4</desc>
<path d="M26.0991 14.0930
L26.0991 14.9396
" />
<path d="M25.7967 13.6092
L25.4944 14.5163
" />
<path d="M25.4944 14.5163
L26.2805 14.5163
" />
</g></g>
<g style="fill:none; 
stroke:#006464; stroke-width:0.1524; stroke-opacity:1; 
stroke-linecap:round; stroke-linejoin:round;">
<text x="8.8900" y="-6.5123"
textLength="3.1666" font-size="1.6933" lengthAdjust="spacingAndGlyphs"
text-anchor="start" opacity="0" stroke-opacity="0">IC?</text>
<g class="stroked-text"><desc>IC?</desc>
<path d="M9.2925 -6.5677
L9.2925 -7.8377
" />
<path d="M10.6230 -6.6886
L10.5626 -6.6282
" />
<path d="M10.5626 -6.6282
L10.3811 -6.5677
" />
<path d="M10.3811 -6.5677
L10.2602 -6.5677
" />
<path d="M10.2602 -6.5677
L10.0788 -6.6282
" />
<path d="M10.0788 -6.6282
L9.9578 -6.7491
" />
<path d="M9.9578 -6.7491
L9.8973 -6.8701
" />
<path d="M9.8973 -6.8701
L9.8369 -7.1120
" />
<path d="M9.8369 -7.1120
L9.8369 -7.2934
" />
<path d="M9.8369 -7.2934
L9.8973 -7.5353
" />
<path d="M9.8973 -7.5353
L9.9578 -7.6562
" />
<path d="M9.9578 -7.6562
L10.0788 -7.7772
" />
<path d="M10.0788 -7.7772
L10.2602 -7.8377
" />
<path d="M10.2602 -7.8377
L10.3811 -7.8377
" />
<path d="M10.3811 -7.8377
L10.5626 -7.7772
" />
<path d="M10.5626 -7.7772
L10.6230 -7.7167
" />
<path d="M11.3488 -6.6886
L11.4092 -6.6282
" />
<path d="M11.4092 -6.6282
L11.3488 -6.5677
" />
<path d="M11.3488 -6.5677
L11.2883 -6.6282
" />
<path d="M11.2883 -6.6282
L11.3488 -6.6886
" />
<path d="M11.3488 -6.6886
L11.3488 -6.5677
" />
<path d="M11.1069 -7.7772
L11.2278 -7.8377
" />
<path d="M11.2278 -7.8377
L11.5302 -7.8377
" />
<path d="M11.5302 -7.8377
L11.6511 -7.7772
" />
<path d="M11.6511 -7.7772
L11.7116 -7.6562
" />
<path d="M11.7116 -7.6562
L11.7116 -7.5353
" />
<path d="M11.7116 -7.5353
L11.6511 -7.4143
" />
<path d="M11.6511 -7.4143
L11.5907 -7.3539
" />
<path d="M11.5907 -7.3539
L11.4697 -7.2934
" />
<path d="M11.4697 -7.2934
L11.4092 -7.2329
" />
<path d="M11.4092 -7.2329
L11.3488 -7.1120
" />
<path d="M11.3488 -7.1120
L11.3488 -7.0515
" />
</g></g> 
</svg>
