<?xml version="1.0" standalone="no"?>
 <!DOCTYPE svg PUBLIC "-//W3C//DTD SVG 1.1//EN" 
 "http://www.w3.org/Graphics/SVG/1.1/DTD/svg11.dtd"> 
<svg
  xmlns:svg="http://www.w3.org/2000/svg"
  xmlns="http://www.w3.org/2000/svg"
  xmlns:xlink="http://www.w3.org/1999/xlink"
  version="1.1"
  width="11.3030mm" height="12.8778mm" viewBox="0.0000 0.0000 11.3030 12.8778">
<title>SVG Image created as J_MJ-4PP-9_unit1.svg date 2025/08/14 19:40:30 </title>
  <desc>Image generated by Eeschema-SVG </desc>
<g style="fill:#000000; fill-opacity:1.0000;stroke:#000000; stroke-opacity:1.0000;
stroke-linecap:round; stroke-linejoin:round;"
 transform="translate(0 0) scale(1 1)">
<path style="fill:none; 
stroke:#840000; stroke-width:0.1524; stroke-opacity:1; 
stroke-linecap:round; stroke-linejoin:round;fill:none"
d="M 2.3622,7.8387
2.3622,7.2037
8.0772,7.2037
" /> 
</g>
<g style="fill:none; 
stroke:#840000; stroke-width:0.1524; stroke-opacity:1; 
stroke-linecap:round; stroke-linejoin:round;">
<rect x="1.727200" y="7.838700" width="1.270000" height="3.175000" rx="0.000000" />
<path style="fill:none; 
stroke:#840000; stroke-width:0.1524; stroke-opacity:1; 
stroke-linecap:round; stroke-linejoin:round;fill:none"
d="M 3.6322,11.0137
4.2672,10.3787
4.9022,11.0137
8.0772,11.0137
" /> 
<path style="fill:none; 
stroke:#840000; stroke-width:0.1524; stroke-opacity:1; 
stroke-linecap:round; stroke-linejoin:round;fill:none"
d="M 4.9022,9.7437
5.5372,9.1087
6.1722,9.7437
8.0772,9.7437
" /> 
<path style="fill:none; 
stroke:#840000; stroke-width:0.1524; stroke-opacity:1; 
stroke-linecap:round; stroke-linejoin:round;fill:none"
d="M 6.1722,8.4737
6.8072,7.8387
7.4422,8.4737
8.0772,8.4737
" /> 
</g>
<g style="fill:none; 
stroke:#840000; stroke-width:0.3048; stroke-opacity:1; 
stroke-linecap:round; stroke-linejoin:round;">
<rect x="1.092200" y="6.568700" width="6.985000" height="5.080000" rx="0.000000" />
</g>
<g style="fill:none; 
stroke:#840000; stroke-width:0.1524; stroke-opacity:1; 
stroke-linecap:round; stroke-linejoin:round;">
<path d="M7.9756 7.2037
L9.9822 7.2037
" />
</g>
<g style="fill:none; 
stroke:#A90000; stroke-width:0.1524; stroke-opacity:1; 
stroke-linecap:round; stroke-linejoin:round;">
<text x="8.9789" y="6.9497"
textLength="0.8569" font-size="0.9482" lengthAdjust="spacingAndGlyphs"
text-anchor="middle" opacity="0" stroke-opacity="0">T</text>
<g class="stroked-text"><desc>T</desc>
<path d="M8.7757 6.1434
L9.1821 6.1434
" />
<path d="M8.9789 6.8546
L8.9789 6.1434
" />
</g></g>
<g style="fill:none; 
stroke:#840000; stroke-width:0.1524; stroke-opacity:1; 
stroke-linecap:round; stroke-linejoin:round;">
<path d="M7.9756 8.4737
L9.9822 8.4737
" />
</g>
<g style="fill:none; 
stroke:#A90000; stroke-width:0.1524; stroke-opacity:1; 
stroke-linecap:round; stroke-linejoin:round;">
<text x="8.9789" y="8.2197"
textLength="0.9923" font-size="0.9482" lengthAdjust="spacingAndGlyphs"
text-anchor="middle" opacity="0" stroke-opacity="0">S</text>
<g class="stroked-text"><desc>S</desc>
<path d="M8.7757 8.0908
L8.8773 8.1246
" />
<path d="M8.8773 8.1246
L9.0467 8.1246
" />
<path d="M9.0467 8.1246
L9.1144 8.0908
" />
<path d="M9.1144 8.0908
L9.1483 8.0569
" />
<path d="M9.1483 8.0569
L9.1821 7.9892
" />
<path d="M9.1821 7.9892
L9.1821 7.9214
" />
<path d="M9.1821 7.9214
L9.1483 7.8537
" />
<path d="M9.1483 7.8537
L9.1144 7.8198
" />
<path d="M9.1144 7.8198
L9.0467 7.7860
" />
<path d="M9.0467 7.7860
L8.9112 7.7521
" />
<path d="M8.9112 7.7521
L8.8435 7.7182
" />
<path d="M8.8435 7.7182
L8.8096 7.6844
" />
<path d="M8.8096 7.6844
L8.7757 7.6166
" />
<path d="M8.7757 7.6166
L8.7757 7.5489
" />
<path d="M8.7757 7.5489
L8.8096 7.4812
" />
<path d="M8.8096 7.4812
L8.8435 7.4473
" />
<path d="M8.8435 7.4473
L8.9112 7.4134
" />
<path d="M8.9112 7.4134
L9.0805 7.4134
" />
<path d="M9.0805 7.4134
L9.1821 7.4473
" />
</g></g>
<g style="fill:none; 
stroke:#840000; stroke-width:0.1524; stroke-opacity:1; 
stroke-linecap:round; stroke-linejoin:round;">
<path d="M7.9756 9.7437
L9.9822 9.7437
" />
</g>
<g style="fill:none; 
stroke:#A90000; stroke-width:0.1524; stroke-opacity:1; 
stroke-linecap:round; stroke-linejoin:round;">
<text x="8.9789" y="9.4897"
textLength="1.7035" font-size="0.9482" lengthAdjust="spacingAndGlyphs"
text-anchor="middle" opacity="0" stroke-opacity="0">R2</text>
<g class="stroked-text"><desc>R2</desc>
<path d="M8.8604 9.3946
L8.6233 9.0560
" />
<path d="M8.4540 9.3946
L8.4540 8.6834
" />
<path d="M8.4540 8.6834
L8.7249 8.6834
" />
<path d="M8.7249 8.6834
L8.7927 8.7173
" />
<path d="M8.7927 8.7173
L8.8265 8.7512
" />
<path d="M8.8265 8.7512
L8.8604 8.8189
" />
<path d="M8.8604 8.8189
L8.8604 8.9205
" />
<path d="M8.8604 8.9205
L8.8265 8.9882
" />
<path d="M8.8265 8.9882
L8.7927 9.0221
" />
<path d="M8.7927 9.0221
L8.7249 9.0560
" />
<path d="M8.7249 9.0560
L8.4540 9.0560
" />
<path d="M9.1313 8.7512
L9.1652 8.7173
" />
<path d="M9.1652 8.7173
L9.2329 8.6834
" />
<path d="M9.2329 8.6834
L9.4023 8.6834
" />
<path d="M9.4023 8.6834
L9.4700 8.7173
" />
<path d="M9.4700 8.7173
L9.5039 8.7512
" />
<path d="M9.5039 8.7512
L9.5377 8.8189
" />
<path d="M9.5377 8.8189
L9.5377 8.8866
" />
<path d="M9.5377 8.8866
L9.5039 8.9882
" />
<path d="M9.5039 8.9882
L9.0975 9.3946
" />
<path d="M9.0975 9.3946
L9.5377 9.3946
" />
</g></g>
<g style="fill:none; 
stroke:#840000; stroke-width:0.1524; stroke-opacity:1; 
stroke-linecap:round; stroke-linejoin:round;">
<path d="M7.9756 11.0137
L9.9822 11.0137
" />
</g>
<g style="fill:none; 
stroke:#A90000; stroke-width:0.1524; stroke-opacity:1; 
stroke-linecap:round; stroke-linejoin:round;">
<text x="8.9789" y="10.7597"
textLength="1.7035" font-size="0.9482" lengthAdjust="spacingAndGlyphs"
text-anchor="middle" opacity="0" stroke-opacity="0">R1</text>
<g class="stroked-text"><desc>R1</desc>
<path d="M8.8604 10.6646
L8.6233 10.3260
" />
<path d="M8.4540 10.6646
L8.4540 9.9534
" />
<path d="M8.4540 9.9534
L8.7249 9.9534
" />
<path d="M8.7249 9.9534
L8.7927 9.9873
" />
<path d="M8.7927 9.9873
L8.8265 10.0212
" />
<path d="M8.8265 10.0212
L8.8604 10.0889
" />
<path d="M8.8604 10.0889
L8.8604 10.1905
" />
<path d="M8.8604 10.1905
L8.8265 10.2582
" />
<path d="M8.8265 10.2582
L8.7927 10.2921
" />
<path d="M8.7927 10.2921
L8.7249 10.3260
" />
<path d="M8.7249 10.3260
L8.4540 10.3260
" />
<path d="M9.5377 10.6646
L9.1313 10.6646
" />
<path d="M9.3345 10.6646
L9.3345 9.9534
" />
<path d="M9.3345 9.9534
L9.2668 10.0550
" />
<path d="M9.2668 10.0550
L9.1991 10.1228
" />
<path d="M9.1991 10.1228
L9.1313 10.1566
" />
</g></g>
<g style="fill:none; 
stroke:#006464; stroke-width:0.1524; stroke-opacity:1; 
stroke-linecap:round; stroke-linejoin:round;">
<text x="0.0381" y="-3.7056"
textLength="2.2594" font-size="1.6933" lengthAdjust="spacingAndGlyphs"
text-anchor="middle" opacity="0" stroke-opacity="0">J?</text>
<g class="stroked-text"><desc>J?</desc>
<path d="M-0.3248 -5.0310
L-0.3248 -4.1238
" />
<path d="M-0.3248 -4.1238
L-0.3853 -3.9424
" />
<path d="M-0.3853 -3.9424
L-0.5062 -3.8215
" />
<path d="M-0.5062 -3.8215
L-0.6877 -3.7610
" />
<path d="M-0.6877 -3.7610
L-0.8085 -3.7610
" />
<path d="M0.4614 -3.8819
L0.5218 -3.8215
" />
<path d="M0.5218 -3.8215
L0.4614 -3.7610
" />
<path d="M0.4614 -3.7610
L0.4009 -3.8215
" />
<path d="M0.4009 -3.8215
L0.4614 -3.8819
" />
<path d="M0.4614 -3.8819
L0.4614 -3.7610
" />
<path d="M0.2195 -4.9705
L0.3404 -5.0310
" />
<path d="M0.3404 -5.0310
L0.6428 -5.0310
" />
<path d="M0.6428 -5.0310
L0.7637 -4.9705
" />
<path d="M0.7637 -4.9705
L0.8242 -4.8495
" />
<path d="M0.8242 -4.8495
L0.8242 -4.7286
" />
<path d="M0.8242 -4.7286
L0.7637 -4.6076
" />
<path d="M0.7637 -4.6076
L0.7033 -4.5472
" />
<path d="M0.7033 -4.5472
L0.5823 -4.4867
" />
<path d="M0.5823 -4.4867
L0.5218 -4.4262
" />
<path d="M0.5218 -4.4262
L0.4614 -4.3053
" />
<path d="M0.4614 -4.3053
L0.4614 -4.2448
" />
</g></g> 
</svg>
