<?xml version="1.0" standalone="no"?>
 <!DOCTYPE svg PUBLIC "-//W3C//DTD SVG 1.1//EN" 
 "http://www.w3.org/Graphics/SVG/1.1/DTD/svg11.dtd"> 
<svg
  xmlns:svg="http://www.w3.org/2000/svg"
  xmlns="http://www.w3.org/2000/svg"
  xmlns:xlink="http://www.w3.org/1999/xlink"
  version="1.1"
  width="11.5824mm" height="6.2484mm" viewBox="0.0000 0.0000 11.5824 6.2484">
<title>SVG Image created as PWR_FLAG_unit1.svg date 2025/08/14 19:40:30 </title>
  <desc>Image generated by Eeschema-SVG </desc>
<g style="fill:#000000; fill-opacity:1.0000;stroke:#000000; stroke-opacity:1.0000;
stroke-linecap:round; stroke-linejoin:round;"
 transform="translate(0 0) scale(1 1)">
<path style="fill:none; 
stroke:#840000; stroke-width:0.1524; stroke-opacity:1; 
stroke-linecap:round; stroke-linejoin:round;fill:none"
d="M 5.7912,5.3495
5.7912,4.0795
4.7752,3.4445
5.7912,2.8095
6.8072,3.4445
5.7912,4.0795
" /> 
</g>
<g style="fill:none; 
stroke:#840000; stroke-width:0.1524; stroke-opacity:1; 
stroke-linecap:round; stroke-linejoin:round;">
<path d="M5.7912 5.3495
L5.7912 5.3495
" />
</g>
<g style="fill:none; 
stroke:#006464; stroke-width:0.1524; stroke-opacity:1; 
stroke-linecap:round; stroke-linejoin:round;">
<text x="0.0000" y="-0.9497"
textLength="9.6375" font-size="1.6933" lengthAdjust="spacingAndGlyphs"
text-anchor="middle" opacity="0" stroke-opacity="0">PWR_FLAG</text>
<g class="stroked-text"><desc>PWR_FLAG</desc>
<path d="M-4.4147 -1.0051
L-4.4147 -2.2751
" />
<path d="M-4.4147 -2.2751
L-3.9309 -2.2751
" />
<path d="M-3.9309 -2.2751
L-3.8099 -2.2146
" />
<path d="M-3.8099 -2.2146
L-3.7494 -2.1541
" />
<path d="M-3.7494 -2.1541
L-3.6890 -2.0332
" />
<path d="M-3.6890 -2.0332
L-3.6890 -1.8517
" />
<path d="M-3.6890 -1.8517
L-3.7494 -1.7308
" />
<path d="M-3.7494 -1.7308
L-3.8099 -1.6703
" />
<path d="M-3.8099 -1.6703
L-3.9309 -1.6098
" />
<path d="M-3.9309 -1.6098
L-4.4147 -1.6098
" />
<path d="M-3.2656 -2.2751
L-2.9632 -1.0051
" />
<path d="M-2.9632 -1.0051
L-2.7213 -1.9122
" />
<path d="M-2.7213 -1.9122
L-2.4794 -1.0051
" />
<path d="M-2.4794 -1.0051
L-2.1771 -2.2751
" />
<path d="M-0.9676 -1.0051
L-1.3909 -1.6098
" />
<path d="M-1.6933 -1.0051
L-1.6933 -2.2751
" />
<path d="M-1.6933 -2.2751
L-1.2095 -2.2751
" />
<path d="M-1.2095 -2.2751
L-1.0885 -2.2146
" />
<path d="M-1.0885 -2.2146
L-1.0280 -2.1541
" />
<path d="M-1.0280 -2.1541
L-0.9676 -2.0332
" />
<path d="M-0.9676 -2.0332
L-0.9676 -1.8517
" />
<path d="M-0.9676 -1.8517
L-1.0280 -1.7308
" />
<path d="M-1.0280 -1.7308
L-1.0885 -1.6703
" />
<path d="M-1.0885 -1.6703
L-1.2095 -1.6098
" />
<path d="M-1.2095 -1.6098
L-1.6933 -1.6098
" />
<path d="M-0.7257 -0.8841
L0.2419 -0.8841
" />
<path d="M0.9676 -1.6703
L0.5442 -1.6703
" />
<path d="M0.5442 -1.0051
L0.5442 -2.2751
" />
<path d="M0.5442 -2.2751
L1.1490 -2.2751
" />
<path d="M2.2376 -1.0051
L1.6328 -1.0051
" />
<path d="M1.6328 -1.0051
L1.6328 -2.2751
" />
<path d="M2.6005 -1.3679
L3.2052 -1.3679
" />
<path d="M2.4795 -1.0051
L2.9028 -2.2751
" />
<path d="M2.9028 -2.2751
L3.3262 -1.0051
" />
<path d="M4.4148 -2.2146
L4.2938 -2.2751
" />
<path d="M4.2938 -2.2751
L4.1124 -2.2751
" />
<path d="M4.1124 -2.2751
L3.9310 -2.2146
" />
<path d="M3.9310 -2.2146
L3.8100 -2.0936
" />
<path d="M3.8100 -2.0936
L3.7495 -1.9727
" />
<path d="M3.7495 -1.9727
L3.6891 -1.7308
" />
<path d="M3.6891 -1.7308
L3.6891 -1.5494
" />
<path d="M3.6891 -1.5494
L3.7495 -1.3075
" />
<path d="M3.7495 -1.3075
L3.8100 -1.1865
" />
<path d="M3.8100 -1.1865
L3.9310 -1.0656
" />
<path d="M3.9310 -1.0656
L4.1124 -1.0051
" />
<path d="M4.1124 -1.0051
L4.2333 -1.0051
" />
<path d="M4.2333 -1.0051
L4.4148 -1.0656
" />
<path d="M4.4148 -1.0656
L4.4752 -1.1260
" />
<path d="M4.4752 -1.1260
L4.4752 -1.5494
" />
<path d="M4.4752 -1.5494
L4.2333 -1.5494
" />
</g></g> 
</svg>
