<?xml version="1.0" standalone="no"?>
 <!DOCTYPE svg PUBLIC "-//W3C//DTD SVG 1.1//EN" 
 "http://www.w3.org/Graphics/SVG/1.1/DTD/svg11.dtd"> 
<svg
  xmlns:svg="http://www.w3.org/2000/svg"
  xmlns="http://www.w3.org/2000/svg"
  xmlns:xlink="http://www.w3.org/1999/xlink"
  version="1.1"
  width="3.7338mm" height="7.0104mm" viewBox="0.0000 0.0000 3.7338 7.0104">
<title>SVG Image created as R_Generic_unit1.svg date 2025/08/14 19:40:30 </title>
  <desc>Image generated by Eeschema-SVG </desc>
<g style="fill:#000000; fill-opacity:1.0000;stroke:#000000; stroke-opacity:1.0000;
stroke-linecap:round; stroke-linejoin:round;"
 transform="translate(0 0) scale(1 1)">
</g>
<g style="fill:none; 
stroke:#840000; stroke-width:0.2032; stroke-opacity:1; 
stroke-linecap:round; stroke-linejoin:round;">
<rect x="0.409500" y="1.727200" width="1.524000" height="3.556000" rx="0.000000" />
</g>
<g style="fill:none; 
stroke:#840000; stroke-width:0.1524; stroke-opacity:1; 
stroke-linecap:round; stroke-linejoin:round;">
<path d="M1.1715 1.7272
L1.1715 0.9652
" />
<path d="M1.1715 5.2832
L1.1715 6.0452
" />
</g>
<g style="fill:none; 
stroke:#006464; stroke-width:0.1524; stroke-opacity:1; 
stroke-linecap:round; stroke-linejoin:round;">
<text x="0.0666" y="0.1270"
textLength="2.5618" font-size="1.6933" lengthAdjust="spacingAndGlyphs"
text-anchor="start" opacity="0" stroke-opacity="0">R?</text>
<g class="stroked-text"><desc>R?</desc>
<path d="M1.1948 0.0715
L0.7715 -0.5331
" />
<path d="M0.4691 0.0715
L0.4691 -1.1984
" />
<path d="M0.4691 -1.1984
L0.9529 -1.1984
" />
<path d="M0.9529 -1.1984
L1.0739 -1.1379
" />
<path d="M1.0739 -1.1379
L1.1344 -1.0774
" />
<path d="M1.1344 -1.0774
L1.1948 -0.9565
" />
<path d="M1.1948 -0.9565
L1.1948 -0.7750
" />
<path d="M1.1948 -0.7750
L1.1344 -0.6541
" />
<path d="M1.1344 -0.6541
L1.0739 -0.5936
" />
<path d="M1.0739 -0.5936
L0.9529 -0.5331
" />
<path d="M0.9529 -0.5331
L0.4691 -0.5331
" />
<path d="M1.9206 -0.0493
L1.9810 0.0111
" />
<path d="M1.9810 0.0111
L1.9206 0.0715
" />
<path d="M1.9206 0.0715
L1.8601 0.0111
" />
<path d="M1.8601 0.0111
L1.9206 -0.0493
" />
<path d="M1.9206 -0.0493
L1.9206 0.0715
" />
<path d="M1.6787 -1.1379
L1.7996 -1.1984
" />
<path d="M1.7996 -1.1984
L2.1020 -1.1984
" />
<path d="M2.1020 -1.1984
L2.2229 -1.1379
" />
<path d="M2.2229 -1.1379
L2.2834 -1.0169
" />
<path d="M2.2834 -1.0169
L2.2834 -0.8960
" />
<path d="M2.2834 -0.8960
L2.2229 -0.7750
" />
<path d="M2.2229 -0.7750
L2.1625 -0.7146
" />
<path d="M2.1625 -0.7146
L2.0415 -0.6541
" />
<path d="M2.0415 -0.6541
L1.9810 -0.5936
" />
<path d="M1.9810 -0.5936
L1.9206 -0.4727
" />
<path d="M1.9206 -0.4727
L1.9206 -0.4122
" />
</g></g> 
</svg>
