<?xml version="1.0" standalone="no"?>
 <!DOCTYPE svg PUBLIC "-//W3C//DTD SVG 1.1//EN" 
 "http://www.w3.org/Graphics/SVG/1.1/DTD/svg11.dtd"> 
<svg
  xmlns:svg="http://www.w3.org/2000/svg"
  xmlns="http://www.w3.org/2000/svg"
  xmlns:xlink="http://www.w3.org/1999/xlink"
  version="1.1"
  width="19.2024mm" height="15.3924mm" viewBox="0.0000 0.0000 19.2024 15.3924">
<title>SVG Image created as SW_Encoder_EC11_unit1.svg date 2025/08/14 19:40:30 </title>
  <desc>Image generated by Eeschema-SVG </desc>
<g style="fill:#000000; fill-opacity:1.0000;stroke:#000000; stroke-opacity:1.0000;
stroke-linecap:round; stroke-linejoin:round;"
 transform="translate(0 0) scale(1 1)">
</g>
<g style="fill:#FFFFC2; fill-opacity:1.0000; stroke:none;">
<rect x="4.521200" y="3.825500" width="10.160000" height="10.160000" rx="0.000000" />
</g>
<g style="fill:none; 
stroke:#840000; stroke-width:0.2540; stroke-opacity:1; 
stroke-linecap:round; stroke-linejoin:round;">
<rect x="4.521200" y="3.825500" width="10.160000" height="10.160000" rx="0.000000" />
<path style="fill:none; 
stroke:#840000; stroke-width:0.1524; stroke-opacity:1; 
stroke-linecap:round; stroke-linejoin:round;fill:none"
d="M 4.5212,6.3655
5.7912,6.3655
5.7912,6.8735
" /> 
<path style="fill:none; 
stroke:#840000; stroke-width:0.1524; stroke-opacity:1; 
stroke-linecap:round; stroke-linejoin:round;fill:none"
d="M 4.5212,8.9055
5.7912,8.9055
5.7912,9.9215
6.2992,10.9375
" /> 
<path style="fill:none; 
stroke:#840000; stroke-width:0.1524; stroke-opacity:1; 
stroke-linecap:round; stroke-linejoin:round;fill:none"
d="M 4.5212,11.4455
5.7912,11.4455
5.7912,10.9375
" /> 
<path style="fill:none; 
stroke:#840000; stroke-width:0.1524; stroke-opacity:1; 
stroke-linecap:round; stroke-linejoin:round;fill:none"
d="M 5.2832,8.9055
5.7912,8.9055
5.7912,7.8895
6.2992,6.8735
" /> 
</g>
<g style="fill:#840000; fill-opacity:1.0000; 
stroke:#840000; stroke-width:0.1524; stroke-opacity:1; 
stroke-linecap:round; stroke-linejoin:round;">
<circle cx="5.7912" cy="8.9055" r="0.2540" /> 
<path style="fill:none; 
stroke:#840000; stroke-width:0.2540; stroke-opacity:1; 
stroke-linecap:round; stroke-linejoin:round;fill:none"
d="M 8.9662,10.6835
8.9662,7.1275
" /> 
</g>
<g style="fill:none; 
stroke:#840000; stroke-width:0.2540; stroke-opacity:1; 
stroke-linecap:round; stroke-linejoin:round;">
<path d="M9.2202 11.6994 A2.7305 2.7305 0.0 0 0 9.2202 6.2384" />
<circle cx="9.2202" cy="8.9055" r="1.9050" /> 
<path style="fill:none; 
stroke:#840000; stroke-width:0.2540; stroke-opacity:1; 
stroke-linecap:round; stroke-linejoin:round;fill:none"
d="M 9.2202,10.6835
9.2202,7.1275
" /> 
<path style="fill:none; 
stroke:#840000; stroke-width:0.2540; stroke-opacity:1; 
stroke-linecap:round; stroke-linejoin:round;fill:none"
d="M 9.4742,7.1275
9.4742,10.6835
" /> 
<path style="fill:none; 
stroke:#840000; stroke-width:0.2540; stroke-opacity:1; 
stroke-linecap:round; stroke-linejoin:round;fill:none"
d="M 9.8552,5.9845
9.0932,6.2385
9.7282,6.6195
" /> 
<path style="fill:none; 
stroke:#840000; stroke-width:0.2540; stroke-opacity:1; 
stroke-linecap:round; stroke-linejoin:round;fill:none"
d="M 9.8552,11.9535
9.0932,11.6995
9.7282,11.3185
" /> 
<path style="fill:none; 
stroke:#840000; stroke-width:0.2540; stroke-opacity:1; 
stroke-linecap:round; stroke-linejoin:round;fill:none"
d="M 13.4112,7.8895
13.4112,9.9215
" /> 
<path style="fill:none; 
stroke:#840000; stroke-width:0.2540; stroke-opacity:1; 
stroke-linecap:round; stroke-linejoin:round;fill:none"
d="M 13.4112,8.9055
13.0302,8.9055
" /> 
<circle cx="13.9192" cy="7.8895" r="0.1270" /> 
<circle cx="13.9192" cy="9.9215" r="0.1270" /> 
<path style="fill:none; 
stroke:#840000; stroke-width:0.2540; stroke-opacity:1; 
stroke-linecap:round; stroke-linejoin:round;fill:none"
d="M 14.6812,6.3655
13.9192,6.3655
13.9192,7.8895
" /> 
<path style="fill:none; 
stroke:#840000; stroke-width:0.2540; stroke-opacity:1; 
stroke-linecap:round; stroke-linejoin:round;fill:none"
d="M 14.6812,11.4455
13.9192,11.4455
13.9192,9.9215
" /> 
</g>
<g style="fill:none; 
stroke:#840000; stroke-width:0.1524; stroke-opacity:1; 
stroke-linecap:round; stroke-linejoin:round;">
<path d="M4.5212 6.3655
L1.9812 6.3655
" />
</g>
<g style="fill:none; 
stroke:#A90000; stroke-width:0.1524; stroke-opacity:1; 
stroke-linecap:round; stroke-linejoin:round;">
<text x="3.2512" y="6.1115"
textLength="1.2918" font-size="1.6933" lengthAdjust="spacingAndGlyphs"
text-anchor="middle" opacity="0" stroke-opacity="0">A</text>
<g class="stroked-text"><desc>A</desc>
<path d="M2.9488 5.5852
L3.5535 5.5852
" />
<path d="M2.8278 5.9480
L3.2511 4.6780
" />
<path d="M3.2511 4.6780
L3.6745 5.9480
" />
</g></g>
<g style="fill:none; 
stroke:#840000; stroke-width:0.1524; stroke-opacity:1; 
stroke-linecap:round; stroke-linejoin:round;">
<path d="M4.5212 8.9055
L1.9812 8.9055
" />
</g>
<g style="fill:none; 
stroke:#A90000; stroke-width:0.1524; stroke-opacity:1; 
stroke-linecap:round; stroke-linejoin:round;">
<text x="3.2512" y="8.6515"
textLength="1.4732" font-size="1.6933" lengthAdjust="spacingAndGlyphs"
text-anchor="middle" opacity="0" stroke-opacity="0">C</text>
<g class="stroked-text"><desc>C</desc>
<path d="M3.6442 8.3671
L3.5838 8.4276
" />
<path d="M3.5838 8.4276
L3.4023 8.4880
" />
<path d="M3.4023 8.4880
L3.2814 8.4880
" />
<path d="M3.2814 8.4880
L3.1000 8.4276
" />
<path d="M3.1000 8.4276
L2.9790 8.3066
" />
<path d="M2.9790 8.3066
L2.9185 8.1856
" />
<path d="M2.9185 8.1856
L2.8581 7.9437
" />
<path d="M2.8581 7.9437
L2.8581 7.7623
" />
<path d="M2.8581 7.7623
L2.9185 7.5204
" />
<path d="M2.9185 7.5204
L2.9790 7.3995
" />
<path d="M2.9790 7.3995
L3.1000 7.2785
" />
<path d="M3.1000 7.2785
L3.2814 7.2180
" />
<path d="M3.2814 7.2180
L3.4023 7.2180
" />
<path d="M3.4023 7.2180
L3.5838 7.2785
" />
<path d="M3.5838 7.2785
L3.6442 7.3390
" />
</g></g>
<g style="fill:none; 
stroke:#840000; stroke-width:0.1524; stroke-opacity:1; 
stroke-linecap:round; stroke-linejoin:round;">
<path d="M4.5212 11.4455
L1.9812 11.4455
" />
</g>
<g style="fill:none; 
stroke:#A90000; stroke-width:0.1524; stroke-opacity:1; 
stroke-linecap:round; stroke-linejoin:round;">
<text x="3.2512" y="11.1915"
textLength="1.4732" font-size="1.6933" lengthAdjust="spacingAndGlyphs"
text-anchor="middle" opacity="0" stroke-opacity="0">B</text>
<g class="stroked-text"><desc>B</desc>
<path d="M3.3419 10.3628
L3.5233 10.4233
" />
<path d="M3.5233 10.4233
L3.5838 10.4837
" />
<path d="M3.5838 10.4837
L3.6442 10.6047
" />
<path d="M3.6442 10.6047
L3.6442 10.7861
" />
<path d="M3.6442 10.7861
L3.5838 10.9071
" />
<path d="M3.5838 10.9071
L3.5233 10.9676
" />
<path d="M3.5233 10.9676
L3.4023 11.0280
" />
<path d="M3.4023 11.0280
L2.9185 11.0280
" />
<path d="M2.9185 11.0280
L2.9185 9.7580
" />
<path d="M2.9185 9.7580
L3.3419 9.7580
" />
<path d="M3.3419 9.7580
L3.4628 9.8185
" />
<path d="M3.4628 9.8185
L3.5233 9.8790
" />
<path d="M3.5233 9.8790
L3.5838 9.9999
" />
<path d="M3.5838 9.9999
L3.5838 10.1209
" />
<path d="M3.5838 10.1209
L3.5233 10.2418
" />
<path d="M3.5233 10.2418
L3.4628 10.3023
" />
<path d="M3.4628 10.3023
L3.3419 10.3628
" />
<path d="M3.3419 10.3628
L2.9185 10.3628
" />
</g></g>
<g style="fill:none; 
stroke:#840000; stroke-width:0.1524; stroke-opacity:1; 
stroke-linecap:round; stroke-linejoin:round;">
<path d="M14.6812 6.3655
L17.2212 6.3655
" />
</g>
<g style="fill:none; 
stroke:#A90000; stroke-width:0.1524; stroke-opacity:1; 
stroke-linecap:round; stroke-linejoin:round;">
<text x="15.9512" y="6.1115"
textLength="2.6222" font-size="1.6933" lengthAdjust="spacingAndGlyphs"
text-anchor="middle" opacity="0" stroke-opacity="0">S1</text>
<g class="stroked-text"><desc>S1</desc>
<path d="M14.9836 5.8876
L15.1650 5.9480
" />
<path d="M15.1650 5.9480
L15.4674 5.9480
" />
<path d="M15.4674 5.9480
L15.5883 5.8876
" />
<path d="M15.5883 5.8876
L15.6488 5.8271
" />
<path d="M15.6488 5.8271
L15.7093 5.7061
" />
<path d="M15.7093 5.7061
L15.7093 5.5852
" />
<path d="M15.7093 5.5852
L15.6488 5.4642
" />
<path d="M15.6488 5.4642
L15.5883 5.4037
" />
<path d="M15.5883 5.4037
L15.4674 5.3433
" />
<path d="M15.4674 5.3433
L15.2255 5.2828
" />
<path d="M15.2255 5.2828
L15.1045 5.2223
" />
<path d="M15.1045 5.2223
L15.0440 5.1618
" />
<path d="M15.0440 5.1618
L14.9836 5.0409
" />
<path d="M14.9836 5.0409
L14.9836 4.9199
" />
<path d="M14.9836 4.9199
L15.0440 4.7990
" />
<path d="M15.0440 4.7990
L15.1045 4.7385
" />
<path d="M15.1045 4.7385
L15.2255 4.6780
" />
<path d="M15.2255 4.6780
L15.5278 4.6780
" />
<path d="M15.5278 4.6780
L15.7093 4.7385
" />
<path d="M16.9188 5.9480
L16.1931 5.9480
" />
<path d="M16.5559 5.9480
L16.5559 4.6780
" />
<path d="M16.5559 4.6780
L16.4350 4.8595
" />
<path d="M16.4350 4.8595
L16.3140 4.9804
" />
<path d="M16.3140 4.9804
L16.1931 5.0409
" />
</g></g>
<g style="fill:none; 
stroke:#840000; stroke-width:0.1524; stroke-opacity:1; 
stroke-linecap:round; stroke-linejoin:round;">
<path d="M14.6812 11.4455
L17.2212 11.4455
" />
</g>
<g style="fill:none; 
stroke:#A90000; stroke-width:0.1524; stroke-opacity:1; 
stroke-linecap:round; stroke-linejoin:round;">
<text x="15.9512" y="11.1915"
textLength="2.6222" font-size="1.6933" lengthAdjust="spacingAndGlyphs"
text-anchor="middle" opacity="0" stroke-opacity="0">S2</text>
<g class="stroked-text"><desc>S2</desc>
<path d="M14.9836 10.9676
L15.1650 11.0280
" />
<path d="M15.1650 11.0280
L15.4674 11.0280
" />
<path d="M15.4674 11.0280
L15.5883 10.9676
" />
<path d="M15.5883 10.9676
L15.6488 10.9071
" />
<path d="M15.6488 10.9071
L15.7093 10.7861
" />
<path d="M15.7093 10.7861
L15.7093 10.6652
" />
<path d="M15.7093 10.6652
L15.6488 10.5442
" />
<path d="M15.6488 10.5442
L15.5883 10.4837
" />
<path d="M15.5883 10.4837
L15.4674 10.4233
" />
<path d="M15.4674 10.4233
L15.2255 10.3628
" />
<path d="M15.2255 10.3628
L15.1045 10.3023
" />
<path d="M15.1045 10.3023
L15.0440 10.2418
" />
<path d="M15.0440 10.2418
L14.9836 10.1209
" />
<path d="M14.9836 10.1209
L14.9836 9.9999
" />
<path d="M14.9836 9.9999
L15.0440 9.8790
" />
<path d="M15.0440 9.8790
L15.1045 9.8185
" />
<path d="M15.1045 9.8185
L15.2255 9.7580
" />
<path d="M15.2255 9.7580
L15.5278 9.7580
" />
<path d="M15.5278 9.7580
L15.7093 9.8185
" />
<path d="M16.1931 9.8790
L16.2535 9.8185
" />
<path d="M16.2535 9.8185
L16.3745 9.7580
" />
<path d="M16.3745 9.7580
L16.6769 9.7580
" />
<path d="M16.6769 9.7580
L16.7978 9.8185
" />
<path d="M16.7978 9.8185
L16.8583 9.8790
" />
<path d="M16.8583 9.8790
L16.9188 9.9999
" />
<path d="M16.9188 9.9999
L16.9188 10.1209
" />
<path d="M16.9188 10.1209
L16.8583 10.3023
" />
<path d="M16.8583 10.3023
L16.1326 11.0280
" />
<path d="M16.1326 11.0280
L16.9188 11.0280
" />
</g></g>
<g style="fill:none; 
stroke:#006464; stroke-width:0.1524; stroke-opacity:1; 
stroke-linecap:round; stroke-linejoin:round;">
<text x="0.0000" y="-4.7597"
textLength="3.9527" font-size="1.6933" lengthAdjust="spacingAndGlyphs"
text-anchor="middle" opacity="0" stroke-opacity="0">SW?</text>
<g class="stroked-text"><desc>SW?</desc>
<path d="M-1.6327 -4.8756
L-1.4513 -4.8151
" />
<path d="M-1.4513 -4.8151
L-1.1489 -4.8151
" />
<path d="M-1.1489 -4.8151
L-1.0280 -4.8756
" />
<path d="M-1.0280 -4.8756
L-0.9675 -4.9360
" />
<path d="M-0.9675 -4.9360
L-0.9070 -5.0570
" />
<path d="M-0.9070 -5.0570
L-0.9070 -5.1779
" />
<path d="M-0.9070 -5.1779
L-0.9675 -5.2989
" />
<path d="M-0.9675 -5.2989
L-1.0280 -5.3594
" />
<path d="M-1.0280 -5.3594
L-1.1489 -5.4198
" />
<path d="M-1.1489 -5.4198
L-1.3908 -5.4803
" />
<path d="M-1.3908 -5.4803
L-1.5118 -5.5408
" />
<path d="M-1.5118 -5.5408
L-1.5723 -5.6013
" />
<path d="M-1.5723 -5.6013
L-1.6327 -5.7222
" />
<path d="M-1.6327 -5.7222
L-1.6327 -5.8432
" />
<path d="M-1.6327 -5.8432
L-1.5723 -5.9641
" />
<path d="M-1.5723 -5.9641
L-1.5118 -6.0246
" />
<path d="M-1.5118 -6.0246
L-1.3908 -6.0851
" />
<path d="M-1.3908 -6.0851
L-1.0885 -6.0851
" />
<path d="M-1.0885 -6.0851
L-0.9070 -6.0246
" />
<path d="M-0.4837 -6.0851
L-0.1813 -4.8151
" />
<path d="M-0.1813 -4.8151
L0.0605 -5.7222
" />
<path d="M0.0605 -5.7222
L0.3024 -4.8151
" />
<path d="M0.3024 -4.8151
L0.6048 -6.0851
" />
<path d="M1.2700 -4.9360
L1.3304 -4.8756
" />
<path d="M1.3304 -4.8756
L1.2700 -4.8151
" />
<path d="M1.2700 -4.8151
L1.2095 -4.8756
" />
<path d="M1.2095 -4.8756
L1.2700 -4.9360
" />
<path d="M1.2700 -4.9360
L1.2700 -4.8151
" />
<path d="M1.0281 -6.0246
L1.1490 -6.0851
" />
<path d="M1.1490 -6.0851
L1.4514 -6.0851
" />
<path d="M1.4514 -6.0851
L1.5723 -6.0246
" />
<path d="M1.5723 -6.0246
L1.6328 -5.9036
" />
<path d="M1.6328 -5.9036
L1.6328 -5.7827
" />
<path d="M1.6328 -5.7827
L1.5723 -5.6617
" />
<path d="M1.5723 -5.6617
L1.5119 -5.6013
" />
<path d="M1.5119 -5.6013
L1.3909 -5.5408
" />
<path d="M1.3909 -5.5408
L1.3304 -5.4803
" />
<path d="M1.3304 -5.4803
L1.2700 -5.3594
" />
<path d="M1.2700 -5.3594
L1.2700 -5.2989
" />
</g></g> 
</svg>
