<?xml version="1.0" standalone="no"?>
 <!DOCTYPE svg PUBLIC "-//W3C//DTD SVG 1.1//EN" 
 "http://www.w3.org/Graphics/SVG/1.1/DTD/svg11.dtd"> 
<svg
  xmlns:svg="http://www.w3.org/2000/svg"
  xmlns="http://www.w3.org/2000/svg"
  xmlns:xlink="http://www.w3.org/1999/xlink"
  version="1.1"
  width="10.6172mm" height="7.0104mm" viewBox="0.0000 0.0000 10.6172 7.0104">
<title>SVG Image created as SW_Push_45deg_unit1.svg date 2025/08/14 19:40:30 </title>
  <desc>Image generated by Eeschema-SVG </desc>
<g style="fill:#000000; fill-opacity:1.0000;stroke:#000000; stroke-opacity:1.0000;
stroke-linecap:round; stroke-linejoin:round;"
 transform="translate(0 0) scale(1 1)">
<path style="fill:none; 
stroke:#840000; stroke-width:0.1524; stroke-opacity:1; 
stroke-linecap:round; stroke-linejoin:round;fill:none"
d="M 1.2635,0.9652
2.2795,1.9812
2.2795,1.9812
" /> 
</g>
<g style="fill:none; 
stroke:#840000; stroke-width:0.1524; stroke-opacity:1; 
stroke-linecap:round; stroke-linejoin:round;">
<circle cx="2.6351" cy="2.3368" r="0.5080" /> 
<path style="fill:none; 
stroke:#840000; stroke-width:0.1524; stroke-opacity:1; 
stroke-linecap:round; stroke-linejoin:round;fill:none"
d="M 3.2955,0.9652
6.3435,4.0132
" /> 
<path style="fill:none; 
stroke:#840000; stroke-width:0.1524; stroke-opacity:1; 
stroke-linecap:round; stroke-linejoin:round;fill:none"
d="M 4.8195,2.4892
5.8355,1.4732
" /> 
<circle cx="4.9465" cy="4.6990" r="0.5080" /> 
<path style="fill:none; 
stroke:#840000; stroke-width:0.1524; stroke-opacity:1; 
stroke-linecap:round; stroke-linejoin:round;fill:none"
d="M 5.3275,5.0292
6.3435,6.0452
6.3435,6.0452
6.3435,6.0452
" /> 
<path d="M1.2635 0.9652
L1.2635 0.9652
" />
<path d="M6.3435 6.0452
L6.3435 6.0452
" />
</g>
<g style="fill:none; 
stroke:#006464; stroke-width:0.1524; stroke-opacity:1; 
stroke-linecap:round; stroke-linejoin:round;">
<text x="1.5429" y="-0.3810"
textLength="3.9527" font-size="1.6933" lengthAdjust="spacingAndGlyphs"
text-anchor="start" opacity="0" stroke-opacity="0">SW?</text>
<g class="stroked-text"><desc>SW?</desc>
<path d="M1.8850 -0.4969
L2.0664 -0.4364
" />
<path d="M2.0664 -0.4364
L2.3688 -0.4364
" />
<path d="M2.3688 -0.4364
L2.4897 -0.4969
" />
<path d="M2.4897 -0.4969
L2.5502 -0.5573
" />
<path d="M2.5502 -0.5573
L2.6107 -0.6783
" />
<path d="M2.6107 -0.6783
L2.6107 -0.7992
" />
<path d="M2.6107 -0.7992
L2.5502 -0.9202
" />
<path d="M2.5502 -0.9202
L2.4897 -0.9807
" />
<path d="M2.4897 -0.9807
L2.3688 -1.0411
" />
<path d="M2.3688 -1.0411
L2.1269 -1.1016
" />
<path d="M2.1269 -1.1016
L2.0059 -1.1621
" />
<path d="M2.0059 -1.1621
L1.9454 -1.2226
" />
<path d="M1.9454 -1.2226
L1.8850 -1.3435
" />
<path d="M1.8850 -1.3435
L1.8850 -1.4645
" />
<path d="M1.8850 -1.4645
L1.9454 -1.5854
" />
<path d="M1.9454 -1.5854
L2.0059 -1.6459
" />
<path d="M2.0059 -1.6459
L2.1269 -1.7064
" />
<path d="M2.1269 -1.7064
L2.4292 -1.7064
" />
<path d="M2.4292 -1.7064
L2.6107 -1.6459
" />
<path d="M3.0340 -1.7064
L3.3364 -0.4364
" />
<path d="M3.3364 -0.4364
L3.5783 -1.3435
" />
<path d="M3.5783 -1.3435
L3.8202 -0.4364
" />
<path d="M3.8202 -0.4364
L4.1226 -1.7064
" />
<path d="M4.7878 -0.5573
L4.8482 -0.4969
" />
<path d="M4.8482 -0.4969
L4.7878 -0.4364
" />
<path d="M4.7878 -0.4364
L4.7273 -0.4969
" />
<path d="M4.7273 -0.4969
L4.7878 -0.5573
" />
<path d="M4.7878 -0.5573
L4.7878 -0.4364
" />
<path d="M4.5459 -1.6459
L4.6668 -1.7064
" />
<path d="M4.6668 -1.7064
L4.9692 -1.7064
" />
<path d="M4.9692 -1.7064
L5.0901 -1.6459
" />
<path d="M5.0901 -1.6459
L5.1506 -1.5249
" />
<path d="M5.1506 -1.5249
L5.1506 -1.4040
" />
<path d="M5.1506 -1.4040
L5.0901 -1.2830
" />
<path d="M5.0901 -1.2830
L5.0297 -1.2226
" />
<path d="M5.0297 -1.2226
L4.9087 -1.1621
" />
<path d="M4.9087 -1.1621
L4.8482 -1.1016
" />
<path d="M4.8482 -1.1016
L4.7878 -0.9807
" />
<path d="M4.7878 -0.9807
L4.7878 -0.9202
" />
</g></g> 
</svg>
