<?xml version="1.0" standalone="no"?>
 <!DOCTYPE svg PUBLIC "-//W3C//DTD SVG 1.1//EN" 
 "http://www.w3.org/Graphics/SVG/1.1/DTD/svg11.dtd"> 
<svg
  xmlns:svg="http://www.w3.org/2000/svg"
  xmlns="http://www.w3.org/2000/svg"
  xmlns:xlink="http://www.w3.org/1999/xlink"
  version="1.1"
  width="13.1064mm" height="4.8768mm" viewBox="0.0000 0.0000 13.1064 4.8768">
<title>SVG Image created as SW_Push_unit1.svg date 2025/08/14 19:40:30 </title>
  <desc>Image generated by Eeschema-SVG </desc>
<g style="fill:#000000; fill-opacity:1.0000;stroke:#000000; stroke-opacity:1.0000;
stroke-linecap:round; stroke-linejoin:round;"
 transform="translate(0 0) scale(1 1)">
</g>
<g style="fill:none; 
stroke:#840000; stroke-width:0.1524; stroke-opacity:1; 
stroke-linecap:round; stroke-linejoin:round;">
<circle cx="4.5212" cy="3.9652" r="0.5080" /> 
<path style="fill:none; 
stroke:#840000; stroke-width:0.1524; stroke-opacity:1; 
stroke-linecap:round; stroke-linejoin:round;fill:none"
d="M 6.5532,2.6952
6.5532,0.9172
" /> 
<circle cx="8.5852" cy="3.9652" r="0.5080" /> 
<path style="fill:none; 
stroke:#840000; stroke-width:0.1524; stroke-opacity:1; 
stroke-linecap:round; stroke-linejoin:round;fill:none"
d="M 9.0932,2.6952
4.0132,2.6952
" /> 
<path d="M4.0132 3.9652
L1.4732 3.9652
" />
<path d="M9.0932 3.9652
L11.6332 3.9652
" />
</g>
<g style="fill:none; 
stroke:#006464; stroke-width:0.1524; stroke-opacity:1; 
stroke-linecap:round; stroke-linejoin:round;">
<text x="1.2700" y="-0.3782"
textLength="3.9527" font-size="1.6933" lengthAdjust="spacingAndGlyphs"
text-anchor="start" opacity="0" stroke-opacity="0">SW?</text>
<g class="stroked-text"><desc>SW?</desc>
<path d="M1.6121 -0.4941
L1.7935 -0.4336
" />
<path d="M1.7935 -0.4336
L2.0959 -0.4336
" />
<path d="M2.0959 -0.4336
L2.2168 -0.4941
" />
<path d="M2.2168 -0.4941
L2.2773 -0.5545
" />
<path d="M2.2773 -0.5545
L2.3378 -0.6755
" />
<path d="M2.3378 -0.6755
L2.3378 -0.7964
" />
<path d="M2.3378 -0.7964
L2.2773 -0.9174
" />
<path d="M2.2773 -0.9174
L2.2168 -0.9779
" />
<path d="M2.2168 -0.9779
L2.0959 -1.0383
" />
<path d="M2.0959 -1.0383
L1.8540 -1.0988
" />
<path d="M1.8540 -1.0988
L1.7330 -1.1593
" />
<path d="M1.7330 -1.1593
L1.6725 -1.2198
" />
<path d="M1.6725 -1.2198
L1.6121 -1.3407
" />
<path d="M1.6121 -1.3407
L1.6121 -1.4617
" />
<path d="M1.6121 -1.4617
L1.6725 -1.5826
" />
<path d="M1.6725 -1.5826
L1.7330 -1.6431
" />
<path d="M1.7330 -1.6431
L1.8540 -1.7036
" />
<path d="M1.8540 -1.7036
L2.1563 -1.7036
" />
<path d="M2.1563 -1.7036
L2.3378 -1.6431
" />
<path d="M2.7611 -1.7036
L3.0635 -0.4336
" />
<path d="M3.0635 -0.4336
L3.3054 -1.3407
" />
<path d="M3.3054 -1.3407
L3.5473 -0.4336
" />
<path d="M3.5473 -0.4336
L3.8497 -1.7036
" />
<path d="M4.5149 -0.5545
L4.5753 -0.4941
" />
<path d="M4.5753 -0.4941
L4.5149 -0.4336
" />
<path d="M4.5149 -0.4336
L4.4544 -0.4941
" />
<path d="M4.4544 -0.4941
L4.5149 -0.5545
" />
<path d="M4.5149 -0.5545
L4.5149 -0.4336
" />
<path d="M4.2730 -1.6431
L4.3939 -1.7036
" />
<path d="M4.3939 -1.7036
L4.6963 -1.7036
" />
<path d="M4.6963 -1.7036
L4.8172 -1.6431
" />
<path d="M4.8172 -1.6431
L4.8777 -1.5221
" />
<path d="M4.8777 -1.5221
L4.8777 -1.4012
" />
<path d="M4.8777 -1.4012
L4.8172 -1.2802
" />
<path d="M4.8172 -1.2802
L4.7568 -1.2198
" />
<path d="M4.7568 -1.2198
L4.6358 -1.1593
" />
<path d="M4.6358 -1.1593
L4.5753 -1.0988
" />
<path d="M4.5753 -1.0988
L4.5149 -0.9779
" />
<path d="M4.5149 -0.9779
L4.5149 -0.9174
" />
</g></g> 
</svg>
