<?xml version="1.0" standalone="no"?>
 <!DOCTYPE svg PUBLIC "-//W3C//DTD SVG 1.1//EN" 
 "http://www.w3.org/Graphics/SVG/1.1/DTD/svg11.dtd"> 
<svg
  xmlns:svg="http://www.w3.org/2000/svg"
  xmlns="http://www.w3.org/2000/svg"
  xmlns:xlink="http://www.w3.org/1999/xlink"
  version="1.1"
  width="13.1064mm" height="11.8872mm" viewBox="0.0000 0.0000 13.1064 11.8872">
<title>SVG Image created as SW_SPDT_unit1.svg date 2025/08/14 19:40:30 </title>
  <desc>Image generated by Eeschema-SVG </desc>
<g style="fill:#000000; fill-opacity:1.0000;stroke:#000000; stroke-opacity:1.0000;
stroke-linecap:round; stroke-linejoin:round;"
 transform="translate(0 0) scale(1 1)">
</g>
<g style="fill:#FFFFC2; fill-opacity:1.0000; stroke:none;">
<rect x="3.378200" y="3.279400" width="6.350000" height="7.620000" rx="0.000000" />
</g>
<g style="fill:none; 
stroke:#840000; stroke-width:0.1524; stroke-opacity:1; 
stroke-linecap:round; stroke-linejoin:round;">
<circle cx="4.5212" cy="7.0894" r="0.4572" /> 
<path style="fill:none; 
stroke:#840000; stroke-width:0.1524; stroke-opacity:1; 
stroke-linecap:round; stroke-linejoin:round;fill:none"
d="M 4.9022,6.8354
8.2042,4.8034
" /> 
<circle cx="8.5852" cy="4.5494" r="0.4572" /> 
<circle cx="8.5852" cy="9.6294" r="0.4572" /> 
<rect x="3.378200" y="3.279400" width="6.350000" height="7.620000" rx="0.000000" />
<path d="M4.0132 7.0894
L1.4732 7.0894
" />
</g>
<g style="fill:none; 
stroke:#A90000; stroke-width:0.1524; stroke-opacity:1; 
stroke-linecap:round; stroke-linejoin:round;">
<text x="2.7432" y="6.8354"
textLength="1.4127" font-size="1.6933" lengthAdjust="spacingAndGlyphs"
text-anchor="middle" opacity="0" stroke-opacity="0">2</text>
<g class="stroked-text"><desc>2</desc>
<path d="M2.3804 5.5229
L2.4408 5.4624
" />
<path d="M2.4408 5.4624
L2.5618 5.4019
" />
<path d="M2.5618 5.4019
L2.8642 5.4019
" />
<path d="M2.8642 5.4019
L2.9851 5.4624
" />
<path d="M2.9851 5.4624
L3.0456 5.5229
" />
<path d="M3.0456 5.5229
L3.1061 5.6438
" />
<path d="M3.1061 5.6438
L3.1061 5.7648
" />
<path d="M3.1061 5.7648
L3.0456 5.9462
" />
<path d="M3.0456 5.9462
L2.3199 6.6719
" />
<path d="M2.3199 6.6719
L3.1061 6.6719
" />
</g></g>
<g style="fill:none; 
stroke:#840000; stroke-width:0.1524; stroke-opacity:1; 
stroke-linecap:round; stroke-linejoin:round;">
<path d="M9.0932 4.5494
L11.6332 4.5494
" />
</g>
<g style="fill:none; 
stroke:#A90000; stroke-width:0.1524; stroke-opacity:1; 
stroke-linecap:round; stroke-linejoin:round;">
<text x="10.3632" y="4.2954"
textLength="1.4127" font-size="1.6933" lengthAdjust="spacingAndGlyphs"
text-anchor="middle" opacity="0" stroke-opacity="0">1</text>
<g class="stroked-text"><desc>1</desc>
<path d="M10.7261 4.1319
L10.0004 4.1319
" />
<path d="M10.3632 4.1319
L10.3632 2.8619
" />
<path d="M10.3632 2.8619
L10.2423 3.0434
" />
<path d="M10.2423 3.0434
L10.1213 3.1643
" />
<path d="M10.1213 3.1643
L10.0004 3.2248
" />
</g></g>
<g style="fill:none; 
stroke:#840000; stroke-width:0.1524; stroke-opacity:1; 
stroke-linecap:round; stroke-linejoin:round;">
<path d="M9.0932 9.6294
L11.6332 9.6294
" />
</g>
<g style="fill:none; 
stroke:#A90000; stroke-width:0.1524; stroke-opacity:1; 
stroke-linecap:round; stroke-linejoin:round;">
<text x="10.3632" y="9.3754"
textLength="1.4127" font-size="1.6933" lengthAdjust="spacingAndGlyphs"
text-anchor="middle" opacity="0" stroke-opacity="0">3</text>
<g class="stroked-text"><desc>3</desc>
<path d="M9.9399 7.9419
L10.7261 7.9419
" />
<path d="M10.7261 7.9419
L10.3027 8.4257
" />
<path d="M10.3027 8.4257
L10.4842 8.4257
" />
<path d="M10.4842 8.4257
L10.6051 8.4862
" />
<path d="M10.6051 8.4862
L10.6656 8.5467
" />
<path d="M10.6656 8.5467
L10.7261 8.6676
" />
<path d="M10.7261 8.6676
L10.7261 8.9700
" />
<path d="M10.7261 8.9700
L10.6656 9.0910
" />
<path d="M10.6656 9.0910
L10.6051 9.1515
" />
<path d="M10.6051 9.1515
L10.4842 9.2119
" />
<path d="M10.4842 9.2119
L10.1213 9.2119
" />
<path d="M10.1213 9.2119
L10.0004 9.1515
" />
<path d="M10.0004 9.1515
L9.9399 9.0910
" />
</g></g>
<g style="fill:none; 
stroke:#006464; stroke-width:0.1524; stroke-opacity:1; 
stroke-linecap:round; stroke-linejoin:round;">
<text x="0.0000" y="-3.2992"
textLength="3.9527" font-size="1.6933" lengthAdjust="spacingAndGlyphs"
text-anchor="middle" opacity="0" stroke-opacity="0">SW?</text>
<g class="stroked-text"><desc>SW?</desc>
<path d="M-1.6327 -3.4151
L-1.4513 -3.3546
" />
<path d="M-1.4513 -3.3546
L-1.1489 -3.3546
" />
<path d="M-1.1489 -3.3546
L-1.0280 -3.4151
" />
<path d="M-1.0280 -3.4151
L-0.9675 -3.4755
" />
<path d="M-0.9675 -3.4755
L-0.9070 -3.5965
" />
<path d="M-0.9070 -3.5965
L-0.9070 -3.7174
" />
<path d="M-0.9070 -3.7174
L-0.9675 -3.8384
" />
<path d="M-0.9675 -3.8384
L-1.0280 -3.8989
" />
<path d="M-1.0280 -3.8989
L-1.1489 -3.9593
" />
<path d="M-1.1489 -3.9593
L-1.3908 -4.0198
" />
<path d="M-1.3908 -4.0198
L-1.5118 -4.0803
" />
<path d="M-1.5118 -4.0803
L-1.5723 -4.1408
" />
<path d="M-1.5723 -4.1408
L-1.6327 -4.2617
" />
<path d="M-1.6327 -4.2617
L-1.6327 -4.3827
" />
<path d="M-1.6327 -4.3827
L-1.5723 -4.5036
" />
<path d="M-1.5723 -4.5036
L-1.5118 -4.5641
" />
<path d="M-1.5118 -4.5641
L-1.3908 -4.6246
" />
<path d="M-1.3908 -4.6246
L-1.0885 -4.6246
" />
<path d="M-1.0885 -4.6246
L-0.9070 -4.5641
" />
<path d="M-0.4837 -4.6246
L-0.1813 -3.3546
" />
<path d="M-0.1813 -3.3546
L0.0605 -4.2617
" />
<path d="M0.0605 -4.2617
L0.3024 -3.3546
" />
<path d="M0.3024 -3.3546
L0.6048 -4.6246
" />
<path d="M1.2700 -3.4755
L1.3304 -3.4151
" />
<path d="M1.3304 -3.4151
L1.2700 -3.3546
" />
<path d="M1.2700 -3.3546
L1.2095 -3.4151
" />
<path d="M1.2095 -3.4151
L1.2700 -3.4755
" />
<path d="M1.2700 -3.4755
L1.2700 -3.3546
" />
<path d="M1.0281 -4.5641
L1.1490 -4.6246
" />
<path d="M1.1490 -4.6246
L1.4514 -4.6246
" />
<path d="M1.4514 -4.6246
L1.5723 -4.5641
" />
<path d="M1.5723 -4.5641
L1.6328 -4.4431
" />
<path d="M1.6328 -4.4431
L1.6328 -4.3222
" />
<path d="M1.6328 -4.3222
L1.5723 -4.2012
" />
<path d="M1.5723 -4.2012
L1.5119 -4.1408
" />
<path d="M1.5119 -4.1408
L1.3909 -4.0803
" />
<path d="M1.3909 -4.0803
L1.3304 -4.0198
" />
<path d="M1.3304 -4.0198
L1.2700 -3.8989
" />
<path d="M1.2700 -3.8989
L1.2700 -3.8384
" />
</g></g> 
</svg>
