<?xml version="1.0" standalone="no"?>
 <!DOCTYPE svg PUBLIC "-//W3C//DTD SVG 1.1//EN" 
 "http://www.w3.org/Graphics/SVG/1.1/DTD/svg11.dtd"> 
<svg
  xmlns:svg="http://www.w3.org/2000/svg"
  xmlns="http://www.w3.org/2000/svg"
  xmlns:xlink="http://www.w3.org/1999/xlink"
  version="1.1"
  width="43.5864mm" height="42.6212mm" viewBox="0.0000 0.0000 43.5864 42.6212">
<title>SVG Image created as U_ProMicro_nRF52840_unit1.svg date 2025/08/14 19:40:30 </title>
  <desc>Image generated by Eeschema-SVG </desc>
<g style="fill:#000000; fill-opacity:1.0000;stroke:#000000; stroke-opacity:1.0000;
stroke-linecap:round; stroke-linejoin:round;"
 transform="translate(0 0) scale(1 1)">
</g>
<g style="fill:#FFFFC2; fill-opacity:1.0000; stroke:none;">
<rect x="9.093200" y="6.048600" width="25.400000" height="33.020000" rx="0.000000" />
</g>
<g style="fill:none; 
stroke:#840000; stroke-width:0.1524; stroke-opacity:1; 
stroke-linecap:round; stroke-linejoin:round;">
<rect x="9.093200" y="6.048600" width="25.400000" height="33.020000" rx="0.000000" />
<path d="M9.0932 8.5886
L4.0132 8.5886
" />
</g>
<g style="fill:none; 
stroke:#006464; stroke-width:0.1524; stroke-opacity:1; 
stroke-linecap:round; stroke-linejoin:round;">
<text x="10.1092" y="9.2236"
textLength="7.3998" font-size="1.6933" lengthAdjust="spacingAndGlyphs"
text-anchor="start" opacity="0" stroke-opacity="0">TX0/D3</text>
<g class="stroked-text"><desc>TX0/D3</desc>
<path d="M10.3303 7.8981
L11.0560 7.8981
" />
<path d="M10.6932 9.1681
L10.6932 7.8981
" />
<path d="M11.3584 7.8981
L12.2050 9.1681
" />
<path d="M12.2050 7.8981
L11.3584 9.1681
" />
<path d="M12.9307 7.8981
L13.0517 7.8981
" />
<path d="M13.0517 7.8981
L13.1726 7.9586
" />
<path d="M13.1726 7.9586
L13.2331 8.0191
" />
<path d="M13.2331 8.0191
L13.2936 8.1400
" />
<path d="M13.2936 8.1400
L13.3541 8.3819
" />
<path d="M13.3541 8.3819
L13.3541 8.6843
" />
<path d="M13.3541 8.6843
L13.2936 8.9262
" />
<path d="M13.2936 8.9262
L13.2331 9.0472
" />
<path d="M13.2331 9.0472
L13.1726 9.1077
" />
<path d="M13.1726 9.1077
L13.0517 9.1681
" />
<path d="M13.0517 9.1681
L12.9307 9.1681
" />
<path d="M12.9307 9.1681
L12.8098 9.1077
" />
<path d="M12.8098 9.1077
L12.7493 9.0472
" />
<path d="M12.7493 9.0472
L12.6888 8.9262
" />
<path d="M12.6888 8.9262
L12.6284 8.6843
" />
<path d="M12.6284 8.6843
L12.6284 8.3819
" />
<path d="M12.6284 8.3819
L12.6888 8.1400
" />
<path d="M12.6888 8.1400
L12.7493 8.0191
" />
<path d="M12.7493 8.0191
L12.8098 7.9586
" />
<path d="M12.8098 7.9586
L12.9307 7.8981
" />
<path d="M14.8055 7.8377
L13.7169 9.4705
" />
<path d="M15.2288 9.1681
L15.2288 7.8981
" />
<path d="M15.2288 7.8981
L15.5312 7.8981
" />
<path d="M15.5312 7.8981
L15.7126 7.9586
" />
<path d="M15.7126 7.9586
L15.8336 8.0796
" />
<path d="M15.8336 8.0796
L15.8941 8.2005
" />
<path d="M15.8941 8.2005
L15.9545 8.4424
" />
<path d="M15.9545 8.4424
L15.9545 8.6238
" />
<path d="M15.9545 8.6238
L15.8941 8.8657
" />
<path d="M15.8941 8.8657
L15.8336 8.9867
" />
<path d="M15.8336 8.9867
L15.7126 9.1077
" />
<path d="M15.7126 9.1077
L15.5312 9.1681
" />
<path d="M15.5312 9.1681
L15.2288 9.1681
" />
<path d="M16.3779 7.8981
L17.1641 7.8981
" />
<path d="M17.1641 7.8981
L16.7407 8.3819
" />
<path d="M16.7407 8.3819
L16.9222 8.3819
" />
<path d="M16.9222 8.3819
L17.0431 8.4424
" />
<path d="M17.0431 8.4424
L17.1036 8.5029
" />
<path d="M17.1036 8.5029
L17.1641 8.6238
" />
<path d="M17.1641 8.6238
L17.1641 8.9262
" />
<path d="M17.1641 8.9262
L17.1036 9.0472
" />
<path d="M17.1036 9.0472
L17.0431 9.1077
" />
<path d="M17.0431 9.1077
L16.9222 9.1681
" />
<path d="M16.9222 9.1681
L16.5593 9.1681
" />
<path d="M16.5593 9.1681
L16.4384 9.1077
" />
<path d="M16.4384 9.1077
L16.3779 9.0472
" />
</g></g>
<g style="fill:none; 
stroke:#A90000; stroke-width:0.1524; stroke-opacity:1; 
stroke-linecap:round; stroke-linejoin:round;">
<text x="6.5532" y="8.3346"
textLength="1.4127" font-size="1.6933" lengthAdjust="spacingAndGlyphs"
text-anchor="middle" opacity="0" stroke-opacity="0">1</text>
<g class="stroked-text"><desc>1</desc>
<path d="M6.9161 8.1711
L6.1904 8.1711
" />
<path d="M6.5532 8.1711
L6.5532 6.9011
" />
<path d="M6.5532 6.9011
L6.4323 7.0826
" />
<path d="M6.4323 7.0826
L6.3113 7.2035
" />
<path d="M6.3113 7.2035
L6.1904 7.2640
" />
</g></g>
<g style="fill:none; 
stroke:#840000; stroke-width:0.1524; stroke-opacity:1; 
stroke-linecap:round; stroke-linejoin:round;">
<path d="M9.0932 11.1286
L4.0132 11.1286
" />
</g>
<g style="fill:none; 
stroke:#006464; stroke-width:0.1524; stroke-opacity:1; 
stroke-linecap:round; stroke-linejoin:round;">
<text x="10.1092" y="11.7636"
textLength="7.7022" font-size="1.6933" lengthAdjust="spacingAndGlyphs"
text-anchor="start" opacity="0" stroke-opacity="0">RX1/D2</text>
<g class="stroked-text"><desc>RX1/D2</desc>
<path d="M11.2374 11.7081
L10.8141 11.1034
" />
<path d="M10.5117 11.7081
L10.5117 10.4381
" />
<path d="M10.5117 10.4381
L10.9955 10.4381
" />
<path d="M10.9955 10.4381
L11.1165 10.4986
" />
<path d="M11.1165 10.4986
L11.1770 10.5591
" />
<path d="M11.1770 10.5591
L11.2374 10.6800
" />
<path d="M11.2374 10.6800
L11.2374 10.8615
" />
<path d="M11.2374 10.8615
L11.1770 10.9824
" />
<path d="M11.1770 10.9824
L11.1165 11.0429
" />
<path d="M11.1165 11.0429
L10.9955 11.1034
" />
<path d="M10.9955 11.1034
L10.5117 11.1034
" />
<path d="M11.6608 10.4381
L12.5074 11.7081
" />
<path d="M12.5074 10.4381
L11.6608 11.7081
" />
<path d="M13.6565 11.7081
L12.9308 11.7081
" />
<path d="M13.2936 11.7081
L13.2936 10.4381
" />
<path d="M13.2936 10.4381
L13.1727 10.6196
" />
<path d="M13.1727 10.6196
L13.0517 10.7405
" />
<path d="M13.0517 10.7405
L12.9308 10.8010
" />
<path d="M15.1079 10.3777
L14.0193 12.0105
" />
<path d="M15.5312 11.7081
L15.5312 10.4381
" />
<path d="M15.5312 10.4381
L15.8336 10.4381
" />
<path d="M15.8336 10.4381
L16.0150 10.4986
" />
<path d="M16.0150 10.4986
L16.1360 10.6196
" />
<path d="M16.1360 10.6196
L16.1965 10.7405
" />
<path d="M16.1965 10.7405
L16.2569 10.9824
" />
<path d="M16.2569 10.9824
L16.2569 11.1638
" />
<path d="M16.2569 11.1638
L16.1965 11.4057
" />
<path d="M16.1965 11.4057
L16.1360 11.5267
" />
<path d="M16.1360 11.5267
L16.0150 11.6477
" />
<path d="M16.0150 11.6477
L15.8336 11.7081
" />
<path d="M15.8336 11.7081
L15.5312 11.7081
" />
<path d="M16.7408 10.5591
L16.8012 10.4986
" />
<path d="M16.8012 10.4986
L16.9222 10.4381
" />
<path d="M16.9222 10.4381
L17.2246 10.4381
" />
<path d="M17.2246 10.4381
L17.3455 10.4986
" />
<path d="M17.3455 10.4986
L17.4060 10.5591
" />
<path d="M17.4060 10.5591
L17.4665 10.6800
" />
<path d="M17.4665 10.6800
L17.4665 10.8010
" />
<path d="M17.4665 10.8010
L17.4060 10.9824
" />
<path d="M17.4060 10.9824
L16.6803 11.7081
" />
<path d="M16.6803 11.7081
L17.4665 11.7081
" />
</g></g>
<g style="fill:none; 
stroke:#A90000; stroke-width:0.1524; stroke-opacity:1; 
stroke-linecap:round; stroke-linejoin:round;">
<text x="6.5532" y="10.8746"
textLength="1.4127" font-size="1.6933" lengthAdjust="spacingAndGlyphs"
text-anchor="middle" opacity="0" stroke-opacity="0">2</text>
<g class="stroked-text"><desc>2</desc>
<path d="M6.1904 9.5621
L6.2508 9.5016
" />
<path d="M6.2508 9.5016
L6.3718 9.4411
" />
<path d="M6.3718 9.4411
L6.6742 9.4411
" />
<path d="M6.6742 9.4411
L6.7951 9.5016
" />
<path d="M6.7951 9.5016
L6.8556 9.5621
" />
<path d="M6.8556 9.5621
L6.9161 9.6830
" />
<path d="M6.9161 9.6830
L6.9161 9.8040
" />
<path d="M6.9161 9.8040
L6.8556 9.9854
" />
<path d="M6.8556 9.9854
L6.1299 10.7111
" />
<path d="M6.1299 10.7111
L6.9161 10.7111
" />
</g></g>
<g style="fill:none; 
stroke:#840000; stroke-width:0.1524; stroke-opacity:1; 
stroke-linecap:round; stroke-linejoin:round;">
<path d="M9.0932 13.6686
L4.0132 13.6686
" />
</g>
<g style="fill:none; 
stroke:#006464; stroke-width:0.1524; stroke-opacity:1; 
stroke-linecap:round; stroke-linejoin:round;">
<text x="10.1092" y="14.3036"
textLength="4.0737" font-size="1.6933" lengthAdjust="spacingAndGlyphs"
text-anchor="start" opacity="0" stroke-opacity="0">GND</text>
<g class="stroked-text"><desc>GND</desc>
<path d="M11.1770 13.0386
L11.0560 12.9781
" />
<path d="M11.0560 12.9781
L10.8746 12.9781
" />
<path d="M10.8746 12.9781
L10.6932 13.0386
" />
<path d="M10.6932 13.0386
L10.5722 13.1596
" />
<path d="M10.5722 13.1596
L10.5117 13.2805
" />
<path d="M10.5117 13.2805
L10.4513 13.5224
" />
<path d="M10.4513 13.5224
L10.4513 13.7038
" />
<path d="M10.4513 13.7038
L10.5117 13.9457
" />
<path d="M10.5117 13.9457
L10.5722 14.0667
" />
<path d="M10.5722 14.0667
L10.6932 14.1877
" />
<path d="M10.6932 14.1877
L10.8746 14.2481
" />
<path d="M10.8746 14.2481
L10.9955 14.2481
" />
<path d="M10.9955 14.2481
L11.1770 14.1877
" />
<path d="M11.1770 14.1877
L11.2374 14.1272
" />
<path d="M11.2374 14.1272
L11.2374 13.7038
" />
<path d="M11.2374 13.7038
L10.9955 13.7038
" />
<path d="M11.7817 14.2481
L11.7817 12.9781
" />
<path d="M11.7817 12.9781
L12.5074 14.2481
" />
<path d="M12.5074 14.2481
L12.5074 12.9781
" />
<path d="M13.1122 14.2481
L13.1122 12.9781
" />
<path d="M13.1122 12.9781
L13.4146 12.9781
" />
<path d="M13.4146 12.9781
L13.5960 13.0386
" />
<path d="M13.5960 13.0386
L13.7170 13.1596
" />
<path d="M13.7170 13.1596
L13.7775 13.2805
" />
<path d="M13.7775 13.2805
L13.8379 13.5224
" />
<path d="M13.8379 13.5224
L13.8379 13.7038
" />
<path d="M13.8379 13.7038
L13.7775 13.9457
" />
<path d="M13.7775 13.9457
L13.7170 14.0667
" />
<path d="M13.7170 14.0667
L13.5960 14.1877
" />
<path d="M13.5960 14.1877
L13.4146 14.2481
" />
<path d="M13.4146 14.2481
L13.1122 14.2481
" />
</g></g>
<g style="fill:none; 
stroke:#A90000; stroke-width:0.1524; stroke-opacity:1; 
stroke-linecap:round; stroke-linejoin:round;">
<text x="6.5532" y="13.4146"
textLength="1.4127" font-size="1.6933" lengthAdjust="spacingAndGlyphs"
text-anchor="middle" opacity="0" stroke-opacity="0">3</text>
<g class="stroked-text"><desc>3</desc>
<path d="M6.1299 11.9811
L6.9161 11.9811
" />
<path d="M6.9161 11.9811
L6.4927 12.4649
" />
<path d="M6.4927 12.4649
L6.6742 12.4649
" />
<path d="M6.6742 12.4649
L6.7951 12.5254
" />
<path d="M6.7951 12.5254
L6.8556 12.5859
" />
<path d="M6.8556 12.5859
L6.9161 12.7068
" />
<path d="M6.9161 12.7068
L6.9161 13.0092
" />
<path d="M6.9161 13.0092
L6.8556 13.1302
" />
<path d="M6.8556 13.1302
L6.7951 13.1907
" />
<path d="M6.7951 13.1907
L6.6742 13.2511
" />
<path d="M6.6742 13.2511
L6.3113 13.2511
" />
<path d="M6.3113 13.2511
L6.1904 13.1907
" />
<path d="M6.1904 13.1907
L6.1299 13.1302
" />
</g></g>
<g style="fill:none; 
stroke:#840000; stroke-width:0.1524; stroke-opacity:1; 
stroke-linecap:round; stroke-linejoin:round;">
<path d="M9.0932 16.2086
L4.0132 16.2086
" />
</g>
<g style="fill:none; 
stroke:#006464; stroke-width:0.1524; stroke-opacity:1; 
stroke-linecap:round; stroke-linejoin:round;">
<text x="10.1092" y="16.8436"
textLength="4.0737" font-size="1.6933" lengthAdjust="spacingAndGlyphs"
text-anchor="start" opacity="0" stroke-opacity="0">GND</text>
<g class="stroked-text"><desc>GND</desc>
<path d="M11.1770 15.5786
L11.0560 15.5181
" />
<path d="M11.0560 15.5181
L10.8746 15.5181
" />
<path d="M10.8746 15.5181
L10.6932 15.5786
" />
<path d="M10.6932 15.5786
L10.5722 15.6996
" />
<path d="M10.5722 15.6996
L10.5117 15.8205
" />
<path d="M10.5117 15.8205
L10.4513 16.0624
" />
<path d="M10.4513 16.0624
L10.4513 16.2438
" />
<path d="M10.4513 16.2438
L10.5117 16.4857
" />
<path d="M10.5117 16.4857
L10.5722 16.6067
" />
<path d="M10.5722 16.6067
L10.6932 16.7277
" />
<path d="M10.6932 16.7277
L10.8746 16.7881
" />
<path d="M10.8746 16.7881
L10.9955 16.7881
" />
<path d="M10.9955 16.7881
L11.1770 16.7277
" />
<path d="M11.1770 16.7277
L11.2374 16.6672
" />
<path d="M11.2374 16.6672
L11.2374 16.2438
" />
<path d="M11.2374 16.2438
L10.9955 16.2438
" />
<path d="M11.7817 16.7881
L11.7817 15.5181
" />
<path d="M11.7817 15.5181
L12.5074 16.7881
" />
<path d="M12.5074 16.7881
L12.5074 15.5181
" />
<path d="M13.1122 16.7881
L13.1122 15.5181
" />
<path d="M13.1122 15.5181
L13.4146 15.5181
" />
<path d="M13.4146 15.5181
L13.5960 15.5786
" />
<path d="M13.5960 15.5786
L13.7170 15.6996
" />
<path d="M13.7170 15.6996
L13.7775 15.8205
" />
<path d="M13.7775 15.8205
L13.8379 16.0624
" />
<path d="M13.8379 16.0624
L13.8379 16.2438
" />
<path d="M13.8379 16.2438
L13.7775 16.4857
" />
<path d="M13.7775 16.4857
L13.7170 16.6067
" />
<path d="M13.7170 16.6067
L13.5960 16.7277
" />
<path d="M13.5960 16.7277
L13.4146 16.7881
" />
<path d="M13.4146 16.7881
L13.1122 16.7881
" />
</g></g>
<g style="fill:none; 
stroke:#A90000; stroke-width:0.1524; stroke-opacity:1; 
stroke-linecap:round; stroke-linejoin:round;">
<text x="6.5532" y="15.9546"
textLength="1.4127" font-size="1.6933" lengthAdjust="spacingAndGlyphs"
text-anchor="middle" opacity="0" stroke-opacity="0">4</text>
<g class="stroked-text"><desc>4</desc>
<path d="M6.7951 14.9445
L6.7951 15.7911
" />
<path d="M6.4927 14.4607
L6.1904 15.3678
" />
<path d="M6.1904 15.3678
L6.9765 15.3678
" />
</g></g>
<g style="fill:none; 
stroke:#840000; stroke-width:0.1524; stroke-opacity:1; 
stroke-linecap:round; stroke-linejoin:round;">
<path d="M9.0932 18.7486
L4.0132 18.7486
" />
</g>
<g style="fill:none; 
stroke:#006464; stroke-width:0.1524; stroke-opacity:1; 
stroke-linecap:round; stroke-linejoin:round;">
<text x="10.1092" y="19.3836"
textLength="10.1213" font-size="1.6933" lengthAdjust="spacingAndGlyphs"
text-anchor="start" opacity="0" stroke-opacity="0">2/D1/SDA</text>
<g class="stroked-text"><desc>2/D1/SDA</desc>
<path d="M10.4513 18.1791
L10.5117 18.1186
" />
<path d="M10.5117 18.1186
L10.6327 18.0581
" />
<path d="M10.6327 18.0581
L10.9351 18.0581
" />
<path d="M10.9351 18.0581
L11.0560 18.1186
" />
<path d="M11.0560 18.1186
L11.1165 18.1791
" />
<path d="M11.1165 18.1791
L11.1770 18.3000
" />
<path d="M11.1770 18.3000
L11.1770 18.4210
" />
<path d="M11.1770 18.4210
L11.1165 18.6024
" />
<path d="M11.1165 18.6024
L10.3908 19.3281
" />
<path d="M10.3908 19.3281
L11.1770 19.3281
" />
<path d="M12.6284 17.9977
L11.5398 19.6305
" />
<path d="M13.0517 19.3281
L13.0517 18.0581
" />
<path d="M13.0517 18.0581
L13.3541 18.0581
" />
<path d="M13.3541 18.0581
L13.5355 18.1186
" />
<path d="M13.5355 18.1186
L13.6565 18.2396
" />
<path d="M13.6565 18.2396
L13.7170 18.3605
" />
<path d="M13.7170 18.3605
L13.7774 18.6024
" />
<path d="M13.7774 18.6024
L13.7774 18.7838
" />
<path d="M13.7774 18.7838
L13.7170 19.0257
" />
<path d="M13.7170 19.0257
L13.6565 19.1467
" />
<path d="M13.6565 19.1467
L13.5355 19.2677
" />
<path d="M13.5355 19.2677
L13.3541 19.3281
" />
<path d="M13.3541 19.3281
L13.0517 19.3281
" />
<path d="M14.9870 19.3281
L14.2613 19.3281
" />
<path d="M14.6241 19.3281
L14.6241 18.0581
" />
<path d="M14.6241 18.0581
L14.5032 18.2396
" />
<path d="M14.5032 18.2396
L14.3822 18.3605
" />
<path d="M14.3822 18.3605
L14.2613 18.4210
" />
<path d="M16.4384 17.9977
L15.3498 19.6305
" />
<path d="M16.8013 19.2677
L16.9827 19.3281
" />
<path d="M16.9827 19.3281
L17.2851 19.3281
" />
<path d="M17.2851 19.3281
L17.4060 19.2677
" />
<path d="M17.4060 19.2677
L17.4665 19.2072
" />
<path d="M17.4665 19.2072
L17.5270 19.0862
" />
<path d="M17.5270 19.0862
L17.5270 18.9653
" />
<path d="M17.5270 18.9653
L17.4665 18.8443
" />
<path d="M17.4665 18.8443
L17.4060 18.7838
" />
<path d="M17.4060 18.7838
L17.2851 18.7234
" />
<path d="M17.2851 18.7234
L17.0432 18.6629
" />
<path d="M17.0432 18.6629
L16.9222 18.6024
" />
<path d="M16.9222 18.6024
L16.8617 18.5419
" />
<path d="M16.8617 18.5419
L16.8013 18.4210
" />
<path d="M16.8013 18.4210
L16.8013 18.3000
" />
<path d="M16.8013 18.3000
L16.8617 18.1791
" />
<path d="M16.8617 18.1791
L16.9222 18.1186
" />
<path d="M16.9222 18.1186
L17.0432 18.0581
" />
<path d="M17.0432 18.0581
L17.3455 18.0581
" />
<path d="M17.3455 18.0581
L17.5270 18.1186
" />
<path d="M18.0712 19.3281
L18.0712 18.0581
" />
<path d="M18.0712 18.0581
L18.3736 18.0581
" />
<path d="M18.3736 18.0581
L18.5550 18.1186
" />
<path d="M18.5550 18.1186
L18.6760 18.2396
" />
<path d="M18.6760 18.2396
L18.7365 18.3605
" />
<path d="M18.7365 18.3605
L18.7969 18.6024
" />
<path d="M18.7969 18.6024
L18.7969 18.7838
" />
<path d="M18.7969 18.7838
L18.7365 19.0257
" />
<path d="M18.7365 19.0257
L18.6760 19.1467
" />
<path d="M18.6760 19.1467
L18.5550 19.2677
" />
<path d="M18.5550 19.2677
L18.3736 19.3281
" />
<path d="M18.3736 19.3281
L18.0712 19.3281
" />
<path d="M19.2808 18.9653
L19.8855 18.9653
" />
<path d="M19.1598 19.3281
L19.5831 18.0581
" />
<path d="M19.5831 18.0581
L20.0065 19.3281
" />
</g></g>
<g style="fill:none; 
stroke:#A90000; stroke-width:0.1524; stroke-opacity:1; 
stroke-linecap:round; stroke-linejoin:round;">
<text x="6.5532" y="18.4946"
textLength="1.4127" font-size="1.6933" lengthAdjust="spacingAndGlyphs"
text-anchor="middle" opacity="0" stroke-opacity="0">5</text>
<g class="stroked-text"><desc>5</desc>
<path d="M6.8556 17.0611
L6.2508 17.0611
" />
<path d="M6.2508 17.0611
L6.1904 17.6659
" />
<path d="M6.1904 17.6659
L6.2508 17.6054
" />
<path d="M6.2508 17.6054
L6.3718 17.5449
" />
<path d="M6.3718 17.5449
L6.6742 17.5449
" />
<path d="M6.6742 17.5449
L6.7951 17.6054
" />
<path d="M6.7951 17.6054
L6.8556 17.6659
" />
<path d="M6.8556 17.6659
L6.9161 17.7868
" />
<path d="M6.9161 17.7868
L6.9161 18.0892
" />
<path d="M6.9161 18.0892
L6.8556 18.2102
" />
<path d="M6.8556 18.2102
L6.7951 18.2707
" />
<path d="M6.7951 18.2707
L6.6742 18.3311
" />
<path d="M6.6742 18.3311
L6.3718 18.3311
" />
<path d="M6.3718 18.3311
L6.2508 18.2707
" />
<path d="M6.2508 18.2707
L6.1904 18.2102
" />
</g></g>
<g style="fill:none; 
stroke:#840000; stroke-width:0.1524; stroke-opacity:1; 
stroke-linecap:round; stroke-linejoin:round;">
<path d="M9.0932 21.2886
L4.0132 21.2886
" />
</g>
<g style="fill:none; 
stroke:#006464; stroke-width:0.1524; stroke-opacity:1; 
stroke-linecap:round; stroke-linejoin:round;">
<text x="10.1092" y="21.9236"
textLength="10.0608" font-size="1.6933" lengthAdjust="spacingAndGlyphs"
text-anchor="start" opacity="0" stroke-opacity="0">3/D0/SCL</text>
<g class="stroked-text"><desc>3/D0/SCL</desc>
<path d="M10.3908 20.5981
L11.1770 20.5981
" />
<path d="M11.1770 20.5981
L10.7536 21.0819
" />
<path d="M10.7536 21.0819
L10.9351 21.0819
" />
<path d="M10.9351 21.0819
L11.0560 21.1424
" />
<path d="M11.0560 21.1424
L11.1165 21.2029
" />
<path d="M11.1165 21.2029
L11.1770 21.3238
" />
<path d="M11.1770 21.3238
L11.1770 21.6262
" />
<path d="M11.1770 21.6262
L11.1165 21.7472
" />
<path d="M11.1165 21.7472
L11.0560 21.8077
" />
<path d="M11.0560 21.8077
L10.9351 21.8681
" />
<path d="M10.9351 21.8681
L10.5722 21.8681
" />
<path d="M10.5722 21.8681
L10.4513 21.8077
" />
<path d="M10.4513 21.8077
L10.3908 21.7472
" />
<path d="M12.6284 20.5377
L11.5398 22.1705
" />
<path d="M13.0517 21.8681
L13.0517 20.5981
" />
<path d="M13.0517 20.5981
L13.3541 20.5981
" />
<path d="M13.3541 20.5981
L13.5355 20.6586
" />
<path d="M13.5355 20.6586
L13.6565 20.7796
" />
<path d="M13.6565 20.7796
L13.7170 20.9005
" />
<path d="M13.7170 20.9005
L13.7774 21.1424
" />
<path d="M13.7774 21.1424
L13.7774 21.3238
" />
<path d="M13.7774 21.3238
L13.7170 21.5657
" />
<path d="M13.7170 21.5657
L13.6565 21.6867
" />
<path d="M13.6565 21.6867
L13.5355 21.8077
" />
<path d="M13.5355 21.8077
L13.3541 21.8681
" />
<path d="M13.3541 21.8681
L13.0517 21.8681
" />
<path d="M14.5636 20.5981
L14.6846 20.5981
" />
<path d="M14.6846 20.5981
L14.8055 20.6586
" />
<path d="M14.8055 20.6586
L14.8660 20.7191
" />
<path d="M14.8660 20.7191
L14.9265 20.8400
" />
<path d="M14.9265 20.8400
L14.9870 21.0819
" />
<path d="M14.9870 21.0819
L14.9870 21.3843
" />
<path d="M14.9870 21.3843
L14.9265 21.6262
" />
<path d="M14.9265 21.6262
L14.8660 21.7472
" />
<path d="M14.8660 21.7472
L14.8055 21.8077
" />
<path d="M14.8055 21.8077
L14.6846 21.8681
" />
<path d="M14.6846 21.8681
L14.5636 21.8681
" />
<path d="M14.5636 21.8681
L14.4427 21.8077
" />
<path d="M14.4427 21.8077
L14.3822 21.7472
" />
<path d="M14.3822 21.7472
L14.3217 21.6262
" />
<path d="M14.3217 21.6262
L14.2613 21.3843
" />
<path d="M14.2613 21.3843
L14.2613 21.0819
" />
<path d="M14.2613 21.0819
L14.3217 20.8400
" />
<path d="M14.3217 20.8400
L14.3822 20.7191
" />
<path d="M14.3822 20.7191
L14.4427 20.6586
" />
<path d="M14.4427 20.6586
L14.5636 20.5981
" />
<path d="M16.4384 20.5377
L15.3498 22.1705
" />
<path d="M16.8013 21.8077
L16.9827 21.8681
" />
<path d="M16.9827 21.8681
L17.2851 21.8681
" />
<path d="M17.2851 21.8681
L17.4060 21.8077
" />
<path d="M17.4060 21.8077
L17.4665 21.7472
" />
<path d="M17.4665 21.7472
L17.5270 21.6262
" />
<path d="M17.5270 21.6262
L17.5270 21.5053
" />
<path d="M17.5270 21.5053
L17.4665 21.3843
" />
<path d="M17.4665 21.3843
L17.4060 21.3238
" />
<path d="M17.4060 21.3238
L17.2851 21.2634
" />
<path d="M17.2851 21.2634
L17.0432 21.2029
" />
<path d="M17.0432 21.2029
L16.9222 21.1424
" />
<path d="M16.9222 21.1424
L16.8617 21.0819
" />
<path d="M16.8617 21.0819
L16.8013 20.9610
" />
<path d="M16.8013 20.9610
L16.8013 20.8400
" />
<path d="M16.8013 20.8400
L16.8617 20.7191
" />
<path d="M16.8617 20.7191
L16.9222 20.6586
" />
<path d="M16.9222 20.6586
L17.0432 20.5981
" />
<path d="M17.0432 20.5981
L17.3455 20.5981
" />
<path d="M17.3455 20.5981
L17.5270 20.6586
" />
<path d="M18.7969 21.7472
L18.7365 21.8077
" />
<path d="M18.7365 21.8077
L18.5550 21.8681
" />
<path d="M18.5550 21.8681
L18.4341 21.8681
" />
<path d="M18.4341 21.8681
L18.2527 21.8077
" />
<path d="M18.2527 21.8077
L18.1317 21.6867
" />
<path d="M18.1317 21.6867
L18.0712 21.5657
" />
<path d="M18.0712 21.5657
L18.0108 21.3238
" />
<path d="M18.0108 21.3238
L18.0108 21.1424
" />
<path d="M18.0108 21.1424
L18.0712 20.9005
" />
<path d="M18.0712 20.9005
L18.1317 20.7796
" />
<path d="M18.1317 20.7796
L18.2527 20.6586
" />
<path d="M18.2527 20.6586
L18.4341 20.5981
" />
<path d="M18.4341 20.5981
L18.5550 20.5981
" />
<path d="M18.5550 20.5981
L18.7365 20.6586
" />
<path d="M18.7365 20.6586
L18.7969 20.7191
" />
<path d="M19.9460 21.8681
L19.3412 21.8681
" />
<path d="M19.3412 21.8681
L19.3412 20.5981
" />
</g></g>
<g style="fill:none; 
stroke:#A90000; stroke-width:0.1524; stroke-opacity:1; 
stroke-linecap:round; stroke-linejoin:round;">
<text x="6.5532" y="21.0346"
textLength="1.4127" font-size="1.6933" lengthAdjust="spacingAndGlyphs"
text-anchor="middle" opacity="0" stroke-opacity="0">6</text>
<g class="stroked-text"><desc>6</desc>
<path d="M6.7951 19.6011
L6.5532 19.6011
" />
<path d="M6.5532 19.6011
L6.4323 19.6616
" />
<path d="M6.4323 19.6616
L6.3718 19.7221
" />
<path d="M6.3718 19.7221
L6.2508 19.9035
" />
<path d="M6.2508 19.9035
L6.1904 20.1454
" />
<path d="M6.1904 20.1454
L6.1904 20.6292
" />
<path d="M6.1904 20.6292
L6.2508 20.7502
" />
<path d="M6.2508 20.7502
L6.3113 20.8107
" />
<path d="M6.3113 20.8107
L6.4323 20.8711
" />
<path d="M6.4323 20.8711
L6.6742 20.8711
" />
<path d="M6.6742 20.8711
L6.7951 20.8107
" />
<path d="M6.7951 20.8107
L6.8556 20.7502
" />
<path d="M6.8556 20.7502
L6.9161 20.6292
" />
<path d="M6.9161 20.6292
L6.9161 20.3268
" />
<path d="M6.9161 20.3268
L6.8556 20.2059
" />
<path d="M6.8556 20.2059
L6.7951 20.1454
" />
<path d="M6.7951 20.1454
L6.6742 20.0849
" />
<path d="M6.6742 20.0849
L6.4323 20.0849
" />
<path d="M6.4323 20.0849
L6.3113 20.1454
" />
<path d="M6.3113 20.1454
L6.2508 20.2059
" />
<path d="M6.2508 20.2059
L6.1904 20.3268
" />
</g></g>
<g style="fill:none; 
stroke:#840000; stroke-width:0.1524; stroke-opacity:1; 
stroke-linecap:round; stroke-linejoin:round;">
<path d="M9.0932 23.8286
L4.0132 23.8286
" />
</g>
<g style="fill:none; 
stroke:#006464; stroke-width:0.1524; stroke-opacity:1; 
stroke-linecap:round; stroke-linejoin:round;">
<text x="10.1092" y="24.4636"
textLength="5.2227" font-size="1.6933" lengthAdjust="spacingAndGlyphs"
text-anchor="start" opacity="0" stroke-opacity="0">4/D4</text>
<g class="stroked-text"><desc>4/D4</desc>
<path d="M11.0560 23.5615
L11.0560 24.4081
" />
<path d="M10.7536 23.0777
L10.4513 23.9848
" />
<path d="M10.4513 23.9848
L11.2374 23.9848
" />
<path d="M12.6284 23.0777
L11.5398 24.7105
" />
<path d="M13.0517 24.4081
L13.0517 23.1381
" />
<path d="M13.0517 23.1381
L13.3541 23.1381
" />
<path d="M13.3541 23.1381
L13.5355 23.1986
" />
<path d="M13.5355 23.1986
L13.6565 23.3196
" />
<path d="M13.6565 23.3196
L13.7170 23.4405
" />
<path d="M13.7170 23.4405
L13.7774 23.6824
" />
<path d="M13.7774 23.6824
L13.7774 23.8638
" />
<path d="M13.7774 23.8638
L13.7170 24.1057
" />
<path d="M13.7170 24.1057
L13.6565 24.2267
" />
<path d="M13.6565 24.2267
L13.5355 24.3477
" />
<path d="M13.5355 24.3477
L13.3541 24.4081
" />
<path d="M13.3541 24.4081
L13.0517 24.4081
" />
<path d="M14.8660 23.5615
L14.8660 24.4081
" />
<path d="M14.5636 23.0777
L14.2613 23.9848
" />
<path d="M14.2613 23.9848
L15.0474 23.9848
" />
</g></g>
<g style="fill:none; 
stroke:#A90000; stroke-width:0.1524; stroke-opacity:1; 
stroke-linecap:round; stroke-linejoin:round;">
<text x="6.5532" y="23.5746"
textLength="1.4127" font-size="1.6933" lengthAdjust="spacingAndGlyphs"
text-anchor="middle" opacity="0" stroke-opacity="0">7</text>
<g class="stroked-text"><desc>7</desc>
<path d="M6.1299 22.1411
L6.9765 22.1411
" />
<path d="M6.9765 22.1411
L6.4323 23.4111
" />
</g></g>
<g style="fill:none; 
stroke:#840000; stroke-width:0.1524; stroke-opacity:1; 
stroke-linecap:round; stroke-linejoin:round;">
<path d="M9.0932 26.3686
L4.0132 26.3686
" />
</g>
<g style="fill:none; 
stroke:#006464; stroke-width:0.1524; stroke-opacity:1; 
stroke-linecap:round; stroke-linejoin:round;">
<text x="10.1092" y="27.0036"
textLength="5.2227" font-size="1.6933" lengthAdjust="spacingAndGlyphs"
text-anchor="start" opacity="0" stroke-opacity="0">5/C6</text>
<g class="stroked-text"><desc>5/C6</desc>
<path d="M11.1165 25.6781
L10.5117 25.6781
" />
<path d="M10.5117 25.6781
L10.4513 26.2829
" />
<path d="M10.4513 26.2829
L10.5117 26.2224
" />
<path d="M10.5117 26.2224
L10.6327 26.1619
" />
<path d="M10.6327 26.1619
L10.9351 26.1619
" />
<path d="M10.9351 26.1619
L11.0560 26.2224
" />
<path d="M11.0560 26.2224
L11.1165 26.2829
" />
<path d="M11.1165 26.2829
L11.1770 26.4038
" />
<path d="M11.1770 26.4038
L11.1770 26.7062
" />
<path d="M11.1770 26.7062
L11.1165 26.8272
" />
<path d="M11.1165 26.8272
L11.0560 26.8877
" />
<path d="M11.0560 26.8877
L10.9351 26.9481
" />
<path d="M10.9351 26.9481
L10.6327 26.9481
" />
<path d="M10.6327 26.9481
L10.5117 26.8877
" />
<path d="M10.5117 26.8877
L10.4513 26.8272
" />
<path d="M12.6284 25.6177
L11.5398 27.2505
" />
<path d="M13.7774 26.8272
L13.7170 26.8877
" />
<path d="M13.7170 26.8877
L13.5355 26.9481
" />
<path d="M13.5355 26.9481
L13.4146 26.9481
" />
<path d="M13.4146 26.9481
L13.2332 26.8877
" />
<path d="M13.2332 26.8877
L13.1122 26.7667
" />
<path d="M13.1122 26.7667
L13.0517 26.6457
" />
<path d="M13.0517 26.6457
L12.9913 26.4038
" />
<path d="M12.9913 26.4038
L12.9913 26.2224
" />
<path d="M12.9913 26.2224
L13.0517 25.9805
" />
<path d="M13.0517 25.9805
L13.1122 25.8596
" />
<path d="M13.1122 25.8596
L13.2332 25.7386
" />
<path d="M13.2332 25.7386
L13.4146 25.6781
" />
<path d="M13.4146 25.6781
L13.5355 25.6781
" />
<path d="M13.5355 25.6781
L13.7170 25.7386
" />
<path d="M13.7170 25.7386
L13.7774 25.7991
" />
<path d="M14.8660 25.6781
L14.6241 25.6781
" />
<path d="M14.6241 25.6781
L14.5032 25.7386
" />
<path d="M14.5032 25.7386
L14.4427 25.7991
" />
<path d="M14.4427 25.7991
L14.3217 25.9805
" />
<path d="M14.3217 25.9805
L14.2613 26.2224
" />
<path d="M14.2613 26.2224
L14.2613 26.7062
" />
<path d="M14.2613 26.7062
L14.3217 26.8272
" />
<path d="M14.3217 26.8272
L14.3822 26.8877
" />
<path d="M14.3822 26.8877
L14.5032 26.9481
" />
<path d="M14.5032 26.9481
L14.7451 26.9481
" />
<path d="M14.7451 26.9481
L14.8660 26.8877
" />
<path d="M14.8660 26.8877
L14.9265 26.8272
" />
<path d="M14.9265 26.8272
L14.9870 26.7062
" />
<path d="M14.9870 26.7062
L14.9870 26.4038
" />
<path d="M14.9870 26.4038
L14.9265 26.2829
" />
<path d="M14.9265 26.2829
L14.8660 26.2224
" />
<path d="M14.8660 26.2224
L14.7451 26.1619
" />
<path d="M14.7451 26.1619
L14.5032 26.1619
" />
<path d="M14.5032 26.1619
L14.3822 26.2224
" />
<path d="M14.3822 26.2224
L14.3217 26.2829
" />
<path d="M14.3217 26.2829
L14.2613 26.4038
" />
</g></g>
<g style="fill:none; 
stroke:#A90000; stroke-width:0.1524; stroke-opacity:1; 
stroke-linecap:round; stroke-linejoin:round;">
<text x="6.5532" y="26.1146"
textLength="1.4127" font-size="1.6933" lengthAdjust="spacingAndGlyphs"
text-anchor="middle" opacity="0" stroke-opacity="0">8</text>
<g class="stroked-text"><desc>8</desc>
<path d="M6.4323 25.2254
L6.3113 25.1649
" />
<path d="M6.3113 25.1649
L6.2508 25.1045
" />
<path d="M6.2508 25.1045
L6.1904 24.9835
" />
<path d="M6.1904 24.9835
L6.1904 24.9230
" />
<path d="M6.1904 24.9230
L6.2508 24.8021
" />
<path d="M6.2508 24.8021
L6.3113 24.7416
" />
<path d="M6.3113 24.7416
L6.4323 24.6811
" />
<path d="M6.4323 24.6811
L6.6742 24.6811
" />
<path d="M6.6742 24.6811
L6.7951 24.7416
" />
<path d="M6.7951 24.7416
L6.8556 24.8021
" />
<path d="M6.8556 24.8021
L6.9161 24.9230
" />
<path d="M6.9161 24.9230
L6.9161 24.9835
" />
<path d="M6.9161 24.9835
L6.8556 25.1045
" />
<path d="M6.8556 25.1045
L6.7951 25.1649
" />
<path d="M6.7951 25.1649
L6.6742 25.2254
" />
<path d="M6.6742 25.2254
L6.4323 25.2254
" />
<path d="M6.4323 25.2254
L6.3113 25.2859
" />
<path d="M6.3113 25.2859
L6.2508 25.3464
" />
<path d="M6.2508 25.3464
L6.1904 25.4673
" />
<path d="M6.1904 25.4673
L6.1904 25.7092
" />
<path d="M6.1904 25.7092
L6.2508 25.8302
" />
<path d="M6.2508 25.8302
L6.3113 25.8907
" />
<path d="M6.3113 25.8907
L6.4323 25.9511
" />
<path d="M6.4323 25.9511
L6.6742 25.9511
" />
<path d="M6.6742 25.9511
L6.7951 25.8907
" />
<path d="M6.7951 25.8907
L6.8556 25.8302
" />
<path d="M6.8556 25.8302
L6.9161 25.7092
" />
<path d="M6.9161 25.7092
L6.9161 25.4673
" />
<path d="M6.9161 25.4673
L6.8556 25.3464
" />
<path d="M6.8556 25.3464
L6.7951 25.2859
" />
<path d="M6.7951 25.2859
L6.6742 25.2254
" />
</g></g>
<g style="fill:none; 
stroke:#840000; stroke-width:0.1524; stroke-opacity:1; 
stroke-linecap:round; stroke-linejoin:round;">
<path d="M9.0932 28.9086
L4.0132 28.9086
" />
</g>
<g style="fill:none; 
stroke:#006464; stroke-width:0.1524; stroke-opacity:1; 
stroke-linecap:round; stroke-linejoin:round;">
<text x="10.1092" y="29.5436"
textLength="5.2227" font-size="1.6933" lengthAdjust="spacingAndGlyphs"
text-anchor="start" opacity="0" stroke-opacity="0">6/D7</text>
<g class="stroked-text"><desc>6/D7</desc>
<path d="M11.0560 28.2181
L10.8141 28.2181
" />
<path d="M10.8141 28.2181
L10.6932 28.2786
" />
<path d="M10.6932 28.2786
L10.6327 28.3391
" />
<path d="M10.6327 28.3391
L10.5117 28.5205
" />
<path d="M10.5117 28.5205
L10.4513 28.7624
" />
<path d="M10.4513 28.7624
L10.4513 29.2462
" />
<path d="M10.4513 29.2462
L10.5117 29.3672
" />
<path d="M10.5117 29.3672
L10.5722 29.4277
" />
<path d="M10.5722 29.4277
L10.6932 29.4881
" />
<path d="M10.6932 29.4881
L10.9351 29.4881
" />
<path d="M10.9351 29.4881
L11.0560 29.4277
" />
<path d="M11.0560 29.4277
L11.1165 29.3672
" />
<path d="M11.1165 29.3672
L11.1770 29.2462
" />
<path d="M11.1770 29.2462
L11.1770 28.9438
" />
<path d="M11.1770 28.9438
L11.1165 28.8229
" />
<path d="M11.1165 28.8229
L11.0560 28.7624
" />
<path d="M11.0560 28.7624
L10.9351 28.7019
" />
<path d="M10.9351 28.7019
L10.6932 28.7019
" />
<path d="M10.6932 28.7019
L10.5722 28.7624
" />
<path d="M10.5722 28.7624
L10.5117 28.8229
" />
<path d="M10.5117 28.8229
L10.4513 28.9438
" />
<path d="M12.6284 28.1577
L11.5398 29.7905
" />
<path d="M13.0517 29.4881
L13.0517 28.2181
" />
<path d="M13.0517 28.2181
L13.3541 28.2181
" />
<path d="M13.3541 28.2181
L13.5355 28.2786
" />
<path d="M13.5355 28.2786
L13.6565 28.3996
" />
<path d="M13.6565 28.3996
L13.7170 28.5205
" />
<path d="M13.7170 28.5205
L13.7774 28.7624
" />
<path d="M13.7774 28.7624
L13.7774 28.9438
" />
<path d="M13.7774 28.9438
L13.7170 29.1857
" />
<path d="M13.7170 29.1857
L13.6565 29.3067
" />
<path d="M13.6565 29.3067
L13.5355 29.4277
" />
<path d="M13.5355 29.4277
L13.3541 29.4881
" />
<path d="M13.3541 29.4881
L13.0517 29.4881
" />
<path d="M14.2008 28.2181
L15.0474 28.2181
" />
<path d="M15.0474 28.2181
L14.5032 29.4881
" />
</g></g>
<g style="fill:none; 
stroke:#A90000; stroke-width:0.1524; stroke-opacity:1; 
stroke-linecap:round; stroke-linejoin:round;">
<text x="6.5532" y="28.6546"
textLength="1.4127" font-size="1.6933" lengthAdjust="spacingAndGlyphs"
text-anchor="middle" opacity="0" stroke-opacity="0">9</text>
<g class="stroked-text"><desc>9</desc>
<path d="M6.3113 28.4911
L6.5532 28.4911
" />
<path d="M6.5532 28.4911
L6.6742 28.4307
" />
<path d="M6.6742 28.4307
L6.7346 28.3702
" />
<path d="M6.7346 28.3702
L6.8556 28.1887
" />
<path d="M6.8556 28.1887
L6.9161 27.9468
" />
<path d="M6.9161 27.9468
L6.9161 27.4630
" />
<path d="M6.9161 27.4630
L6.8556 27.3421
" />
<path d="M6.8556 27.3421
L6.7951 27.2816
" />
<path d="M6.7951 27.2816
L6.6742 27.2211
" />
<path d="M6.6742 27.2211
L6.4323 27.2211
" />
<path d="M6.4323 27.2211
L6.3113 27.2816
" />
<path d="M6.3113 27.2816
L6.2508 27.3421
" />
<path d="M6.2508 27.3421
L6.1904 27.4630
" />
<path d="M6.1904 27.4630
L6.1904 27.7654
" />
<path d="M6.1904 27.7654
L6.2508 27.8864
" />
<path d="M6.2508 27.8864
L6.3113 27.9468
" />
<path d="M6.3113 27.9468
L6.4323 28.0073
" />
<path d="M6.4323 28.0073
L6.6742 28.0073
" />
<path d="M6.6742 28.0073
L6.7951 27.9468
" />
<path d="M6.7951 27.9468
L6.8556 27.8864
" />
<path d="M6.8556 27.8864
L6.9161 27.7654
" />
</g></g>
<g style="fill:none; 
stroke:#840000; stroke-width:0.1524; stroke-opacity:1; 
stroke-linecap:round; stroke-linejoin:round;">
<path d="M9.0932 31.4486
L4.0132 31.4486
" />
</g>
<g style="fill:none; 
stroke:#006464; stroke-width:0.1524; stroke-opacity:1; 
stroke-linecap:round; stroke-linejoin:round;">
<text x="10.1092" y="32.0836"
textLength="5.1017" font-size="1.6933" lengthAdjust="spacingAndGlyphs"
text-anchor="start" opacity="0" stroke-opacity="0">7/E6</text>
<g class="stroked-text"><desc>7/E6</desc>
<path d="M10.3908 30.7581
L11.2374 30.7581
" />
<path d="M11.2374 30.7581
L10.6932 32.0281
" />
<path d="M12.6284 30.6977
L11.5398 32.3305
" />
<path d="M13.0517 31.3629
L13.4751 31.3629
" />
<path d="M13.6565 32.0281
L13.0517 32.0281
" />
<path d="M13.0517 32.0281
L13.0517 30.7581
" />
<path d="M13.0517 30.7581
L13.6565 30.7581
" />
<path d="M14.7450 30.7581
L14.5031 30.7581
" />
<path d="M14.5031 30.7581
L14.3822 30.8186
" />
<path d="M14.3822 30.8186
L14.3217 30.8791
" />
<path d="M14.3217 30.8791
L14.2007 31.0605
" />
<path d="M14.2007 31.0605
L14.1403 31.3024
" />
<path d="M14.1403 31.3024
L14.1403 31.7862
" />
<path d="M14.1403 31.7862
L14.2007 31.9072
" />
<path d="M14.2007 31.9072
L14.2612 31.9677
" />
<path d="M14.2612 31.9677
L14.3822 32.0281
" />
<path d="M14.3822 32.0281
L14.6241 32.0281
" />
<path d="M14.6241 32.0281
L14.7450 31.9677
" />
<path d="M14.7450 31.9677
L14.8055 31.9072
" />
<path d="M14.8055 31.9072
L14.8660 31.7862
" />
<path d="M14.8660 31.7862
L14.8660 31.4838
" />
<path d="M14.8660 31.4838
L14.8055 31.3629
" />
<path d="M14.8055 31.3629
L14.7450 31.3024
" />
<path d="M14.7450 31.3024
L14.6241 31.2419
" />
<path d="M14.6241 31.2419
L14.3822 31.2419
" />
<path d="M14.3822 31.2419
L14.2612 31.3024
" />
<path d="M14.2612 31.3024
L14.2007 31.3629
" />
<path d="M14.2007 31.3629
L14.1403 31.4838
" />
</g></g>
<g style="fill:none; 
stroke:#A90000; stroke-width:0.1524; stroke-opacity:1; 
stroke-linecap:round; stroke-linejoin:round;">
<text x="6.5532" y="31.1946"
textLength="2.6222" font-size="1.6933" lengthAdjust="spacingAndGlyphs"
text-anchor="middle" opacity="0" stroke-opacity="0">10</text>
<g class="stroked-text"><desc>10</desc>
<path d="M6.3113 31.0311
L5.5856 31.0311
" />
<path d="M5.9484 31.0311
L5.9484 29.7611
" />
<path d="M5.9484 29.7611
L5.8275 29.9426
" />
<path d="M5.8275 29.9426
L5.7065 30.0635
" />
<path d="M5.7065 30.0635
L5.5856 30.1240
" />
<path d="M7.0974 29.7611
L7.2184 29.7611
" />
<path d="M7.2184 29.7611
L7.3393 29.8216
" />
<path d="M7.3393 29.8216
L7.3998 29.8821
" />
<path d="M7.3998 29.8821
L7.4603 30.0030
" />
<path d="M7.4603 30.0030
L7.5208 30.2449
" />
<path d="M7.5208 30.2449
L7.5208 30.5473
" />
<path d="M7.5208 30.5473
L7.4603 30.7892
" />
<path d="M7.4603 30.7892
L7.3998 30.9102
" />
<path d="M7.3998 30.9102
L7.3393 30.9707
" />
<path d="M7.3393 30.9707
L7.2184 31.0311
" />
<path d="M7.2184 31.0311
L7.0974 31.0311
" />
<path d="M7.0974 31.0311
L6.9765 30.9707
" />
<path d="M6.9765 30.9707
L6.9160 30.9102
" />
<path d="M6.9160 30.9102
L6.8555 30.7892
" />
<path d="M6.8555 30.7892
L6.7951 30.5473
" />
<path d="M6.7951 30.5473
L6.7951 30.2449
" />
<path d="M6.7951 30.2449
L6.8555 30.0030
" />
<path d="M6.8555 30.0030
L6.9160 29.8821
" />
<path d="M6.9160 29.8821
L6.9765 29.8216
" />
<path d="M6.9765 29.8216
L7.0974 29.7611
" />
</g></g>
<g style="fill:none; 
stroke:#840000; stroke-width:0.1524; stroke-opacity:1; 
stroke-linecap:round; stroke-linejoin:round;">
<path d="M9.0932 33.9886
L4.0132 33.9886
" />
</g>
<g style="fill:none; 
stroke:#006464; stroke-width:0.1524; stroke-opacity:1; 
stroke-linecap:round; stroke-linejoin:round;">
<text x="10.1092" y="34.6236"
textLength="5.2227" font-size="1.6933" lengthAdjust="spacingAndGlyphs"
text-anchor="start" opacity="0" stroke-opacity="0">8/B4</text>
<g class="stroked-text"><desc>8/B4</desc>
<path d="M10.6932 33.8424
L10.5722 33.7819
" />
<path d="M10.5722 33.7819
L10.5117 33.7215
" />
<path d="M10.5117 33.7215
L10.4513 33.6005
" />
<path d="M10.4513 33.6005
L10.4513 33.5400
" />
<path d="M10.4513 33.5400
L10.5117 33.4191
" />
<path d="M10.5117 33.4191
L10.5722 33.3586
" />
<path d="M10.5722 33.3586
L10.6932 33.2981
" />
<path d="M10.6932 33.2981
L10.9351 33.2981
" />
<path d="M10.9351 33.2981
L11.0560 33.3586
" />
<path d="M11.0560 33.3586
L11.1165 33.4191
" />
<path d="M11.1165 33.4191
L11.1770 33.5400
" />
<path d="M11.1770 33.5400
L11.1770 33.6005
" />
<path d="M11.1770 33.6005
L11.1165 33.7215
" />
<path d="M11.1165 33.7215
L11.0560 33.7819
" />
<path d="M11.0560 33.7819
L10.9351 33.8424
" />
<path d="M10.9351 33.8424
L10.6932 33.8424
" />
<path d="M10.6932 33.8424
L10.5722 33.9029
" />
<path d="M10.5722 33.9029
L10.5117 33.9634
" />
<path d="M10.5117 33.9634
L10.4513 34.0843
" />
<path d="M10.4513 34.0843
L10.4513 34.3262
" />
<path d="M10.4513 34.3262
L10.5117 34.4472
" />
<path d="M10.5117 34.4472
L10.5722 34.5077
" />
<path d="M10.5722 34.5077
L10.6932 34.5681
" />
<path d="M10.6932 34.5681
L10.9351 34.5681
" />
<path d="M10.9351 34.5681
L11.0560 34.5077
" />
<path d="M11.0560 34.5077
L11.1165 34.4472
" />
<path d="M11.1165 34.4472
L11.1770 34.3262
" />
<path d="M11.1770 34.3262
L11.1770 34.0843
" />
<path d="M11.1770 34.0843
L11.1165 33.9634
" />
<path d="M11.1165 33.9634
L11.0560 33.9029
" />
<path d="M11.0560 33.9029
L10.9351 33.8424
" />
<path d="M12.6284 33.2377
L11.5398 34.8705
" />
<path d="M13.4751 33.9029
L13.6565 33.9634
" />
<path d="M13.6565 33.9634
L13.7170 34.0238
" />
<path d="M13.7170 34.0238
L13.7774 34.1448
" />
<path d="M13.7774 34.1448
L13.7774 34.3262
" />
<path d="M13.7774 34.3262
L13.7170 34.4472
" />
<path d="M13.7170 34.4472
L13.6565 34.5077
" />
<path d="M13.6565 34.5077
L13.5355 34.5681
" />
<path d="M13.5355 34.5681
L13.0517 34.5681
" />
<path d="M13.0517 34.5681
L13.0517 33.2981
" />
<path d="M13.0517 33.2981
L13.4751 33.2981
" />
<path d="M13.4751 33.2981
L13.5960 33.3586
" />
<path d="M13.5960 33.3586
L13.6565 33.4191
" />
<path d="M13.6565 33.4191
L13.7170 33.5400
" />
<path d="M13.7170 33.5400
L13.7170 33.6610
" />
<path d="M13.7170 33.6610
L13.6565 33.7819
" />
<path d="M13.6565 33.7819
L13.5960 33.8424
" />
<path d="M13.5960 33.8424
L13.4751 33.9029
" />
<path d="M13.4751 33.9029
L13.0517 33.9029
" />
<path d="M14.8660 33.7215
L14.8660 34.5681
" />
<path d="M14.5636 33.2377
L14.2613 34.1448
" />
<path d="M14.2613 34.1448
L15.0474 34.1448
" />
</g></g>
<g style="fill:none; 
stroke:#A90000; stroke-width:0.1524; stroke-opacity:1; 
stroke-linecap:round; stroke-linejoin:round;">
<text x="6.5532" y="33.7346"
textLength="2.6222" font-size="1.6933" lengthAdjust="spacingAndGlyphs"
text-anchor="middle" opacity="0" stroke-opacity="0">11</text>
<g class="stroked-text"><desc>11</desc>
<path d="M6.3113 33.5711
L5.5856 33.5711
" />
<path d="M5.9484 33.5711
L5.9484 32.3011
" />
<path d="M5.9484 32.3011
L5.8275 32.4826
" />
<path d="M5.8275 32.4826
L5.7065 32.6035
" />
<path d="M5.7065 32.6035
L5.5856 32.6640
" />
<path d="M7.5208 33.5711
L6.7951 33.5711
" />
<path d="M7.1579 33.5711
L7.1579 32.3011
" />
<path d="M7.1579 32.3011
L7.0370 32.4826
" />
<path d="M7.0370 32.4826
L6.9160 32.6035
" />
<path d="M6.9160 32.6035
L6.7951 32.6640
" />
</g></g>
<g style="fill:none; 
stroke:#840000; stroke-width:0.1524; stroke-opacity:1; 
stroke-linecap:round; stroke-linejoin:round;">
<path d="M9.0932 36.5286
L4.0132 36.5286
" />
</g>
<g style="fill:none; 
stroke:#006464; stroke-width:0.1524; stroke-opacity:1; 
stroke-linecap:round; stroke-linejoin:round;">
<text x="10.1092" y="37.1636"
textLength="5.2227" font-size="1.6933" lengthAdjust="spacingAndGlyphs"
text-anchor="start" opacity="0" stroke-opacity="0">9/B5</text>
<g class="stroked-text"><desc>9/B5</desc>
<path d="M10.5722 37.1081
L10.8141 37.1081
" />
<path d="M10.8141 37.1081
L10.9351 37.0477
" />
<path d="M10.9351 37.0477
L10.9955 36.9872
" />
<path d="M10.9955 36.9872
L11.1165 36.8057
" />
<path d="M11.1165 36.8057
L11.1770 36.5638
" />
<path d="M11.1770 36.5638
L11.1770 36.0800
" />
<path d="M11.1770 36.0800
L11.1165 35.9591
" />
<path d="M11.1165 35.9591
L11.0560 35.8986
" />
<path d="M11.0560 35.8986
L10.9351 35.8381
" />
<path d="M10.9351 35.8381
L10.6932 35.8381
" />
<path d="M10.6932 35.8381
L10.5722 35.8986
" />
<path d="M10.5722 35.8986
L10.5117 35.9591
" />
<path d="M10.5117 35.9591
L10.4513 36.0800
" />
<path d="M10.4513 36.0800
L10.4513 36.3824
" />
<path d="M10.4513 36.3824
L10.5117 36.5034
" />
<path d="M10.5117 36.5034
L10.5722 36.5638
" />
<path d="M10.5722 36.5638
L10.6932 36.6243
" />
<path d="M10.6932 36.6243
L10.9351 36.6243
" />
<path d="M10.9351 36.6243
L11.0560 36.5638
" />
<path d="M11.0560 36.5638
L11.1165 36.5034
" />
<path d="M11.1165 36.5034
L11.1770 36.3824
" />
<path d="M12.6284 35.7777
L11.5398 37.4105
" />
<path d="M13.4751 36.4429
L13.6565 36.5034
" />
<path d="M13.6565 36.5034
L13.7170 36.5638
" />
<path d="M13.7170 36.5638
L13.7774 36.6848
" />
<path d="M13.7774 36.6848
L13.7774 36.8662
" />
<path d="M13.7774 36.8662
L13.7170 36.9872
" />
<path d="M13.7170 36.9872
L13.6565 37.0477
" />
<path d="M13.6565 37.0477
L13.5355 37.1081
" />
<path d="M13.5355 37.1081
L13.0517 37.1081
" />
<path d="M13.0517 37.1081
L13.0517 35.8381
" />
<path d="M13.0517 35.8381
L13.4751 35.8381
" />
<path d="M13.4751 35.8381
L13.5960 35.8986
" />
<path d="M13.5960 35.8986
L13.6565 35.9591
" />
<path d="M13.6565 35.9591
L13.7170 36.0800
" />
<path d="M13.7170 36.0800
L13.7170 36.2010
" />
<path d="M13.7170 36.2010
L13.6565 36.3219
" />
<path d="M13.6565 36.3219
L13.5960 36.3824
" />
<path d="M13.5960 36.3824
L13.4751 36.4429
" />
<path d="M13.4751 36.4429
L13.0517 36.4429
" />
<path d="M14.9265 35.8381
L14.3217 35.8381
" />
<path d="M14.3217 35.8381
L14.2613 36.4429
" />
<path d="M14.2613 36.4429
L14.3217 36.3824
" />
<path d="M14.3217 36.3824
L14.4427 36.3219
" />
<path d="M14.4427 36.3219
L14.7451 36.3219
" />
<path d="M14.7451 36.3219
L14.8660 36.3824
" />
<path d="M14.8660 36.3824
L14.9265 36.4429
" />
<path d="M14.9265 36.4429
L14.9870 36.5638
" />
<path d="M14.9870 36.5638
L14.9870 36.8662
" />
<path d="M14.9870 36.8662
L14.9265 36.9872
" />
<path d="M14.9265 36.9872
L14.8660 37.0477
" />
<path d="M14.8660 37.0477
L14.7451 37.1081
" />
<path d="M14.7451 37.1081
L14.4427 37.1081
" />
<path d="M14.4427 37.1081
L14.3217 37.0477
" />
<path d="M14.3217 37.0477
L14.2613 36.9872
" />
</g></g>
<g style="fill:none; 
stroke:#A90000; stroke-width:0.1524; stroke-opacity:1; 
stroke-linecap:round; stroke-linejoin:round;">
<text x="6.5532" y="36.2746"
textLength="2.6222" font-size="1.6933" lengthAdjust="spacingAndGlyphs"
text-anchor="middle" opacity="0" stroke-opacity="0">12</text>
<g class="stroked-text"><desc>12</desc>
<path d="M6.3113 36.1111
L5.5856 36.1111
" />
<path d="M5.9484 36.1111
L5.9484 34.8411
" />
<path d="M5.9484 34.8411
L5.8275 35.0226
" />
<path d="M5.8275 35.0226
L5.7065 35.1435
" />
<path d="M5.7065 35.1435
L5.5856 35.2040
" />
<path d="M6.7951 34.9621
L6.8555 34.9016
" />
<path d="M6.8555 34.9016
L6.9765 34.8411
" />
<path d="M6.9765 34.8411
L7.2789 34.8411
" />
<path d="M7.2789 34.8411
L7.3998 34.9016
" />
<path d="M7.3998 34.9016
L7.4603 34.9621
" />
<path d="M7.4603 34.9621
L7.5208 35.0830
" />
<path d="M7.5208 35.0830
L7.5208 35.2040
" />
<path d="M7.5208 35.2040
L7.4603 35.3854
" />
<path d="M7.4603 35.3854
L6.7346 36.1111
" />
<path d="M6.7346 36.1111
L7.5208 36.1111
" />
</g></g>
<g style="fill:none; 
stroke:#840000; stroke-width:0.1524; stroke-opacity:1; 
stroke-linecap:round; stroke-linejoin:round;">
<path d="M34.4932 8.5886
L39.5732 8.5886
" />
</g>
<g style="fill:none; 
stroke:#006464; stroke-width:0.1524; stroke-opacity:1; 
stroke-linecap:round; stroke-linejoin:round;">
<text x="33.4772" y="9.2236"
textLength="4.0132" font-size="1.6933" lengthAdjust="spacingAndGlyphs"
text-anchor="end" opacity="0" stroke-opacity="0">RAW</text>
<g class="stroked-text"><desc>RAW</desc>
<path d="M30.5950 9.1681
L30.1717 8.5634
" />
<path d="M29.8693 9.1681
L29.8693 7.8981
" />
<path d="M29.8693 7.8981
L30.3531 7.8981
" />
<path d="M30.3531 7.8981
L30.4741 7.9586
" />
<path d="M30.4741 7.9586
L30.5346 8.0191
" />
<path d="M30.5346 8.0191
L30.5950 8.1400
" />
<path d="M30.5950 8.1400
L30.5950 8.3215
" />
<path d="M30.5950 8.3215
L30.5346 8.4424
" />
<path d="M30.5346 8.4424
L30.4741 8.5029
" />
<path d="M30.4741 8.5029
L30.3531 8.5634
" />
<path d="M30.3531 8.5634
L29.8693 8.5634
" />
<path d="M31.0789 8.8053
L31.6836 8.8053
" />
<path d="M30.9579 9.1681
L31.3812 7.8981
" />
<path d="M31.3812 7.8981
L31.8046 9.1681
" />
<path d="M32.1070 7.8981
L32.4094 9.1681
" />
<path d="M32.4094 9.1681
L32.6513 8.2610
" />
<path d="M32.6513 8.2610
L32.8932 9.1681
" />
<path d="M32.8932 9.1681
L33.1956 7.8981
" />
</g></g>
<g style="fill:none; 
stroke:#A90000; stroke-width:0.1524; stroke-opacity:1; 
stroke-linecap:round; stroke-linejoin:round;">
<text x="37.0332" y="8.3346"
textLength="2.6222" font-size="1.6933" lengthAdjust="spacingAndGlyphs"
text-anchor="middle" opacity="0" stroke-opacity="0">24</text>
<g class="stroked-text"><desc>24</desc>
<path d="M36.0656 7.0221
L36.1260 6.9616
" />
<path d="M36.1260 6.9616
L36.2470 6.9011
" />
<path d="M36.2470 6.9011
L36.5494 6.9011
" />
<path d="M36.5494 6.9011
L36.6703 6.9616
" />
<path d="M36.6703 6.9616
L36.7308 7.0221
" />
<path d="M36.7308 7.0221
L36.7913 7.1430
" />
<path d="M36.7913 7.1430
L36.7913 7.2640
" />
<path d="M36.7913 7.2640
L36.7308 7.4454
" />
<path d="M36.7308 7.4454
L36.0051 8.1711
" />
<path d="M36.0051 8.1711
L36.7913 8.1711
" />
<path d="M37.8798 7.3245
L37.8798 8.1711
" />
<path d="M37.5774 6.8407
L37.2751 7.7478
" />
<path d="M37.2751 7.7478
L38.0612 7.7478
" />
</g></g>
<g style="fill:none; 
stroke:#840000; stroke-width:0.1524; stroke-opacity:1; 
stroke-linecap:round; stroke-linejoin:round;">
<path d="M34.4932 11.1286
L39.5732 11.1286
" />
</g>
<g style="fill:none; 
stroke:#006464; stroke-width:0.1524; stroke-opacity:1; 
stroke-linecap:round; stroke-linejoin:round;">
<text x="33.4772" y="11.7636"
textLength="4.0737" font-size="1.6933" lengthAdjust="spacingAndGlyphs"
text-anchor="end" opacity="0" stroke-opacity="0">GND</text>
<g class="stroked-text"><desc>GND</desc>
<path d="M30.4741 10.4986
L30.3531 10.4381
" />
<path d="M30.3531 10.4381
L30.1717 10.4381
" />
<path d="M30.1717 10.4381
L29.9903 10.4986
" />
<path d="M29.9903 10.4986
L29.8693 10.6196
" />
<path d="M29.8693 10.6196
L29.8088 10.7405
" />
<path d="M29.8088 10.7405
L29.7484 10.9824
" />
<path d="M29.7484 10.9824
L29.7484 11.1638
" />
<path d="M29.7484 11.1638
L29.8088 11.4057
" />
<path d="M29.8088 11.4057
L29.8693 11.5267
" />
<path d="M29.8693 11.5267
L29.9903 11.6477
" />
<path d="M29.9903 11.6477
L30.1717 11.7081
" />
<path d="M30.1717 11.7081
L30.2926 11.7081
" />
<path d="M30.2926 11.7081
L30.4741 11.6477
" />
<path d="M30.4741 11.6477
L30.5345 11.5872
" />
<path d="M30.5345 11.5872
L30.5345 11.1638
" />
<path d="M30.5345 11.1638
L30.2926 11.1638
" />
<path d="M31.0788 11.7081
L31.0788 10.4381
" />
<path d="M31.0788 10.4381
L31.8045 11.7081
" />
<path d="M31.8045 11.7081
L31.8045 10.4381
" />
<path d="M32.4093 11.7081
L32.4093 10.4381
" />
<path d="M32.4093 10.4381
L32.7117 10.4381
" />
<path d="M32.7117 10.4381
L32.8931 10.4986
" />
<path d="M32.8931 10.4986
L33.0141 10.6196
" />
<path d="M33.0141 10.6196
L33.0746 10.7405
" />
<path d="M33.0746 10.7405
L33.1350 10.9824
" />
<path d="M33.1350 10.9824
L33.1350 11.1638
" />
<path d="M33.1350 11.1638
L33.0746 11.4057
" />
<path d="M33.0746 11.4057
L33.0141 11.5267
" />
<path d="M33.0141 11.5267
L32.8931 11.6477
" />
<path d="M32.8931 11.6477
L32.7117 11.7081
" />
<path d="M32.7117 11.7081
L32.4093 11.7081
" />
</g></g>
<g style="fill:none; 
stroke:#A90000; stroke-width:0.1524; stroke-opacity:1; 
stroke-linecap:round; stroke-linejoin:round;">
<text x="37.0332" y="10.8746"
textLength="2.6222" font-size="1.6933" lengthAdjust="spacingAndGlyphs"
text-anchor="middle" opacity="0" stroke-opacity="0">23</text>
<g class="stroked-text"><desc>23</desc>
<path d="M36.0656 9.5621
L36.1260 9.5016
" />
<path d="M36.1260 9.5016
L36.2470 9.4411
" />
<path d="M36.2470 9.4411
L36.5494 9.4411
" />
<path d="M36.5494 9.4411
L36.6703 9.5016
" />
<path d="M36.6703 9.5016
L36.7308 9.5621
" />
<path d="M36.7308 9.5621
L36.7913 9.6830
" />
<path d="M36.7913 9.6830
L36.7913 9.8040
" />
<path d="M36.7913 9.8040
L36.7308 9.9854
" />
<path d="M36.7308 9.9854
L36.0051 10.7111
" />
<path d="M36.0051 10.7111
L36.7913 10.7111
" />
<path d="M37.2146 9.4411
L38.0008 9.4411
" />
<path d="M38.0008 9.4411
L37.5774 9.9249
" />
<path d="M37.5774 9.9249
L37.7589 9.9249
" />
<path d="M37.7589 9.9249
L37.8798 9.9854
" />
<path d="M37.8798 9.9854
L37.9403 10.0459
" />
<path d="M37.9403 10.0459
L38.0008 10.1668
" />
<path d="M38.0008 10.1668
L38.0008 10.4692
" />
<path d="M38.0008 10.4692
L37.9403 10.5902
" />
<path d="M37.9403 10.5902
L37.8798 10.6507
" />
<path d="M37.8798 10.6507
L37.7589 10.7111
" />
<path d="M37.7589 10.7111
L37.3960 10.7111
" />
<path d="M37.3960 10.7111
L37.2751 10.6507
" />
<path d="M37.2751 10.6507
L37.2146 10.5902
" />
</g></g>
<g style="fill:none; 
stroke:#840000; stroke-width:0.1524; stroke-opacity:1; 
stroke-linecap:round; stroke-linejoin:round;">
<path d="M34.4932 13.6686
L39.5732 13.6686
" />
</g>
<g style="fill:none; 
stroke:#006464; stroke-width:0.1524; stroke-opacity:1; 
stroke-linecap:round; stroke-linejoin:round;">
<text x="33.4772" y="14.3036"
textLength="3.6503" font-size="1.6933" lengthAdjust="spacingAndGlyphs"
text-anchor="end" opacity="0" stroke-opacity="0">RST</text>
<g class="stroked-text"><desc>RST</desc>
<path d="M30.9579 14.2481
L30.5346 13.6434
" />
<path d="M30.2322 14.2481
L30.2322 12.9781
" />
<path d="M30.2322 12.9781
L30.7160 12.9781
" />
<path d="M30.7160 12.9781
L30.8370 13.0386
" />
<path d="M30.8370 13.0386
L30.8975 13.0991
" />
<path d="M30.8975 13.0991
L30.9579 13.2200
" />
<path d="M30.9579 13.2200
L30.9579 13.4015
" />
<path d="M30.9579 13.4015
L30.8975 13.5224
" />
<path d="M30.8975 13.5224
L30.8370 13.5829
" />
<path d="M30.8370 13.5829
L30.7160 13.6434
" />
<path d="M30.7160 13.6434
L30.2322 13.6434
" />
<path d="M31.4418 14.1877
L31.6232 14.2481
" />
<path d="M31.6232 14.2481
L31.9256 14.2481
" />
<path d="M31.9256 14.2481
L32.0465 14.1877
" />
<path d="M32.0465 14.1877
L32.1070 14.1272
" />
<path d="M32.1070 14.1272
L32.1675 14.0062
" />
<path d="M32.1675 14.0062
L32.1675 13.8853
" />
<path d="M32.1675 13.8853
L32.1070 13.7643
" />
<path d="M32.1070 13.7643
L32.0465 13.7038
" />
<path d="M32.0465 13.7038
L31.9256 13.6434
" />
<path d="M31.9256 13.6434
L31.6837 13.5829
" />
<path d="M31.6837 13.5829
L31.5627 13.5224
" />
<path d="M31.5627 13.5224
L31.5022 13.4619
" />
<path d="M31.5022 13.4619
L31.4418 13.3410
" />
<path d="M31.4418 13.3410
L31.4418 13.2200
" />
<path d="M31.4418 13.2200
L31.5022 13.0991
" />
<path d="M31.5022 13.0991
L31.5627 13.0386
" />
<path d="M31.5627 13.0386
L31.6837 12.9781
" />
<path d="M31.6837 12.9781
L31.9860 12.9781
" />
<path d="M31.9860 12.9781
L32.1675 13.0386
" />
<path d="M32.5303 12.9781
L33.2560 12.9781
" />
<path d="M32.8932 14.2481
L32.8932 12.9781
" />
</g></g>
<g style="fill:none; 
stroke:#A90000; stroke-width:0.1524; stroke-opacity:1; 
stroke-linecap:round; stroke-linejoin:round;">
<text x="37.0332" y="13.4146"
textLength="2.6222" font-size="1.6933" lengthAdjust="spacingAndGlyphs"
text-anchor="middle" opacity="0" stroke-opacity="0">22</text>
<g class="stroked-text"><desc>22</desc>
<path d="M36.0656 12.1021
L36.1260 12.0416
" />
<path d="M36.1260 12.0416
L36.2470 11.9811
" />
<path d="M36.2470 11.9811
L36.5494 11.9811
" />
<path d="M36.5494 11.9811
L36.6703 12.0416
" />
<path d="M36.6703 12.0416
L36.7308 12.1021
" />
<path d="M36.7308 12.1021
L36.7913 12.2230
" />
<path d="M36.7913 12.2230
L36.7913 12.3440
" />
<path d="M36.7913 12.3440
L36.7308 12.5254
" />
<path d="M36.7308 12.5254
L36.0051 13.2511
" />
<path d="M36.0051 13.2511
L36.7913 13.2511
" />
<path d="M37.2751 12.1021
L37.3355 12.0416
" />
<path d="M37.3355 12.0416
L37.4565 11.9811
" />
<path d="M37.4565 11.9811
L37.7589 11.9811
" />
<path d="M37.7589 11.9811
L37.8798 12.0416
" />
<path d="M37.8798 12.0416
L37.9403 12.1021
" />
<path d="M37.9403 12.1021
L38.0008 12.2230
" />
<path d="M38.0008 12.2230
L38.0008 12.3440
" />
<path d="M38.0008 12.3440
L37.9403 12.5254
" />
<path d="M37.9403 12.5254
L37.2146 13.2511
" />
<path d="M37.2146 13.2511
L38.0008 13.2511
" />
</g></g>
<g style="fill:none; 
stroke:#840000; stroke-width:0.1524; stroke-opacity:1; 
stroke-linecap:round; stroke-linejoin:round;">
<path d="M34.4932 16.2086
L39.5732 16.2086
" />
</g>
<g style="fill:none; 
stroke:#006464; stroke-width:0.1524; stroke-opacity:1; 
stroke-linecap:round; stroke-linejoin:round;">
<text x="33.4772" y="16.8436"
textLength="3.8318" font-size="1.6933" lengthAdjust="spacingAndGlyphs"
text-anchor="end" opacity="0" stroke-opacity="0">VCC</text>
<g class="stroked-text"><desc>VCC</desc>
<path d="M29.8693 15.5181
L30.2926 16.7881
" />
<path d="M30.2926 16.7881
L30.7160 15.5181
" />
<path d="M31.8650 16.6672
L31.8046 16.7277
" />
<path d="M31.8046 16.7277
L31.6231 16.7881
" />
<path d="M31.6231 16.7881
L31.5022 16.7881
" />
<path d="M31.5022 16.7881
L31.3208 16.7277
" />
<path d="M31.3208 16.7277
L31.1998 16.6067
" />
<path d="M31.1998 16.6067
L31.1393 16.4857
" />
<path d="M31.1393 16.4857
L31.0789 16.2438
" />
<path d="M31.0789 16.2438
L31.0789 16.0624
" />
<path d="M31.0789 16.0624
L31.1393 15.8205
" />
<path d="M31.1393 15.8205
L31.1998 15.6996
" />
<path d="M31.1998 15.6996
L31.3208 15.5786
" />
<path d="M31.3208 15.5786
L31.5022 15.5181
" />
<path d="M31.5022 15.5181
L31.6231 15.5181
" />
<path d="M31.6231 15.5181
L31.8046 15.5786
" />
<path d="M31.8046 15.5786
L31.8650 15.6391
" />
<path d="M33.1350 16.6672
L33.0746 16.7277
" />
<path d="M33.0746 16.7277
L32.8931 16.7881
" />
<path d="M32.8931 16.7881
L32.7722 16.7881
" />
<path d="M32.7722 16.7881
L32.5908 16.7277
" />
<path d="M32.5908 16.7277
L32.4698 16.6067
" />
<path d="M32.4698 16.6067
L32.4093 16.4857
" />
<path d="M32.4093 16.4857
L32.3489 16.2438
" />
<path d="M32.3489 16.2438
L32.3489 16.0624
" />
<path d="M32.3489 16.0624
L32.4093 15.8205
" />
<path d="M32.4093 15.8205
L32.4698 15.6996
" />
<path d="M32.4698 15.6996
L32.5908 15.5786
" />
<path d="M32.5908 15.5786
L32.7722 15.5181
" />
<path d="M32.7722 15.5181
L32.8931 15.5181
" />
<path d="M32.8931 15.5181
L33.0746 15.5786
" />
<path d="M33.0746 15.5786
L33.1350 15.6391
" />
</g></g>
<g style="fill:none; 
stroke:#A90000; stroke-width:0.1524; stroke-opacity:1; 
stroke-linecap:round; stroke-linejoin:round;">
<text x="37.0332" y="15.9546"
textLength="2.6222" font-size="1.6933" lengthAdjust="spacingAndGlyphs"
text-anchor="middle" opacity="0" stroke-opacity="0">21</text>
<g class="stroked-text"><desc>21</desc>
<path d="M36.0656 14.6421
L36.1260 14.5816
" />
<path d="M36.1260 14.5816
L36.2470 14.5211
" />
<path d="M36.2470 14.5211
L36.5494 14.5211
" />
<path d="M36.5494 14.5211
L36.6703 14.5816
" />
<path d="M36.6703 14.5816
L36.7308 14.6421
" />
<path d="M36.7308 14.6421
L36.7913 14.7630
" />
<path d="M36.7913 14.7630
L36.7913 14.8840
" />
<path d="M36.7913 14.8840
L36.7308 15.0654
" />
<path d="M36.7308 15.0654
L36.0051 15.7911
" />
<path d="M36.0051 15.7911
L36.7913 15.7911
" />
<path d="M38.0008 15.7911
L37.2751 15.7911
" />
<path d="M37.6379 15.7911
L37.6379 14.5211
" />
<path d="M37.6379 14.5211
L37.5170 14.7026
" />
<path d="M37.5170 14.7026
L37.3960 14.8235
" />
<path d="M37.3960 14.8235
L37.2751 14.8840
" />
</g></g>
<g style="fill:none; 
stroke:#840000; stroke-width:0.1524; stroke-opacity:1; 
stroke-linecap:round; stroke-linejoin:round;">
<path d="M34.4932 18.7486
L39.5732 18.7486
" />
</g>
<g style="fill:none; 
stroke:#006464; stroke-width:0.1524; stroke-opacity:1; 
stroke-linecap:round; stroke-linejoin:round;">
<text x="33.4772" y="19.3836"
textLength="6.1299" font-size="1.6933" lengthAdjust="spacingAndGlyphs"
text-anchor="end" opacity="0" stroke-opacity="0">F4/A3</text>
<g class="stroked-text"><desc>F4/A3</desc>
<path d="M28.1760 18.6629
L27.7526 18.6629
" />
<path d="M27.7526 19.3281
L27.7526 18.0581
" />
<path d="M27.7526 18.0581
L28.3574 18.0581
" />
<path d="M29.3855 18.4815
L29.3855 19.3281
" />
<path d="M29.0831 17.9977
L28.7808 18.9048
" />
<path d="M28.7808 18.9048
L29.5669 18.9048
" />
<path d="M30.9579 17.9977
L29.8693 19.6305
" />
<path d="M31.3208 18.9653
L31.9255 18.9653
" />
<path d="M31.1998 19.3281
L31.6231 18.0581
" />
<path d="M31.6231 18.0581
L32.0465 19.3281
" />
<path d="M32.3489 18.0581
L33.1351 18.0581
" />
<path d="M33.1351 18.0581
L32.7117 18.5419
" />
<path d="M32.7117 18.5419
L32.8932 18.5419
" />
<path d="M32.8932 18.5419
L33.0141 18.6024
" />
<path d="M33.0141 18.6024
L33.0746 18.6629
" />
<path d="M33.0746 18.6629
L33.1351 18.7838
" />
<path d="M33.1351 18.7838
L33.1351 19.0862
" />
<path d="M33.1351 19.0862
L33.0746 19.2072
" />
<path d="M33.0746 19.2072
L33.0141 19.2677
" />
<path d="M33.0141 19.2677
L32.8932 19.3281
" />
<path d="M32.8932 19.3281
L32.5303 19.3281
" />
<path d="M32.5303 19.3281
L32.4094 19.2677
" />
<path d="M32.4094 19.2677
L32.3489 19.2072
" />
</g></g>
<g style="fill:none; 
stroke:#A90000; stroke-width:0.1524; stroke-opacity:1; 
stroke-linecap:round; stroke-linejoin:round;">
<text x="37.0332" y="18.4946"
textLength="2.6222" font-size="1.6933" lengthAdjust="spacingAndGlyphs"
text-anchor="middle" opacity="0" stroke-opacity="0">20</text>
<g class="stroked-text"><desc>20</desc>
<path d="M36.0656 17.1821
L36.1260 17.1216
" />
<path d="M36.1260 17.1216
L36.2470 17.0611
" />
<path d="M36.2470 17.0611
L36.5494 17.0611
" />
<path d="M36.5494 17.0611
L36.6703 17.1216
" />
<path d="M36.6703 17.1216
L36.7308 17.1821
" />
<path d="M36.7308 17.1821
L36.7913 17.3030
" />
<path d="M36.7913 17.3030
L36.7913 17.4240
" />
<path d="M36.7913 17.4240
L36.7308 17.6054
" />
<path d="M36.7308 17.6054
L36.0051 18.3311
" />
<path d="M36.0051 18.3311
L36.7913 18.3311
" />
<path d="M37.5774 17.0611
L37.6984 17.0611
" />
<path d="M37.6984 17.0611
L37.8193 17.1216
" />
<path d="M37.8193 17.1216
L37.8798 17.1821
" />
<path d="M37.8798 17.1821
L37.9403 17.3030
" />
<path d="M37.9403 17.3030
L38.0008 17.5449
" />
<path d="M38.0008 17.5449
L38.0008 17.8473
" />
<path d="M38.0008 17.8473
L37.9403 18.0892
" />
<path d="M37.9403 18.0892
L37.8798 18.2102
" />
<path d="M37.8798 18.2102
L37.8193 18.2707
" />
<path d="M37.8193 18.2707
L37.6984 18.3311
" />
<path d="M37.6984 18.3311
L37.5774 18.3311
" />
<path d="M37.5774 18.3311
L37.4565 18.2707
" />
<path d="M37.4565 18.2707
L37.3960 18.2102
" />
<path d="M37.3960 18.2102
L37.3355 18.0892
" />
<path d="M37.3355 18.0892
L37.2751 17.8473
" />
<path d="M37.2751 17.8473
L37.2751 17.5449
" />
<path d="M37.2751 17.5449
L37.3355 17.3030
" />
<path d="M37.3355 17.3030
L37.3960 17.1821
" />
<path d="M37.3960 17.1821
L37.4565 17.1216
" />
<path d="M37.4565 17.1216
L37.5774 17.0611
" />
</g></g>
<g style="fill:none; 
stroke:#840000; stroke-width:0.1524; stroke-opacity:1; 
stroke-linecap:round; stroke-linejoin:round;">
<path d="M34.4932 21.2886
L39.5732 21.2886
" />
</g>
<g style="fill:none; 
stroke:#006464; stroke-width:0.1524; stroke-opacity:1; 
stroke-linecap:round; stroke-linejoin:round;">
<text x="33.4772" y="21.9236"
textLength="6.1299" font-size="1.6933" lengthAdjust="spacingAndGlyphs"
text-anchor="end" opacity="0" stroke-opacity="0">F5/A2</text>
<g class="stroked-text"><desc>F5/A2</desc>
<path d="M28.1760 21.2029
L27.7526 21.2029
" />
<path d="M27.7526 21.8681
L27.7526 20.5981
" />
<path d="M27.7526 20.5981
L28.3574 20.5981
" />
<path d="M29.4460 20.5981
L28.8412 20.5981
" />
<path d="M28.8412 20.5981
L28.7808 21.2029
" />
<path d="M28.7808 21.2029
L28.8412 21.1424
" />
<path d="M28.8412 21.1424
L28.9622 21.0819
" />
<path d="M28.9622 21.0819
L29.2646 21.0819
" />
<path d="M29.2646 21.0819
L29.3855 21.1424
" />
<path d="M29.3855 21.1424
L29.4460 21.2029
" />
<path d="M29.4460 21.2029
L29.5065 21.3238
" />
<path d="M29.5065 21.3238
L29.5065 21.6262
" />
<path d="M29.5065 21.6262
L29.4460 21.7472
" />
<path d="M29.4460 21.7472
L29.3855 21.8077
" />
<path d="M29.3855 21.8077
L29.2646 21.8681
" />
<path d="M29.2646 21.8681
L28.9622 21.8681
" />
<path d="M28.9622 21.8681
L28.8412 21.8077
" />
<path d="M28.8412 21.8077
L28.7808 21.7472
" />
<path d="M30.9579 20.5377
L29.8693 22.1705
" />
<path d="M31.3208 21.5053
L31.9255 21.5053
" />
<path d="M31.1998 21.8681
L31.6231 20.5981
" />
<path d="M31.6231 20.5981
L32.0465 21.8681
" />
<path d="M32.4094 20.7191
L32.4698 20.6586
" />
<path d="M32.4698 20.6586
L32.5908 20.5981
" />
<path d="M32.5908 20.5981
L32.8932 20.5981
" />
<path d="M32.8932 20.5981
L33.0141 20.6586
" />
<path d="M33.0141 20.6586
L33.0746 20.7191
" />
<path d="M33.0746 20.7191
L33.1351 20.8400
" />
<path d="M33.1351 20.8400
L33.1351 20.9610
" />
<path d="M33.1351 20.9610
L33.0746 21.1424
" />
<path d="M33.0746 21.1424
L32.3489 21.8681
" />
<path d="M32.3489 21.8681
L33.1351 21.8681
" />
</g></g>
<g style="fill:none; 
stroke:#A90000; stroke-width:0.1524; stroke-opacity:1; 
stroke-linecap:round; stroke-linejoin:round;">
<text x="37.0332" y="21.0346"
textLength="2.6222" font-size="1.6933" lengthAdjust="spacingAndGlyphs"
text-anchor="middle" opacity="0" stroke-opacity="0">19</text>
<g class="stroked-text"><desc>19</desc>
<path d="M36.7913 20.8711
L36.0656 20.8711
" />
<path d="M36.4284 20.8711
L36.4284 19.6011
" />
<path d="M36.4284 19.6011
L36.3075 19.7826
" />
<path d="M36.3075 19.7826
L36.1865 19.9035
" />
<path d="M36.1865 19.9035
L36.0656 19.9640
" />
<path d="M37.3960 20.8711
L37.6379 20.8711
" />
<path d="M37.6379 20.8711
L37.7589 20.8107
" />
<path d="M37.7589 20.8107
L37.8193 20.7502
" />
<path d="M37.8193 20.7502
L37.9403 20.5687
" />
<path d="M37.9403 20.5687
L38.0008 20.3268
" />
<path d="M38.0008 20.3268
L38.0008 19.8430
" />
<path d="M38.0008 19.8430
L37.9403 19.7221
" />
<path d="M37.9403 19.7221
L37.8798 19.6616
" />
<path d="M37.8798 19.6616
L37.7589 19.6011
" />
<path d="M37.7589 19.6011
L37.5170 19.6011
" />
<path d="M37.5170 19.6011
L37.3960 19.6616
" />
<path d="M37.3960 19.6616
L37.3355 19.7221
" />
<path d="M37.3355 19.7221
L37.2751 19.8430
" />
<path d="M37.2751 19.8430
L37.2751 20.1454
" />
<path d="M37.2751 20.1454
L37.3355 20.2664
" />
<path d="M37.3355 20.2664
L37.3960 20.3268
" />
<path d="M37.3960 20.3268
L37.5170 20.3873
" />
<path d="M37.5170 20.3873
L37.7589 20.3873
" />
<path d="M37.7589 20.3873
L37.8798 20.3268
" />
<path d="M37.8798 20.3268
L37.9403 20.2664
" />
<path d="M37.9403 20.2664
L38.0008 20.1454
" />
</g></g>
<g style="fill:none; 
stroke:#840000; stroke-width:0.1524; stroke-opacity:1; 
stroke-linecap:round; stroke-linejoin:round;">
<path d="M34.4932 23.8286
L39.5732 23.8286
" />
</g>
<g style="fill:none; 
stroke:#006464; stroke-width:0.1524; stroke-opacity:1; 
stroke-linecap:round; stroke-linejoin:round;">
<text x="33.4772" y="24.4636"
textLength="6.1299" font-size="1.6933" lengthAdjust="spacingAndGlyphs"
text-anchor="end" opacity="0" stroke-opacity="0">F6/A1</text>
<g class="stroked-text"><desc>F6/A1</desc>
<path d="M28.1760 23.7429
L27.7526 23.7429
" />
<path d="M27.7526 24.4081
L27.7526 23.1381
" />
<path d="M27.7526 23.1381
L28.3574 23.1381
" />
<path d="M29.3855 23.1381
L29.1436 23.1381
" />
<path d="M29.1436 23.1381
L29.0227 23.1986
" />
<path d="M29.0227 23.1986
L28.9622 23.2591
" />
<path d="M28.9622 23.2591
L28.8412 23.4405
" />
<path d="M28.8412 23.4405
L28.7808 23.6824
" />
<path d="M28.7808 23.6824
L28.7808 24.1662
" />
<path d="M28.7808 24.1662
L28.8412 24.2872
" />
<path d="M28.8412 24.2872
L28.9017 24.3477
" />
<path d="M28.9017 24.3477
L29.0227 24.4081
" />
<path d="M29.0227 24.4081
L29.2646 24.4081
" />
<path d="M29.2646 24.4081
L29.3855 24.3477
" />
<path d="M29.3855 24.3477
L29.4460 24.2872
" />
<path d="M29.4460 24.2872
L29.5065 24.1662
" />
<path d="M29.5065 24.1662
L29.5065 23.8638
" />
<path d="M29.5065 23.8638
L29.4460 23.7429
" />
<path d="M29.4460 23.7429
L29.3855 23.6824
" />
<path d="M29.3855 23.6824
L29.2646 23.6219
" />
<path d="M29.2646 23.6219
L29.0227 23.6219
" />
<path d="M29.0227 23.6219
L28.9017 23.6824
" />
<path d="M28.9017 23.6824
L28.8412 23.7429
" />
<path d="M28.8412 23.7429
L28.7808 23.8638
" />
<path d="M30.9579 23.0777
L29.8693 24.7105
" />
<path d="M31.3208 24.0453
L31.9255 24.0453
" />
<path d="M31.1998 24.4081
L31.6231 23.1381
" />
<path d="M31.6231 23.1381
L32.0465 24.4081
" />
<path d="M33.1351 24.4081
L32.4094 24.4081
" />
<path d="M32.7722 24.4081
L32.7722 23.1381
" />
<path d="M32.7722 23.1381
L32.6513 23.3196
" />
<path d="M32.6513 23.3196
L32.5303 23.4405
" />
<path d="M32.5303 23.4405
L32.4094 23.5010
" />
</g></g>
<g style="fill:none; 
stroke:#A90000; stroke-width:0.1524; stroke-opacity:1; 
stroke-linecap:round; stroke-linejoin:round;">
<text x="37.0332" y="23.5746"
textLength="2.6222" font-size="1.6933" lengthAdjust="spacingAndGlyphs"
text-anchor="middle" opacity="0" stroke-opacity="0">18</text>
<g class="stroked-text"><desc>18</desc>
<path d="M36.7913 23.4111
L36.0656 23.4111
" />
<path d="M36.4284 23.4111
L36.4284 22.1411
" />
<path d="M36.4284 22.1411
L36.3075 22.3226
" />
<path d="M36.3075 22.3226
L36.1865 22.4435
" />
<path d="M36.1865 22.4435
L36.0656 22.5040
" />
<path d="M37.5170 22.6854
L37.3960 22.6249
" />
<path d="M37.3960 22.6249
L37.3355 22.5645
" />
<path d="M37.3355 22.5645
L37.2751 22.4435
" />
<path d="M37.2751 22.4435
L37.2751 22.3830
" />
<path d="M37.2751 22.3830
L37.3355 22.2621
" />
<path d="M37.3355 22.2621
L37.3960 22.2016
" />
<path d="M37.3960 22.2016
L37.5170 22.1411
" />
<path d="M37.5170 22.1411
L37.7589 22.1411
" />
<path d="M37.7589 22.1411
L37.8798 22.2016
" />
<path d="M37.8798 22.2016
L37.9403 22.2621
" />
<path d="M37.9403 22.2621
L38.0008 22.3830
" />
<path d="M38.0008 22.3830
L38.0008 22.4435
" />
<path d="M38.0008 22.4435
L37.9403 22.5645
" />
<path d="M37.9403 22.5645
L37.8798 22.6249
" />
<path d="M37.8798 22.6249
L37.7589 22.6854
" />
<path d="M37.7589 22.6854
L37.5170 22.6854
" />
<path d="M37.5170 22.6854
L37.3960 22.7459
" />
<path d="M37.3960 22.7459
L37.3355 22.8064
" />
<path d="M37.3355 22.8064
L37.2751 22.9273
" />
<path d="M37.2751 22.9273
L37.2751 23.1692
" />
<path d="M37.2751 23.1692
L37.3355 23.2902
" />
<path d="M37.3355 23.2902
L37.3960 23.3507
" />
<path d="M37.3960 23.3507
L37.5170 23.4111
" />
<path d="M37.5170 23.4111
L37.7589 23.4111
" />
<path d="M37.7589 23.4111
L37.8798 23.3507
" />
<path d="M37.8798 23.3507
L37.9403 23.2902
" />
<path d="M37.9403 23.2902
L38.0008 23.1692
" />
<path d="M38.0008 23.1692
L38.0008 22.9273
" />
<path d="M38.0008 22.9273
L37.9403 22.8064
" />
<path d="M37.9403 22.8064
L37.8798 22.7459
" />
<path d="M37.8798 22.7459
L37.7589 22.6854
" />
</g></g>
<g style="fill:none; 
stroke:#840000; stroke-width:0.1524; stroke-opacity:1; 
stroke-linecap:round; stroke-linejoin:round;">
<path d="M34.4932 26.3686
L39.5732 26.3686
" />
</g>
<g style="fill:none; 
stroke:#006464; stroke-width:0.1524; stroke-opacity:1; 
stroke-linecap:round; stroke-linejoin:round;">
<text x="33.4772" y="27.0036"
textLength="6.1299" font-size="1.6933" lengthAdjust="spacingAndGlyphs"
text-anchor="end" opacity="0" stroke-opacity="0">F7/A0</text>
<g class="stroked-text"><desc>F7/A0</desc>
<path d="M28.1760 26.2829
L27.7526 26.2829
" />
<path d="M27.7526 26.9481
L27.7526 25.6781
" />
<path d="M27.7526 25.6781
L28.3574 25.6781
" />
<path d="M28.7203 25.6781
L29.5669 25.6781
" />
<path d="M29.5669 25.6781
L29.0227 26.9481
" />
<path d="M30.9579 25.6177
L29.8693 27.2505
" />
<path d="M31.3208 26.5853
L31.9255 26.5853
" />
<path d="M31.1998 26.9481
L31.6231 25.6781
" />
<path d="M31.6231 25.6781
L32.0465 26.9481
" />
<path d="M32.7117 25.6781
L32.8327 25.6781
" />
<path d="M32.8327 25.6781
L32.9536 25.7386
" />
<path d="M32.9536 25.7386
L33.0141 25.7991
" />
<path d="M33.0141 25.7991
L33.0746 25.9200
" />
<path d="M33.0746 25.9200
L33.1351 26.1619
" />
<path d="M33.1351 26.1619
L33.1351 26.4643
" />
<path d="M33.1351 26.4643
L33.0746 26.7062
" />
<path d="M33.0746 26.7062
L33.0141 26.8272
" />
<path d="M33.0141 26.8272
L32.9536 26.8877
" />
<path d="M32.9536 26.8877
L32.8327 26.9481
" />
<path d="M32.8327 26.9481
L32.7117 26.9481
" />
<path d="M32.7117 26.9481
L32.5908 26.8877
" />
<path d="M32.5908 26.8877
L32.5303 26.8272
" />
<path d="M32.5303 26.8272
L32.4698 26.7062
" />
<path d="M32.4698 26.7062
L32.4094 26.4643
" />
<path d="M32.4094 26.4643
L32.4094 26.1619
" />
<path d="M32.4094 26.1619
L32.4698 25.9200
" />
<path d="M32.4698 25.9200
L32.5303 25.7991
" />
<path d="M32.5303 25.7991
L32.5908 25.7386
" />
<path d="M32.5908 25.7386
L32.7117 25.6781
" />
</g></g>
<g style="fill:none; 
stroke:#A90000; stroke-width:0.1524; stroke-opacity:1; 
stroke-linecap:round; stroke-linejoin:round;">
<text x="37.0332" y="26.1146"
textLength="2.6222" font-size="1.6933" lengthAdjust="spacingAndGlyphs"
text-anchor="middle" opacity="0" stroke-opacity="0">17</text>
<g class="stroked-text"><desc>17</desc>
<path d="M36.7913 25.9511
L36.0656 25.9511
" />
<path d="M36.4284 25.9511
L36.4284 24.6811
" />
<path d="M36.4284 24.6811
L36.3075 24.8626
" />
<path d="M36.3075 24.8626
L36.1865 24.9835
" />
<path d="M36.1865 24.9835
L36.0656 25.0440
" />
<path d="M37.2146 24.6811
L38.0612 24.6811
" />
<path d="M38.0612 24.6811
L37.5170 25.9511
" />
</g></g>
<g style="fill:none; 
stroke:#840000; stroke-width:0.1524; stroke-opacity:1; 
stroke-linecap:round; stroke-linejoin:round;">
<path d="M34.4932 28.9086
L39.5732 28.9086
" />
</g>
<g style="fill:none; 
stroke:#006464; stroke-width:0.1524; stroke-opacity:1; 
stroke-linecap:round; stroke-linejoin:round;">
<text x="33.4772" y="29.5436"
textLength="6.4322" font-size="1.6933" lengthAdjust="spacingAndGlyphs"
text-anchor="end" opacity="0" stroke-opacity="0">B1/15</text>
<g class="stroked-text"><desc>B1/15</desc>
<path d="M27.8737 28.8229
L28.0551 28.8834
" />
<path d="M28.0551 28.8834
L28.1156 28.9438
" />
<path d="M28.1156 28.9438
L28.1760 29.0648
" />
<path d="M28.1760 29.0648
L28.1760 29.2462
" />
<path d="M28.1760 29.2462
L28.1156 29.3672
" />
<path d="M28.1156 29.3672
L28.0551 29.4277
" />
<path d="M28.0551 29.4277
L27.9341 29.4881
" />
<path d="M27.9341 29.4881
L27.4503 29.4881
" />
<path d="M27.4503 29.4881
L27.4503 28.2181
" />
<path d="M27.4503 28.2181
L27.8737 28.2181
" />
<path d="M27.8737 28.2181
L27.9946 28.2786
" />
<path d="M27.9946 28.2786
L28.0551 28.3391
" />
<path d="M28.0551 28.3391
L28.1156 28.4600
" />
<path d="M28.1156 28.4600
L28.1156 28.5810
" />
<path d="M28.1156 28.5810
L28.0551 28.7019
" />
<path d="M28.0551 28.7019
L27.9946 28.7624
" />
<path d="M27.9946 28.7624
L27.8737 28.8229
" />
<path d="M27.8737 28.8229
L27.4503 28.8229
" />
<path d="M29.3856 29.4881
L28.6599 29.4881
" />
<path d="M29.0227 29.4881
L29.0227 28.2181
" />
<path d="M29.0227 28.2181
L28.9018 28.3996
" />
<path d="M28.9018 28.3996
L28.7808 28.5205
" />
<path d="M28.7808 28.5205
L28.6599 28.5810
" />
<path d="M30.8370 28.1577
L29.7484 29.7905
" />
<path d="M31.9256 29.4881
L31.1999 29.4881
" />
<path d="M31.5627 29.4881
L31.5627 28.2181
" />
<path d="M31.5627 28.2181
L31.4418 28.3996
" />
<path d="M31.4418 28.3996
L31.3208 28.5205
" />
<path d="M31.3208 28.5205
L31.1999 28.5810
" />
<path d="M33.0746 28.2181
L32.4698 28.2181
" />
<path d="M32.4698 28.2181
L32.4094 28.8229
" />
<path d="M32.4094 28.8229
L32.4698 28.7624
" />
<path d="M32.4698 28.7624
L32.5908 28.7019
" />
<path d="M32.5908 28.7019
L32.8932 28.7019
" />
<path d="M32.8932 28.7019
L33.0141 28.7624
" />
<path d="M33.0141 28.7624
L33.0746 28.8229
" />
<path d="M33.0746 28.8229
L33.1351 28.9438
" />
<path d="M33.1351 28.9438
L33.1351 29.2462
" />
<path d="M33.1351 29.2462
L33.0746 29.3672
" />
<path d="M33.0746 29.3672
L33.0141 29.4277
" />
<path d="M33.0141 29.4277
L32.8932 29.4881
" />
<path d="M32.8932 29.4881
L32.5908 29.4881
" />
<path d="M32.5908 29.4881
L32.4698 29.4277
" />
<path d="M32.4698 29.4277
L32.4094 29.3672
" />
</g></g>
<g style="fill:none; 
stroke:#A90000; stroke-width:0.1524; stroke-opacity:1; 
stroke-linecap:round; stroke-linejoin:round;">
<text x="37.0332" y="28.6546"
textLength="2.6222" font-size="1.6933" lengthAdjust="spacingAndGlyphs"
text-anchor="middle" opacity="0" stroke-opacity="0">16</text>
<g class="stroked-text"><desc>16</desc>
<path d="M36.7913 28.4911
L36.0656 28.4911
" />
<path d="M36.4284 28.4911
L36.4284 27.2211
" />
<path d="M36.4284 27.2211
L36.3075 27.4026
" />
<path d="M36.3075 27.4026
L36.1865 27.5235
" />
<path d="M36.1865 27.5235
L36.0656 27.5840
" />
<path d="M37.8798 27.2211
L37.6379 27.2211
" />
<path d="M37.6379 27.2211
L37.5170 27.2816
" />
<path d="M37.5170 27.2816
L37.4565 27.3421
" />
<path d="M37.4565 27.3421
L37.3355 27.5235
" />
<path d="M37.3355 27.5235
L37.2751 27.7654
" />
<path d="M37.2751 27.7654
L37.2751 28.2492
" />
<path d="M37.2751 28.2492
L37.3355 28.3702
" />
<path d="M37.3355 28.3702
L37.3960 28.4307
" />
<path d="M37.3960 28.4307
L37.5170 28.4911
" />
<path d="M37.5170 28.4911
L37.7589 28.4911
" />
<path d="M37.7589 28.4911
L37.8798 28.4307
" />
<path d="M37.8798 28.4307
L37.9403 28.3702
" />
<path d="M37.9403 28.3702
L38.0008 28.2492
" />
<path d="M38.0008 28.2492
L38.0008 27.9468
" />
<path d="M38.0008 27.9468
L37.9403 27.8259
" />
<path d="M37.9403 27.8259
L37.8798 27.7654
" />
<path d="M37.8798 27.7654
L37.7589 27.7049
" />
<path d="M37.7589 27.7049
L37.5170 27.7049
" />
<path d="M37.5170 27.7049
L37.3960 27.7654
" />
<path d="M37.3960 27.7654
L37.3355 27.8259
" />
<path d="M37.3355 27.8259
L37.2751 27.9468
" />
</g></g>
<g style="fill:none; 
stroke:#840000; stroke-width:0.1524; stroke-opacity:1; 
stroke-linecap:round; stroke-linejoin:round;">
<path d="M34.4932 31.4486
L39.5732 31.4486
" />
</g>
<g style="fill:none; 
stroke:#006464; stroke-width:0.1524; stroke-opacity:1; 
stroke-linecap:round; stroke-linejoin:round;">
<text x="33.4772" y="32.0836"
textLength="6.4322" font-size="1.6933" lengthAdjust="spacingAndGlyphs"
text-anchor="end" opacity="0" stroke-opacity="0">B3/14</text>
<g class="stroked-text"><desc>B3/14</desc>
<path d="M27.8737 31.3629
L28.0551 31.4234
" />
<path d="M28.0551 31.4234
L28.1156 31.4838
" />
<path d="M28.1156 31.4838
L28.1760 31.6048
" />
<path d="M28.1760 31.6048
L28.1760 31.7862
" />
<path d="M28.1760 31.7862
L28.1156 31.9072
" />
<path d="M28.1156 31.9072
L28.0551 31.9677
" />
<path d="M28.0551 31.9677
L27.9341 32.0281
" />
<path d="M27.9341 32.0281
L27.4503 32.0281
" />
<path d="M27.4503 32.0281
L27.4503 30.7581
" />
<path d="M27.4503 30.7581
L27.8737 30.7581
" />
<path d="M27.8737 30.7581
L27.9946 30.8186
" />
<path d="M27.9946 30.8186
L28.0551 30.8791
" />
<path d="M28.0551 30.8791
L28.1156 31.0000
" />
<path d="M28.1156 31.0000
L28.1156 31.1210
" />
<path d="M28.1156 31.1210
L28.0551 31.2419
" />
<path d="M28.0551 31.2419
L27.9946 31.3024
" />
<path d="M27.9946 31.3024
L27.8737 31.3629
" />
<path d="M27.8737 31.3629
L27.4503 31.3629
" />
<path d="M28.5994 30.7581
L29.3856 30.7581
" />
<path d="M29.3856 30.7581
L28.9622 31.2419
" />
<path d="M28.9622 31.2419
L29.1437 31.2419
" />
<path d="M29.1437 31.2419
L29.2646 31.3024
" />
<path d="M29.2646 31.3024
L29.3251 31.3629
" />
<path d="M29.3251 31.3629
L29.3856 31.4838
" />
<path d="M29.3856 31.4838
L29.3856 31.7862
" />
<path d="M29.3856 31.7862
L29.3251 31.9072
" />
<path d="M29.3251 31.9072
L29.2646 31.9677
" />
<path d="M29.2646 31.9677
L29.1437 32.0281
" />
<path d="M29.1437 32.0281
L28.7808 32.0281
" />
<path d="M28.7808 32.0281
L28.6599 31.9677
" />
<path d="M28.6599 31.9677
L28.5994 31.9072
" />
<path d="M30.8370 30.6977
L29.7484 32.3305
" />
<path d="M31.9256 32.0281
L31.1999 32.0281
" />
<path d="M31.5627 32.0281
L31.5627 30.7581
" />
<path d="M31.5627 30.7581
L31.4418 30.9396
" />
<path d="M31.4418 30.9396
L31.3208 31.0605
" />
<path d="M31.3208 31.0605
L31.1999 31.1210
" />
<path d="M33.0141 31.1815
L33.0141 32.0281
" />
<path d="M32.7117 30.6977
L32.4094 31.6048
" />
<path d="M32.4094 31.6048
L33.1955 31.6048
" />
</g></g>
<g style="fill:none; 
stroke:#A90000; stroke-width:0.1524; stroke-opacity:1; 
stroke-linecap:round; stroke-linejoin:round;">
<text x="37.0332" y="31.1946"
textLength="2.6222" font-size="1.6933" lengthAdjust="spacingAndGlyphs"
text-anchor="middle" opacity="0" stroke-opacity="0">15</text>
<g class="stroked-text"><desc>15</desc>
<path d="M36.7913 31.0311
L36.0656 31.0311
" />
<path d="M36.4284 31.0311
L36.4284 29.7611
" />
<path d="M36.4284 29.7611
L36.3075 29.9426
" />
<path d="M36.3075 29.9426
L36.1865 30.0635
" />
<path d="M36.1865 30.0635
L36.0656 30.1240
" />
<path d="M37.9403 29.7611
L37.3355 29.7611
" />
<path d="M37.3355 29.7611
L37.2751 30.3659
" />
<path d="M37.2751 30.3659
L37.3355 30.3054
" />
<path d="M37.3355 30.3054
L37.4565 30.2449
" />
<path d="M37.4565 30.2449
L37.7589 30.2449
" />
<path d="M37.7589 30.2449
L37.8798 30.3054
" />
<path d="M37.8798 30.3054
L37.9403 30.3659
" />
<path d="M37.9403 30.3659
L38.0008 30.4868
" />
<path d="M38.0008 30.4868
L38.0008 30.7892
" />
<path d="M38.0008 30.7892
L37.9403 30.9102
" />
<path d="M37.9403 30.9102
L37.8798 30.9707
" />
<path d="M37.8798 30.9707
L37.7589 31.0311
" />
<path d="M37.7589 31.0311
L37.4565 31.0311
" />
<path d="M37.4565 31.0311
L37.3355 30.9707
" />
<path d="M37.3355 30.9707
L37.2751 30.9102
" />
</g></g>
<g style="fill:none; 
stroke:#840000; stroke-width:0.1524; stroke-opacity:1; 
stroke-linecap:round; stroke-linejoin:round;">
<path d="M34.4932 33.9886
L39.5732 33.9886
" />
</g>
<g style="fill:none; 
stroke:#006464; stroke-width:0.1524; stroke-opacity:1; 
stroke-linecap:round; stroke-linejoin:round;">
<text x="33.4772" y="34.6236"
textLength="6.4322" font-size="1.6933" lengthAdjust="spacingAndGlyphs"
text-anchor="end" opacity="0" stroke-opacity="0">B2/16</text>
<g class="stroked-text"><desc>B2/16</desc>
<path d="M27.8737 33.9029
L28.0551 33.9634
" />
<path d="M28.0551 33.9634
L28.1156 34.0238
" />
<path d="M28.1156 34.0238
L28.1760 34.1448
" />
<path d="M28.1760 34.1448
L28.1760 34.3262
" />
<path d="M28.1760 34.3262
L28.1156 34.4472
" />
<path d="M28.1156 34.4472
L28.0551 34.5077
" />
<path d="M28.0551 34.5077
L27.9341 34.5681
" />
<path d="M27.9341 34.5681
L27.4503 34.5681
" />
<path d="M27.4503 34.5681
L27.4503 33.2981
" />
<path d="M27.4503 33.2981
L27.8737 33.2981
" />
<path d="M27.8737 33.2981
L27.9946 33.3586
" />
<path d="M27.9946 33.3586
L28.0551 33.4191
" />
<path d="M28.0551 33.4191
L28.1156 33.5400
" />
<path d="M28.1156 33.5400
L28.1156 33.6610
" />
<path d="M28.1156 33.6610
L28.0551 33.7819
" />
<path d="M28.0551 33.7819
L27.9946 33.8424
" />
<path d="M27.9946 33.8424
L27.8737 33.9029
" />
<path d="M27.8737 33.9029
L27.4503 33.9029
" />
<path d="M28.6599 33.4191
L28.7203 33.3586
" />
<path d="M28.7203 33.3586
L28.8413 33.2981
" />
<path d="M28.8413 33.2981
L29.1437 33.2981
" />
<path d="M29.1437 33.2981
L29.2646 33.3586
" />
<path d="M29.2646 33.3586
L29.3251 33.4191
" />
<path d="M29.3251 33.4191
L29.3856 33.5400
" />
<path d="M29.3856 33.5400
L29.3856 33.6610
" />
<path d="M29.3856 33.6610
L29.3251 33.8424
" />
<path d="M29.3251 33.8424
L28.5994 34.5681
" />
<path d="M28.5994 34.5681
L29.3856 34.5681
" />
<path d="M30.8370 33.2377
L29.7484 34.8705
" />
<path d="M31.9256 34.5681
L31.1999 34.5681
" />
<path d="M31.5627 34.5681
L31.5627 33.2981
" />
<path d="M31.5627 33.2981
L31.4418 33.4796
" />
<path d="M31.4418 33.4796
L31.3208 33.6005
" />
<path d="M31.3208 33.6005
L31.1999 33.6610
" />
<path d="M33.0141 33.2981
L32.7722 33.2981
" />
<path d="M32.7722 33.2981
L32.6513 33.3586
" />
<path d="M32.6513 33.3586
L32.5908 33.4191
" />
<path d="M32.5908 33.4191
L32.4698 33.6005
" />
<path d="M32.4698 33.6005
L32.4094 33.8424
" />
<path d="M32.4094 33.8424
L32.4094 34.3262
" />
<path d="M32.4094 34.3262
L32.4698 34.4472
" />
<path d="M32.4698 34.4472
L32.5303 34.5077
" />
<path d="M32.5303 34.5077
L32.6513 34.5681
" />
<path d="M32.6513 34.5681
L32.8932 34.5681
" />
<path d="M32.8932 34.5681
L33.0141 34.5077
" />
<path d="M33.0141 34.5077
L33.0746 34.4472
" />
<path d="M33.0746 34.4472
L33.1351 34.3262
" />
<path d="M33.1351 34.3262
L33.1351 34.0238
" />
<path d="M33.1351 34.0238
L33.0746 33.9029
" />
<path d="M33.0746 33.9029
L33.0141 33.8424
" />
<path d="M33.0141 33.8424
L32.8932 33.7819
" />
<path d="M32.8932 33.7819
L32.6513 33.7819
" />
<path d="M32.6513 33.7819
L32.5303 33.8424
" />
<path d="M32.5303 33.8424
L32.4698 33.9029
" />
<path d="M32.4698 33.9029
L32.4094 34.0238
" />
</g></g>
<g style="fill:none; 
stroke:#A90000; stroke-width:0.1524; stroke-opacity:1; 
stroke-linecap:round; stroke-linejoin:round;">
<text x="37.0332" y="33.7346"
textLength="2.6222" font-size="1.6933" lengthAdjust="spacingAndGlyphs"
text-anchor="middle" opacity="0" stroke-opacity="0">14</text>
<g class="stroked-text"><desc>14</desc>
<path d="M36.7913 33.5711
L36.0656 33.5711
" />
<path d="M36.4284 33.5711
L36.4284 32.3011
" />
<path d="M36.4284 32.3011
L36.3075 32.4826
" />
<path d="M36.3075 32.4826
L36.1865 32.6035
" />
<path d="M36.1865 32.6035
L36.0656 32.6640
" />
<path d="M37.8798 32.7245
L37.8798 33.5711
" />
<path d="M37.5774 32.2407
L37.2751 33.1478
" />
<path d="M37.2751 33.1478
L38.0612 33.1478
" />
</g></g>
<g style="fill:none; 
stroke:#840000; stroke-width:0.1524; stroke-opacity:1; 
stroke-linecap:round; stroke-linejoin:round;">
<path d="M34.4932 36.5286
L39.5732 36.5286
" />
</g>
<g style="fill:none; 
stroke:#006464; stroke-width:0.1524; stroke-opacity:1; 
stroke-linecap:round; stroke-linejoin:round;">
<text x="33.4772" y="37.1636"
textLength="6.4322" font-size="1.6933" lengthAdjust="spacingAndGlyphs"
text-anchor="end" opacity="0" stroke-opacity="0">B6/10</text>
<g class="stroked-text"><desc>B6/10</desc>
<path d="M27.8737 36.4429
L28.0551 36.5034
" />
<path d="M28.0551 36.5034
L28.1156 36.5638
" />
<path d="M28.1156 36.5638
L28.1760 36.6848
" />
<path d="M28.1760 36.6848
L28.1760 36.8662
" />
<path d="M28.1760 36.8662
L28.1156 36.9872
" />
<path d="M28.1156 36.9872
L28.0551 37.0477
" />
<path d="M28.0551 37.0477
L27.9341 37.1081
" />
<path d="M27.9341 37.1081
L27.4503 37.1081
" />
<path d="M27.4503 37.1081
L27.4503 35.8381
" />
<path d="M27.4503 35.8381
L27.8737 35.8381
" />
<path d="M27.8737 35.8381
L27.9946 35.8986
" />
<path d="M27.9946 35.8986
L28.0551 35.9591
" />
<path d="M28.0551 35.9591
L28.1156 36.0800
" />
<path d="M28.1156 36.0800
L28.1156 36.2010
" />
<path d="M28.1156 36.2010
L28.0551 36.3219
" />
<path d="M28.0551 36.3219
L27.9946 36.3824
" />
<path d="M27.9946 36.3824
L27.8737 36.4429
" />
<path d="M27.8737 36.4429
L27.4503 36.4429
" />
<path d="M29.2646 35.8381
L29.0227 35.8381
" />
<path d="M29.0227 35.8381
L28.9018 35.8986
" />
<path d="M28.9018 35.8986
L28.8413 35.9591
" />
<path d="M28.8413 35.9591
L28.7203 36.1405
" />
<path d="M28.7203 36.1405
L28.6599 36.3824
" />
<path d="M28.6599 36.3824
L28.6599 36.8662
" />
<path d="M28.6599 36.8662
L28.7203 36.9872
" />
<path d="M28.7203 36.9872
L28.7808 37.0477
" />
<path d="M28.7808 37.0477
L28.9018 37.1081
" />
<path d="M28.9018 37.1081
L29.1437 37.1081
" />
<path d="M29.1437 37.1081
L29.2646 37.0477
" />
<path d="M29.2646 37.0477
L29.3251 36.9872
" />
<path d="M29.3251 36.9872
L29.3856 36.8662
" />
<path d="M29.3856 36.8662
L29.3856 36.5638
" />
<path d="M29.3856 36.5638
L29.3251 36.4429
" />
<path d="M29.3251 36.4429
L29.2646 36.3824
" />
<path d="M29.2646 36.3824
L29.1437 36.3219
" />
<path d="M29.1437 36.3219
L28.9018 36.3219
" />
<path d="M28.9018 36.3219
L28.7808 36.3824
" />
<path d="M28.7808 36.3824
L28.7203 36.4429
" />
<path d="M28.7203 36.4429
L28.6599 36.5638
" />
<path d="M30.8370 35.7777
L29.7484 37.4105
" />
<path d="M31.9256 37.1081
L31.1999 37.1081
" />
<path d="M31.5627 37.1081
L31.5627 35.8381
" />
<path d="M31.5627 35.8381
L31.4418 36.0196
" />
<path d="M31.4418 36.0196
L31.3208 36.1405
" />
<path d="M31.3208 36.1405
L31.1999 36.2010
" />
<path d="M32.7117 35.8381
L32.8327 35.8381
" />
<path d="M32.8327 35.8381
L32.9536 35.8986
" />
<path d="M32.9536 35.8986
L33.0141 35.9591
" />
<path d="M33.0141 35.9591
L33.0746 36.0800
" />
<path d="M33.0746 36.0800
L33.1351 36.3219
" />
<path d="M33.1351 36.3219
L33.1351 36.6243
" />
<path d="M33.1351 36.6243
L33.0746 36.8662
" />
<path d="M33.0746 36.8662
L33.0141 36.9872
" />
<path d="M33.0141 36.9872
L32.9536 37.0477
" />
<path d="M32.9536 37.0477
L32.8327 37.1081
" />
<path d="M32.8327 37.1081
L32.7117 37.1081
" />
<path d="M32.7117 37.1081
L32.5908 37.0477
" />
<path d="M32.5908 37.0477
L32.5303 36.9872
" />
<path d="M32.5303 36.9872
L32.4698 36.8662
" />
<path d="M32.4698 36.8662
L32.4094 36.6243
" />
<path d="M32.4094 36.6243
L32.4094 36.3219
" />
<path d="M32.4094 36.3219
L32.4698 36.0800
" />
<path d="M32.4698 36.0800
L32.5303 35.9591
" />
<path d="M32.5303 35.9591
L32.5908 35.8986
" />
<path d="M32.5908 35.8986
L32.7117 35.8381
" />
</g></g>
<g style="fill:none; 
stroke:#A90000; stroke-width:0.1524; stroke-opacity:1; 
stroke-linecap:round; stroke-linejoin:round;">
<text x="37.0332" y="36.2746"
textLength="2.6222" font-size="1.6933" lengthAdjust="spacingAndGlyphs"
text-anchor="middle" opacity="0" stroke-opacity="0">13</text>
<g class="stroked-text"><desc>13</desc>
<path d="M36.7913 36.1111
L36.0656 36.1111
" />
<path d="M36.4284 36.1111
L36.4284 34.8411
" />
<path d="M36.4284 34.8411
L36.3075 35.0226
" />
<path d="M36.3075 35.0226
L36.1865 35.1435
" />
<path d="M36.1865 35.1435
L36.0656 35.2040
" />
<path d="M37.2146 34.8411
L38.0008 34.8411
" />
<path d="M38.0008 34.8411
L37.5774 35.3249
" />
<path d="M37.5774 35.3249
L37.7589 35.3249
" />
<path d="M37.7589 35.3249
L37.8798 35.3854
" />
<path d="M37.8798 35.3854
L37.9403 35.4459
" />
<path d="M37.9403 35.4459
L38.0008 35.5668
" />
<path d="M38.0008 35.5668
L38.0008 35.8692
" />
<path d="M38.0008 35.8692
L37.9403 35.9902
" />
<path d="M37.9403 35.9902
L37.8798 36.0507
" />
<path d="M37.8798 36.0507
L37.7589 36.1111
" />
<path d="M37.7589 36.1111
L37.3960 36.1111
" />
<path d="M37.3960 36.1111
L37.2751 36.0507
" />
<path d="M37.2751 36.0507
L37.2146 35.9902
" />
</g></g>
<g style="fill:none; 
stroke:#006464; stroke-width:0.1524; stroke-opacity:1; 
stroke-linecap:round; stroke-linejoin:round;">
<text x="12.1920" y="-15.7700"
textLength="3.0553" font-size="2.0320" lengthAdjust="spacingAndGlyphs"
text-anchor="middle" opacity="0" stroke-opacity="0">U?</text>
<g class="stroked-text"><desc>U?</desc>
<path d="M11.1034 -17.3589
L11.1034 -16.1252
" />
<path d="M11.1034 -16.1252
L11.1760 -15.9800
" />
<path d="M11.1760 -15.9800
L11.2486 -15.9075
" />
<path d="M11.2486 -15.9075
L11.3937 -15.8349
" />
<path d="M11.3937 -15.8349
L11.6840 -15.8349
" />
<path d="M11.6840 -15.8349
L11.8291 -15.9075
" />
<path d="M11.8291 -15.9075
L11.9017 -15.9800
" />
<path d="M11.9017 -15.9800
L11.9743 -16.1252
" />
<path d="M11.9743 -16.1252
L11.9743 -17.3589
" />
<path d="M12.9177 -15.9800
L12.9903 -15.9075
" />
<path d="M12.9903 -15.9075
L12.9177 -15.8349
" />
<path d="M12.9177 -15.8349
L12.8452 -15.9075
" />
<path d="M12.8452 -15.9075
L12.9177 -15.9800
" />
<path d="M12.9177 -15.9800
L12.9177 -15.8349
" />
<path d="M12.6274 -17.2863
L12.7726 -17.3589
" />
<path d="M12.7726 -17.3589
L13.1354 -17.3589
" />
<path d="M13.1354 -17.3589
L13.2806 -17.2863
" />
<path d="M13.2806 -17.2863
L13.3532 -17.1412
" />
<path d="M13.3532 -17.1412
L13.3532 -16.9960
" />
<path d="M13.3532 -16.9960
L13.2806 -16.8509
" />
<path d="M13.2806 -16.8509
L13.2080 -16.7783
" />
<path d="M13.2080 -16.7783
L13.0629 -16.7057
" />
<path d="M13.0629 -16.7057
L12.9903 -16.6332
" />
<path d="M12.9903 -16.6332
L12.9177 -16.4880
" />
<path d="M12.9177 -16.4880
L12.9177 -16.4155
" />
</g></g> 
</svg>
