<?xml version="1.0" standalone="no"?>
 <!DOCTYPE svg PUBLIC "-//W3C//DTD SVG 1.1//EN" 
 "http://www.w3.org/Graphics/SVG/1.1/DTD/svg11.dtd"> 
<svg
  xmlns:svg="http://www.w3.org/2000/svg"
  xmlns="http://www.w3.org/2000/svg"
  xmlns:xlink="http://www.w3.org/1999/xlink"
  version="1.1"
  width="37.4904mm" height="41.3004mm" viewBox="0.0000 0.0000 37.4904 41.3004">
<title>SVG Image created as U_Zero_RP2040_unit1.svg date 2025/08/14 19:40:30 </title>
  <desc>Image generated by Eeschema-SVG </desc>
<g style="fill:#000000; fill-opacity:1.0000;stroke:#000000; stroke-opacity:1.0000;
stroke-linecap:round; stroke-linejoin:round;"
 transform="translate(0 0) scale(1 1)">
</g>
<g style="fill:#FFFFC2; fill-opacity:1.0000; stroke:none;">
<rect x="6.045200" y="5.730500" width="25.400000" height="29.210000" rx="0.000000" />
</g>
<g style="fill:none; 
stroke:#840000; stroke-width:0.1524; stroke-opacity:1; 
stroke-linecap:round; stroke-linejoin:round;">
<rect x="6.045200" y="5.730500" width="25.400000" height="29.210000" rx="0.000000" />
<path d="M6.0452 8.2705
L3.5052 8.2705
" />
</g>
<g style="fill:none; 
stroke:#006464; stroke-width:0.1524; stroke-opacity:1; 
stroke-linecap:round; stroke-linejoin:round;">
<text x="6.5532" y="8.9055"
textLength="2.5013" font-size="1.6933" lengthAdjust="spacingAndGlyphs"
text-anchor="start" opacity="0" stroke-opacity="0">5V</text>
<g class="stroked-text"><desc>5V</desc>
<path d="M7.5605 7.5800
L6.9557 7.5800
" />
<path d="M6.9557 7.5800
L6.8953 8.1848
" />
<path d="M6.8953 8.1848
L6.9557 8.1243
" />
<path d="M6.9557 8.1243
L7.0767 8.0638
" />
<path d="M7.0767 8.0638
L7.3791 8.0638
" />
<path d="M7.3791 8.0638
L7.5000 8.1243
" />
<path d="M7.5000 8.1243
L7.5605 8.1848
" />
<path d="M7.5605 8.1848
L7.6210 8.3057
" />
<path d="M7.6210 8.3057
L7.6210 8.6081
" />
<path d="M7.6210 8.6081
L7.5605 8.7291
" />
<path d="M7.5605 8.7291
L7.5000 8.7896
" />
<path d="M7.5000 8.7896
L7.3791 8.8500
" />
<path d="M7.3791 8.8500
L7.0767 8.8500
" />
<path d="M7.0767 8.8500
L6.9557 8.7896
" />
<path d="M6.9557 8.7896
L6.8953 8.7291
" />
<path d="M7.9838 7.5800
L8.4071 8.8500
" />
<path d="M8.4071 8.8500
L8.8305 7.5800
" />
</g></g>
<g style="fill:none; 
stroke:#A90000; stroke-width:0.1524; stroke-opacity:1; 
stroke-linecap:round; stroke-linejoin:round;">
<text x="4.7752" y="8.0165"
textLength="1.4127" font-size="1.6933" lengthAdjust="spacingAndGlyphs"
text-anchor="middle" opacity="0" stroke-opacity="0">1</text>
<g class="stroked-text"><desc>1</desc>
<path d="M5.1381 7.8530
L4.4124 7.8530
" />
<path d="M4.7752 7.8530
L4.7752 6.5830
" />
<path d="M4.7752 6.5830
L4.6543 6.7645
" />
<path d="M4.6543 6.7645
L4.5333 6.8854
" />
<path d="M4.5333 6.8854
L4.4124 6.9459
" />
</g></g>
<g style="fill:none; 
stroke:#840000; stroke-width:0.1524; stroke-opacity:1; 
stroke-linecap:round; stroke-linejoin:round;">
<path d="M6.0452 10.8105
L3.5052 10.8105
" />
</g>
<g style="fill:none; 
stroke:#006464; stroke-width:0.1524; stroke-opacity:1; 
stroke-linecap:round; stroke-linejoin:round;">
<text x="6.5532" y="11.4455"
textLength="4.0737" font-size="1.6933" lengthAdjust="spacingAndGlyphs"
text-anchor="start" opacity="0" stroke-opacity="0">GND</text>
<g class="stroked-text"><desc>GND</desc>
<path d="M7.6210 10.1805
L7.5000 10.1200
" />
<path d="M7.5000 10.1200
L7.3186 10.1200
" />
<path d="M7.3186 10.1200
L7.1372 10.1805
" />
<path d="M7.1372 10.1805
L7.0162 10.3015
" />
<path d="M7.0162 10.3015
L6.9557 10.4224
" />
<path d="M6.9557 10.4224
L6.8953 10.6643
" />
<path d="M6.8953 10.6643
L6.8953 10.8457
" />
<path d="M6.8953 10.8457
L6.9557 11.0876
" />
<path d="M6.9557 11.0876
L7.0162 11.2086
" />
<path d="M7.0162 11.2086
L7.1372 11.3296
" />
<path d="M7.1372 11.3296
L7.3186 11.3900
" />
<path d="M7.3186 11.3900
L7.4395 11.3900
" />
<path d="M7.4395 11.3900
L7.6210 11.3296
" />
<path d="M7.6210 11.3296
L7.6814 11.2691
" />
<path d="M7.6814 11.2691
L7.6814 10.8457
" />
<path d="M7.6814 10.8457
L7.4395 10.8457
" />
<path d="M8.2257 11.3900
L8.2257 10.1200
" />
<path d="M8.2257 10.1200
L8.9514 11.3900
" />
<path d="M8.9514 11.3900
L8.9514 10.1200
" />
<path d="M9.5562 11.3900
L9.5562 10.1200
" />
<path d="M9.5562 10.1200
L9.8586 10.1200
" />
<path d="M9.8586 10.1200
L10.0400 10.1805
" />
<path d="M10.0400 10.1805
L10.1610 10.3015
" />
<path d="M10.1610 10.3015
L10.2215 10.4224
" />
<path d="M10.2215 10.4224
L10.2819 10.6643
" />
<path d="M10.2819 10.6643
L10.2819 10.8457
" />
<path d="M10.2819 10.8457
L10.2215 11.0876
" />
<path d="M10.2215 11.0876
L10.1610 11.2086
" />
<path d="M10.1610 11.2086
L10.0400 11.3296
" />
<path d="M10.0400 11.3296
L9.8586 11.3900
" />
<path d="M9.8586 11.3900
L9.5562 11.3900
" />
</g></g>
<g style="fill:none; 
stroke:#A90000; stroke-width:0.1524; stroke-opacity:1; 
stroke-linecap:round; stroke-linejoin:round;">
<text x="4.7752" y="10.5565"
textLength="1.4127" font-size="1.6933" lengthAdjust="spacingAndGlyphs"
text-anchor="middle" opacity="0" stroke-opacity="0">2</text>
<g class="stroked-text"><desc>2</desc>
<path d="M4.4124 9.2440
L4.4728 9.1835
" />
<path d="M4.4728 9.1835
L4.5938 9.1230
" />
<path d="M4.5938 9.1230
L4.8962 9.1230
" />
<path d="M4.8962 9.1230
L5.0171 9.1835
" />
<path d="M5.0171 9.1835
L5.0776 9.2440
" />
<path d="M5.0776 9.2440
L5.1381 9.3649
" />
<path d="M5.1381 9.3649
L5.1381 9.4859
" />
<path d="M5.1381 9.4859
L5.0776 9.6673
" />
<path d="M5.0776 9.6673
L4.3519 10.3930
" />
<path d="M4.3519 10.3930
L5.1381 10.3930
" />
</g></g>
<g style="fill:none; 
stroke:#840000; stroke-width:0.1524; stroke-opacity:1; 
stroke-linecap:round; stroke-linejoin:round;">
<path d="M6.0452 13.3505
L3.5052 13.3505
" />
</g>
<g style="fill:none; 
stroke:#006464; stroke-width:0.1524; stroke-opacity:1; 
stroke-linecap:round; stroke-linejoin:round;">
<text x="6.5532" y="13.9855"
textLength="3.7108" font-size="1.6933" lengthAdjust="spacingAndGlyphs"
text-anchor="start" opacity="0" stroke-opacity="0">3V3</text>
<g class="stroked-text"><desc>3V3</desc>
<path d="M6.8348 12.6600
L7.6210 12.6600
" />
<path d="M7.6210 12.6600
L7.1976 13.1438
" />
<path d="M7.1976 13.1438
L7.3791 13.1438
" />
<path d="M7.3791 13.1438
L7.5000 13.2043
" />
<path d="M7.5000 13.2043
L7.5605 13.2648
" />
<path d="M7.5605 13.2648
L7.6210 13.3857
" />
<path d="M7.6210 13.3857
L7.6210 13.6881
" />
<path d="M7.6210 13.6881
L7.5605 13.8091
" />
<path d="M7.5605 13.8091
L7.5000 13.8696
" />
<path d="M7.5000 13.8696
L7.3791 13.9300
" />
<path d="M7.3791 13.9300
L7.0162 13.9300
" />
<path d="M7.0162 13.9300
L6.8953 13.8696
" />
<path d="M6.8953 13.8696
L6.8348 13.8091
" />
<path d="M7.9838 12.6600
L8.4071 13.9300
" />
<path d="M8.4071 13.9300
L8.8305 12.6600
" />
<path d="M9.1329 12.6600
L9.9191 12.6600
" />
<path d="M9.9191 12.6600
L9.4957 13.1438
" />
<path d="M9.4957 13.1438
L9.6772 13.1438
" />
<path d="M9.6772 13.1438
L9.7981 13.2043
" />
<path d="M9.7981 13.2043
L9.8586 13.2648
" />
<path d="M9.8586 13.2648
L9.9191 13.3857
" />
<path d="M9.9191 13.3857
L9.9191 13.6881
" />
<path d="M9.9191 13.6881
L9.8586 13.8091
" />
<path d="M9.8586 13.8091
L9.7981 13.8696
" />
<path d="M9.7981 13.8696
L9.6772 13.9300
" />
<path d="M9.6772 13.9300
L9.3143 13.9300
" />
<path d="M9.3143 13.9300
L9.1934 13.8696
" />
<path d="M9.1934 13.8696
L9.1329 13.8091
" />
</g></g>
<g style="fill:none; 
stroke:#A90000; stroke-width:0.1524; stroke-opacity:1; 
stroke-linecap:round; stroke-linejoin:round;">
<text x="4.7752" y="13.0965"
textLength="1.4127" font-size="1.6933" lengthAdjust="spacingAndGlyphs"
text-anchor="middle" opacity="0" stroke-opacity="0">3</text>
<g class="stroked-text"><desc>3</desc>
<path d="M4.3519 11.6630
L5.1381 11.6630
" />
<path d="M5.1381 11.6630
L4.7147 12.1468
" />
<path d="M4.7147 12.1468
L4.8962 12.1468
" />
<path d="M4.8962 12.1468
L5.0171 12.2073
" />
<path d="M5.0171 12.2073
L5.0776 12.2678
" />
<path d="M5.0776 12.2678
L5.1381 12.3887
" />
<path d="M5.1381 12.3887
L5.1381 12.6911
" />
<path d="M5.1381 12.6911
L5.0776 12.8121
" />
<path d="M5.0776 12.8121
L5.0171 12.8726
" />
<path d="M5.0171 12.8726
L4.8962 12.9330
" />
<path d="M4.8962 12.9330
L4.5333 12.9330
" />
<path d="M4.5333 12.9330
L4.4124 12.8726
" />
<path d="M4.4124 12.8726
L4.3519 12.8121
" />
</g></g>
<g style="fill:none; 
stroke:#840000; stroke-width:0.1524; stroke-opacity:1; 
stroke-linecap:round; stroke-linejoin:round;">
<path d="M6.0452 15.8905
L3.5052 15.8905
" />
</g>
<g style="fill:none; 
stroke:#006464; stroke-width:0.1524; stroke-opacity:1; 
stroke-linecap:round; stroke-linejoin:round;">
<text x="6.5532" y="16.5255"
textLength="5.1622" font-size="1.6933" lengthAdjust="spacingAndGlyphs"
text-anchor="start" opacity="0" stroke-opacity="0">GP29</text>
<g class="stroked-text"><desc>GP29</desc>
<path d="M7.6210 15.2605
L7.5000 15.2000
" />
<path d="M7.5000 15.2000
L7.3186 15.2000
" />
<path d="M7.3186 15.2000
L7.1372 15.2605
" />
<path d="M7.1372 15.2605
L7.0162 15.3815
" />
<path d="M7.0162 15.3815
L6.9557 15.5024
" />
<path d="M6.9557 15.5024
L6.8953 15.7443
" />
<path d="M6.8953 15.7443
L6.8953 15.9257
" />
<path d="M6.8953 15.9257
L6.9557 16.1676
" />
<path d="M6.9557 16.1676
L7.0162 16.2886
" />
<path d="M7.0162 16.2886
L7.1372 16.4096
" />
<path d="M7.1372 16.4096
L7.3186 16.4700
" />
<path d="M7.3186 16.4700
L7.4395 16.4700
" />
<path d="M7.4395 16.4700
L7.6210 16.4096
" />
<path d="M7.6210 16.4096
L7.6814 16.3491
" />
<path d="M7.6814 16.3491
L7.6814 15.9257
" />
<path d="M7.6814 15.9257
L7.4395 15.9257
" />
<path d="M8.2257 16.4700
L8.2257 15.2000
" />
<path d="M8.2257 15.2000
L8.7095 15.2000
" />
<path d="M8.7095 15.2000
L8.8305 15.2605
" />
<path d="M8.8305 15.2605
L8.8910 15.3210
" />
<path d="M8.8910 15.3210
L8.9514 15.4419
" />
<path d="M8.9514 15.4419
L8.9514 15.6234
" />
<path d="M8.9514 15.6234
L8.8910 15.7443
" />
<path d="M8.8910 15.7443
L8.8305 15.8048
" />
<path d="M8.8305 15.8048
L8.7095 15.8653
" />
<path d="M8.7095 15.8653
L8.2257 15.8653
" />
<path d="M9.4353 15.3210
L9.4957 15.2605
" />
<path d="M9.4957 15.2605
L9.6167 15.2000
" />
<path d="M9.6167 15.2000
L9.9191 15.2000
" />
<path d="M9.9191 15.2000
L10.0400 15.2605
" />
<path d="M10.0400 15.2605
L10.1005 15.3210
" />
<path d="M10.1005 15.3210
L10.1610 15.4419
" />
<path d="M10.1610 15.4419
L10.1610 15.5629
" />
<path d="M10.1610 15.5629
L10.1005 15.7443
" />
<path d="M10.1005 15.7443
L9.3748 16.4700
" />
<path d="M9.3748 16.4700
L10.1610 16.4700
" />
<path d="M10.7657 16.4700
L11.0076 16.4700
" />
<path d="M11.0076 16.4700
L11.1286 16.4096
" />
<path d="M11.1286 16.4096
L11.1890 16.3491
" />
<path d="M11.1890 16.3491
L11.3100 16.1676
" />
<path d="M11.3100 16.1676
L11.3705 15.9257
" />
<path d="M11.3705 15.9257
L11.3705 15.4419
" />
<path d="M11.3705 15.4419
L11.3100 15.3210
" />
<path d="M11.3100 15.3210
L11.2495 15.2605
" />
<path d="M11.2495 15.2605
L11.1286 15.2000
" />
<path d="M11.1286 15.2000
L10.8867 15.2000
" />
<path d="M10.8867 15.2000
L10.7657 15.2605
" />
<path d="M10.7657 15.2605
L10.7052 15.3210
" />
<path d="M10.7052 15.3210
L10.6448 15.4419
" />
<path d="M10.6448 15.4419
L10.6448 15.7443
" />
<path d="M10.6448 15.7443
L10.7052 15.8653
" />
<path d="M10.7052 15.8653
L10.7657 15.9257
" />
<path d="M10.7657 15.9257
L10.8867 15.9862
" />
<path d="M10.8867 15.9862
L11.1286 15.9862
" />
<path d="M11.1286 15.9862
L11.2495 15.9257
" />
<path d="M11.2495 15.9257
L11.3100 15.8653
" />
<path d="M11.3100 15.8653
L11.3705 15.7443
" />
</g></g>
<g style="fill:none; 
stroke:#A90000; stroke-width:0.1524; stroke-opacity:1; 
stroke-linecap:round; stroke-linejoin:round;">
<text x="4.7752" y="15.6365"
textLength="1.4127" font-size="1.6933" lengthAdjust="spacingAndGlyphs"
text-anchor="middle" opacity="0" stroke-opacity="0">4</text>
<g class="stroked-text"><desc>4</desc>
<path d="M5.0171 14.6264
L5.0171 15.4730
" />
<path d="M4.7147 14.1426
L4.4124 15.0497
" />
<path d="M4.4124 15.0497
L5.1985 15.0497
" />
</g></g>
<g style="fill:none; 
stroke:#840000; stroke-width:0.1524; stroke-opacity:1; 
stroke-linecap:round; stroke-linejoin:round;">
<path d="M6.0452 18.4305
L3.5052 18.4305
" />
</g>
<g style="fill:none; 
stroke:#006464; stroke-width:0.1524; stroke-opacity:1; 
stroke-linecap:round; stroke-linejoin:round;">
<text x="6.5532" y="19.0655"
textLength="5.1622" font-size="1.6933" lengthAdjust="spacingAndGlyphs"
text-anchor="start" opacity="0" stroke-opacity="0">GP28</text>
<g class="stroked-text"><desc>GP28</desc>
<path d="M7.6210 17.8005
L7.5000 17.7400
" />
<path d="M7.5000 17.7400
L7.3186 17.7400
" />
<path d="M7.3186 17.7400
L7.1372 17.8005
" />
<path d="M7.1372 17.8005
L7.0162 17.9215
" />
<path d="M7.0162 17.9215
L6.9557 18.0424
" />
<path d="M6.9557 18.0424
L6.8953 18.2843
" />
<path d="M6.8953 18.2843
L6.8953 18.4657
" />
<path d="M6.8953 18.4657
L6.9557 18.7076
" />
<path d="M6.9557 18.7076
L7.0162 18.8286
" />
<path d="M7.0162 18.8286
L7.1372 18.9496
" />
<path d="M7.1372 18.9496
L7.3186 19.0100
" />
<path d="M7.3186 19.0100
L7.4395 19.0100
" />
<path d="M7.4395 19.0100
L7.6210 18.9496
" />
<path d="M7.6210 18.9496
L7.6814 18.8891
" />
<path d="M7.6814 18.8891
L7.6814 18.4657
" />
<path d="M7.6814 18.4657
L7.4395 18.4657
" />
<path d="M8.2257 19.0100
L8.2257 17.7400
" />
<path d="M8.2257 17.7400
L8.7095 17.7400
" />
<path d="M8.7095 17.7400
L8.8305 17.8005
" />
<path d="M8.8305 17.8005
L8.8910 17.8610
" />
<path d="M8.8910 17.8610
L8.9514 17.9819
" />
<path d="M8.9514 17.9819
L8.9514 18.1634
" />
<path d="M8.9514 18.1634
L8.8910 18.2843
" />
<path d="M8.8910 18.2843
L8.8305 18.3448
" />
<path d="M8.8305 18.3448
L8.7095 18.4053
" />
<path d="M8.7095 18.4053
L8.2257 18.4053
" />
<path d="M9.4353 17.8610
L9.4957 17.8005
" />
<path d="M9.4957 17.8005
L9.6167 17.7400
" />
<path d="M9.6167 17.7400
L9.9191 17.7400
" />
<path d="M9.9191 17.7400
L10.0400 17.8005
" />
<path d="M10.0400 17.8005
L10.1005 17.8610
" />
<path d="M10.1005 17.8610
L10.1610 17.9819
" />
<path d="M10.1610 17.9819
L10.1610 18.1029
" />
<path d="M10.1610 18.1029
L10.1005 18.2843
" />
<path d="M10.1005 18.2843
L9.3748 19.0100
" />
<path d="M9.3748 19.0100
L10.1610 19.0100
" />
<path d="M10.8867 18.2843
L10.7657 18.2238
" />
<path d="M10.7657 18.2238
L10.7052 18.1634
" />
<path d="M10.7052 18.1634
L10.6448 18.0424
" />
<path d="M10.6448 18.0424
L10.6448 17.9819
" />
<path d="M10.6448 17.9819
L10.7052 17.8610
" />
<path d="M10.7052 17.8610
L10.7657 17.8005
" />
<path d="M10.7657 17.8005
L10.8867 17.7400
" />
<path d="M10.8867 17.7400
L11.1286 17.7400
" />
<path d="M11.1286 17.7400
L11.2495 17.8005
" />
<path d="M11.2495 17.8005
L11.3100 17.8610
" />
<path d="M11.3100 17.8610
L11.3705 17.9819
" />
<path d="M11.3705 17.9819
L11.3705 18.0424
" />
<path d="M11.3705 18.0424
L11.3100 18.1634
" />
<path d="M11.3100 18.1634
L11.2495 18.2238
" />
<path d="M11.2495 18.2238
L11.1286 18.2843
" />
<path d="M11.1286 18.2843
L10.8867 18.2843
" />
<path d="M10.8867 18.2843
L10.7657 18.3448
" />
<path d="M10.7657 18.3448
L10.7052 18.4053
" />
<path d="M10.7052 18.4053
L10.6448 18.5262
" />
<path d="M10.6448 18.5262
L10.6448 18.7681
" />
<path d="M10.6448 18.7681
L10.7052 18.8891
" />
<path d="M10.7052 18.8891
L10.7657 18.9496
" />
<path d="M10.7657 18.9496
L10.8867 19.0100
" />
<path d="M10.8867 19.0100
L11.1286 19.0100
" />
<path d="M11.1286 19.0100
L11.2495 18.9496
" />
<path d="M11.2495 18.9496
L11.3100 18.8891
" />
<path d="M11.3100 18.8891
L11.3705 18.7681
" />
<path d="M11.3705 18.7681
L11.3705 18.5262
" />
<path d="M11.3705 18.5262
L11.3100 18.4053
" />
<path d="M11.3100 18.4053
L11.2495 18.3448
" />
<path d="M11.2495 18.3448
L11.1286 18.2843
" />
</g></g>
<g style="fill:none; 
stroke:#A90000; stroke-width:0.1524; stroke-opacity:1; 
stroke-linecap:round; stroke-linejoin:round;">
<text x="4.7752" y="18.1765"
textLength="1.4127" font-size="1.6933" lengthAdjust="spacingAndGlyphs"
text-anchor="middle" opacity="0" stroke-opacity="0">5</text>
<g class="stroked-text"><desc>5</desc>
<path d="M5.0776 16.7430
L4.4728 16.7430
" />
<path d="M4.4728 16.7430
L4.4124 17.3478
" />
<path d="M4.4124 17.3478
L4.4728 17.2873
" />
<path d="M4.4728 17.2873
L4.5938 17.2268
" />
<path d="M4.5938 17.2268
L4.8962 17.2268
" />
<path d="M4.8962 17.2268
L5.0171 17.2873
" />
<path d="M5.0171 17.2873
L5.0776 17.3478
" />
<path d="M5.0776 17.3478
L5.1381 17.4687
" />
<path d="M5.1381 17.4687
L5.1381 17.7711
" />
<path d="M5.1381 17.7711
L5.0776 17.8921
" />
<path d="M5.0776 17.8921
L5.0171 17.9526
" />
<path d="M5.0171 17.9526
L4.8962 18.0130
" />
<path d="M4.8962 18.0130
L4.5938 18.0130
" />
<path d="M4.5938 18.0130
L4.4728 17.9526
" />
<path d="M4.4728 17.9526
L4.4124 17.8921
" />
</g></g>
<g style="fill:none; 
stroke:#840000; stroke-width:0.1524; stroke-opacity:1; 
stroke-linecap:round; stroke-linejoin:round;">
<path d="M6.0452 20.9705
L3.5052 20.9705
" />
</g>
<g style="fill:none; 
stroke:#006464; stroke-width:0.1524; stroke-opacity:1; 
stroke-linecap:round; stroke-linejoin:round;">
<text x="6.5532" y="21.6055"
textLength="5.1622" font-size="1.6933" lengthAdjust="spacingAndGlyphs"
text-anchor="start" opacity="0" stroke-opacity="0">GP27</text>
<g class="stroked-text"><desc>GP27</desc>
<path d="M7.6210 20.3405
L7.5000 20.2800
" />
<path d="M7.5000 20.2800
L7.3186 20.2800
" />
<path d="M7.3186 20.2800
L7.1372 20.3405
" />
<path d="M7.1372 20.3405
L7.0162 20.4615
" />
<path d="M7.0162 20.4615
L6.9557 20.5824
" />
<path d="M6.9557 20.5824
L6.8953 20.8243
" />
<path d="M6.8953 20.8243
L6.8953 21.0057
" />
<path d="M6.8953 21.0057
L6.9557 21.2476
" />
<path d="M6.9557 21.2476
L7.0162 21.3686
" />
<path d="M7.0162 21.3686
L7.1372 21.4896
" />
<path d="M7.1372 21.4896
L7.3186 21.5500
" />
<path d="M7.3186 21.5500
L7.4395 21.5500
" />
<path d="M7.4395 21.5500
L7.6210 21.4896
" />
<path d="M7.6210 21.4896
L7.6814 21.4291
" />
<path d="M7.6814 21.4291
L7.6814 21.0057
" />
<path d="M7.6814 21.0057
L7.4395 21.0057
" />
<path d="M8.2257 21.5500
L8.2257 20.2800
" />
<path d="M8.2257 20.2800
L8.7095 20.2800
" />
<path d="M8.7095 20.2800
L8.8305 20.3405
" />
<path d="M8.8305 20.3405
L8.8910 20.4010
" />
<path d="M8.8910 20.4010
L8.9514 20.5219
" />
<path d="M8.9514 20.5219
L8.9514 20.7034
" />
<path d="M8.9514 20.7034
L8.8910 20.8243
" />
<path d="M8.8910 20.8243
L8.8305 20.8848
" />
<path d="M8.8305 20.8848
L8.7095 20.9453
" />
<path d="M8.7095 20.9453
L8.2257 20.9453
" />
<path d="M9.4353 20.4010
L9.4957 20.3405
" />
<path d="M9.4957 20.3405
L9.6167 20.2800
" />
<path d="M9.6167 20.2800
L9.9191 20.2800
" />
<path d="M9.9191 20.2800
L10.0400 20.3405
" />
<path d="M10.0400 20.3405
L10.1005 20.4010
" />
<path d="M10.1005 20.4010
L10.1610 20.5219
" />
<path d="M10.1610 20.5219
L10.1610 20.6429
" />
<path d="M10.1610 20.6429
L10.1005 20.8243
" />
<path d="M10.1005 20.8243
L9.3748 21.5500
" />
<path d="M9.3748 21.5500
L10.1610 21.5500
" />
<path d="M10.5843 20.2800
L11.4309 20.2800
" />
<path d="M11.4309 20.2800
L10.8867 21.5500
" />
</g></g>
<g style="fill:none; 
stroke:#A90000; stroke-width:0.1524; stroke-opacity:1; 
stroke-linecap:round; stroke-linejoin:round;">
<text x="4.7752" y="20.7165"
textLength="1.4127" font-size="1.6933" lengthAdjust="spacingAndGlyphs"
text-anchor="middle" opacity="0" stroke-opacity="0">6</text>
<g class="stroked-text"><desc>6</desc>
<path d="M5.0171 19.2830
L4.7752 19.2830
" />
<path d="M4.7752 19.2830
L4.6543 19.3435
" />
<path d="M4.6543 19.3435
L4.5938 19.4040
" />
<path d="M4.5938 19.4040
L4.4728 19.5854
" />
<path d="M4.4728 19.5854
L4.4124 19.8273
" />
<path d="M4.4124 19.8273
L4.4124 20.3111
" />
<path d="M4.4124 20.3111
L4.4728 20.4321
" />
<path d="M4.4728 20.4321
L4.5333 20.4926
" />
<path d="M4.5333 20.4926
L4.6543 20.5530
" />
<path d="M4.6543 20.5530
L4.8962 20.5530
" />
<path d="M4.8962 20.5530
L5.0171 20.4926
" />
<path d="M5.0171 20.4926
L5.0776 20.4321
" />
<path d="M5.0776 20.4321
L5.1381 20.3111
" />
<path d="M5.1381 20.3111
L5.1381 20.0087
" />
<path d="M5.1381 20.0087
L5.0776 19.8878
" />
<path d="M5.0776 19.8878
L5.0171 19.8273
" />
<path d="M5.0171 19.8273
L4.8962 19.7668
" />
<path d="M4.8962 19.7668
L4.6543 19.7668
" />
<path d="M4.6543 19.7668
L4.5333 19.8273
" />
<path d="M4.5333 19.8273
L4.4728 19.8878
" />
<path d="M4.4728 19.8878
L4.4124 20.0087
" />
</g></g>
<g style="fill:none; 
stroke:#840000; stroke-width:0.1524; stroke-opacity:1; 
stroke-linecap:round; stroke-linejoin:round;">
<path d="M6.0452 23.5105
L3.5052 23.5105
" />
</g>
<g style="fill:none; 
stroke:#006464; stroke-width:0.1524; stroke-opacity:1; 
stroke-linecap:round; stroke-linejoin:round;">
<text x="6.5532" y="24.1455"
textLength="5.1622" font-size="1.6933" lengthAdjust="spacingAndGlyphs"
text-anchor="start" opacity="0" stroke-opacity="0">GP26</text>
<g class="stroked-text"><desc>GP26</desc>
<path d="M7.6210 22.8805
L7.5000 22.8200
" />
<path d="M7.5000 22.8200
L7.3186 22.8200
" />
<path d="M7.3186 22.8200
L7.1372 22.8805
" />
<path d="M7.1372 22.8805
L7.0162 23.0015
" />
<path d="M7.0162 23.0015
L6.9557 23.1224
" />
<path d="M6.9557 23.1224
L6.8953 23.3643
" />
<path d="M6.8953 23.3643
L6.8953 23.5457
" />
<path d="M6.8953 23.5457
L6.9557 23.7876
" />
<path d="M6.9557 23.7876
L7.0162 23.9086
" />
<path d="M7.0162 23.9086
L7.1372 24.0296
" />
<path d="M7.1372 24.0296
L7.3186 24.0900
" />
<path d="M7.3186 24.0900
L7.4395 24.0900
" />
<path d="M7.4395 24.0900
L7.6210 24.0296
" />
<path d="M7.6210 24.0296
L7.6814 23.9691
" />
<path d="M7.6814 23.9691
L7.6814 23.5457
" />
<path d="M7.6814 23.5457
L7.4395 23.5457
" />
<path d="M8.2257 24.0900
L8.2257 22.8200
" />
<path d="M8.2257 22.8200
L8.7095 22.8200
" />
<path d="M8.7095 22.8200
L8.8305 22.8805
" />
<path d="M8.8305 22.8805
L8.8910 22.9410
" />
<path d="M8.8910 22.9410
L8.9514 23.0619
" />
<path d="M8.9514 23.0619
L8.9514 23.2434
" />
<path d="M8.9514 23.2434
L8.8910 23.3643
" />
<path d="M8.8910 23.3643
L8.8305 23.4248
" />
<path d="M8.8305 23.4248
L8.7095 23.4853
" />
<path d="M8.7095 23.4853
L8.2257 23.4853
" />
<path d="M9.4353 22.9410
L9.4957 22.8805
" />
<path d="M9.4957 22.8805
L9.6167 22.8200
" />
<path d="M9.6167 22.8200
L9.9191 22.8200
" />
<path d="M9.9191 22.8200
L10.0400 22.8805
" />
<path d="M10.0400 22.8805
L10.1005 22.9410
" />
<path d="M10.1005 22.9410
L10.1610 23.0619
" />
<path d="M10.1610 23.0619
L10.1610 23.1829
" />
<path d="M10.1610 23.1829
L10.1005 23.3643
" />
<path d="M10.1005 23.3643
L9.3748 24.0900
" />
<path d="M9.3748 24.0900
L10.1610 24.0900
" />
<path d="M11.2495 22.8200
L11.0076 22.8200
" />
<path d="M11.0076 22.8200
L10.8867 22.8805
" />
<path d="M10.8867 22.8805
L10.8262 22.9410
" />
<path d="M10.8262 22.9410
L10.7052 23.1224
" />
<path d="M10.7052 23.1224
L10.6448 23.3643
" />
<path d="M10.6448 23.3643
L10.6448 23.8481
" />
<path d="M10.6448 23.8481
L10.7052 23.9691
" />
<path d="M10.7052 23.9691
L10.7657 24.0296
" />
<path d="M10.7657 24.0296
L10.8867 24.0900
" />
<path d="M10.8867 24.0900
L11.1286 24.0900
" />
<path d="M11.1286 24.0900
L11.2495 24.0296
" />
<path d="M11.2495 24.0296
L11.3100 23.9691
" />
<path d="M11.3100 23.9691
L11.3705 23.8481
" />
<path d="M11.3705 23.8481
L11.3705 23.5457
" />
<path d="M11.3705 23.5457
L11.3100 23.4248
" />
<path d="M11.3100 23.4248
L11.2495 23.3643
" />
<path d="M11.2495 23.3643
L11.1286 23.3038
" />
<path d="M11.1286 23.3038
L10.8867 23.3038
" />
<path d="M10.8867 23.3038
L10.7657 23.3643
" />
<path d="M10.7657 23.3643
L10.7052 23.4248
" />
<path d="M10.7052 23.4248
L10.6448 23.5457
" />
</g></g>
<g style="fill:none; 
stroke:#A90000; stroke-width:0.1524; stroke-opacity:1; 
stroke-linecap:round; stroke-linejoin:round;">
<text x="4.7752" y="23.2565"
textLength="1.4127" font-size="1.6933" lengthAdjust="spacingAndGlyphs"
text-anchor="middle" opacity="0" stroke-opacity="0">7</text>
<g class="stroked-text"><desc>7</desc>
<path d="M4.3519 21.8230
L5.1985 21.8230
" />
<path d="M5.1985 21.8230
L4.6543 23.0930
" />
</g></g>
<g style="fill:none; 
stroke:#840000; stroke-width:0.1524; stroke-opacity:1; 
stroke-linecap:round; stroke-linejoin:round;">
<path d="M6.0452 26.0505
L3.5052 26.0505
" />
</g>
<g style="fill:none; 
stroke:#006464; stroke-width:0.1524; stroke-opacity:1; 
stroke-linecap:round; stroke-linejoin:round;">
<text x="6.5532" y="26.6855"
textLength="5.1622" font-size="1.6933" lengthAdjust="spacingAndGlyphs"
text-anchor="start" opacity="0" stroke-opacity="0">GP15</text>
<g class="stroked-text"><desc>GP15</desc>
<path d="M7.6210 25.4205
L7.5000 25.3600
" />
<path d="M7.5000 25.3600
L7.3186 25.3600
" />
<path d="M7.3186 25.3600
L7.1372 25.4205
" />
<path d="M7.1372 25.4205
L7.0162 25.5415
" />
<path d="M7.0162 25.5415
L6.9557 25.6624
" />
<path d="M6.9557 25.6624
L6.8953 25.9043
" />
<path d="M6.8953 25.9043
L6.8953 26.0857
" />
<path d="M6.8953 26.0857
L6.9557 26.3276
" />
<path d="M6.9557 26.3276
L7.0162 26.4486
" />
<path d="M7.0162 26.4486
L7.1372 26.5696
" />
<path d="M7.1372 26.5696
L7.3186 26.6300
" />
<path d="M7.3186 26.6300
L7.4395 26.6300
" />
<path d="M7.4395 26.6300
L7.6210 26.5696
" />
<path d="M7.6210 26.5696
L7.6814 26.5091
" />
<path d="M7.6814 26.5091
L7.6814 26.0857
" />
<path d="M7.6814 26.0857
L7.4395 26.0857
" />
<path d="M8.2257 26.6300
L8.2257 25.3600
" />
<path d="M8.2257 25.3600
L8.7095 25.3600
" />
<path d="M8.7095 25.3600
L8.8305 25.4205
" />
<path d="M8.8305 25.4205
L8.8910 25.4810
" />
<path d="M8.8910 25.4810
L8.9514 25.6019
" />
<path d="M8.9514 25.6019
L8.9514 25.7834
" />
<path d="M8.9514 25.7834
L8.8910 25.9043
" />
<path d="M8.8910 25.9043
L8.8305 25.9648
" />
<path d="M8.8305 25.9648
L8.7095 26.0253
" />
<path d="M8.7095 26.0253
L8.2257 26.0253
" />
<path d="M10.1610 26.6300
L9.4353 26.6300
" />
<path d="M9.7981 26.6300
L9.7981 25.3600
" />
<path d="M9.7981 25.3600
L9.6772 25.5415
" />
<path d="M9.6772 25.5415
L9.5562 25.6624
" />
<path d="M9.5562 25.6624
L9.4353 25.7229
" />
<path d="M11.3100 25.3600
L10.7052 25.3600
" />
<path d="M10.7052 25.3600
L10.6448 25.9648
" />
<path d="M10.6448 25.9648
L10.7052 25.9043
" />
<path d="M10.7052 25.9043
L10.8262 25.8438
" />
<path d="M10.8262 25.8438
L11.1286 25.8438
" />
<path d="M11.1286 25.8438
L11.2495 25.9043
" />
<path d="M11.2495 25.9043
L11.3100 25.9648
" />
<path d="M11.3100 25.9648
L11.3705 26.0857
" />
<path d="M11.3705 26.0857
L11.3705 26.3881
" />
<path d="M11.3705 26.3881
L11.3100 26.5091
" />
<path d="M11.3100 26.5091
L11.2495 26.5696
" />
<path d="M11.2495 26.5696
L11.1286 26.6300
" />
<path d="M11.1286 26.6300
L10.8262 26.6300
" />
<path d="M10.8262 26.6300
L10.7052 26.5696
" />
<path d="M10.7052 26.5696
L10.6448 26.5091
" />
</g></g>
<g style="fill:none; 
stroke:#A90000; stroke-width:0.1524; stroke-opacity:1; 
stroke-linecap:round; stroke-linejoin:round;">
<text x="4.7752" y="25.7965"
textLength="1.4127" font-size="1.6933" lengthAdjust="spacingAndGlyphs"
text-anchor="middle" opacity="0" stroke-opacity="0">8</text>
<g class="stroked-text"><desc>8</desc>
<path d="M4.6543 24.9073
L4.5333 24.8468
" />
<path d="M4.5333 24.8468
L4.4728 24.7864
" />
<path d="M4.4728 24.7864
L4.4124 24.6654
" />
<path d="M4.4124 24.6654
L4.4124 24.6049
" />
<path d="M4.4124 24.6049
L4.4728 24.4840
" />
<path d="M4.4728 24.4840
L4.5333 24.4235
" />
<path d="M4.5333 24.4235
L4.6543 24.3630
" />
<path d="M4.6543 24.3630
L4.8962 24.3630
" />
<path d="M4.8962 24.3630
L5.0171 24.4235
" />
<path d="M5.0171 24.4235
L5.0776 24.4840
" />
<path d="M5.0776 24.4840
L5.1381 24.6049
" />
<path d="M5.1381 24.6049
L5.1381 24.6654
" />
<path d="M5.1381 24.6654
L5.0776 24.7864
" />
<path d="M5.0776 24.7864
L5.0171 24.8468
" />
<path d="M5.0171 24.8468
L4.8962 24.9073
" />
<path d="M4.8962 24.9073
L4.6543 24.9073
" />
<path d="M4.6543 24.9073
L4.5333 24.9678
" />
<path d="M4.5333 24.9678
L4.4728 25.0283
" />
<path d="M4.4728 25.0283
L4.4124 25.1492
" />
<path d="M4.4124 25.1492
L4.4124 25.3911
" />
<path d="M4.4124 25.3911
L4.4728 25.5121
" />
<path d="M4.4728 25.5121
L4.5333 25.5726
" />
<path d="M4.5333 25.5726
L4.6543 25.6330
" />
<path d="M4.6543 25.6330
L4.8962 25.6330
" />
<path d="M4.8962 25.6330
L5.0171 25.5726
" />
<path d="M5.0171 25.5726
L5.0776 25.5121
" />
<path d="M5.0776 25.5121
L5.1381 25.3911
" />
<path d="M5.1381 25.3911
L5.1381 25.1492
" />
<path d="M5.1381 25.1492
L5.0776 25.0283
" />
<path d="M5.0776 25.0283
L5.0171 24.9678
" />
<path d="M5.0171 24.9678
L4.8962 24.9073
" />
</g></g>
<g style="fill:none; 
stroke:#840000; stroke-width:0.1524; stroke-opacity:1; 
stroke-linecap:round; stroke-linejoin:round;">
<path d="M6.0452 28.5905
L3.5052 28.5905
" />
</g>
<g style="fill:none; 
stroke:#006464; stroke-width:0.1524; stroke-opacity:1; 
stroke-linecap:round; stroke-linejoin:round;">
<text x="6.5532" y="29.2255"
textLength="5.1622" font-size="1.6933" lengthAdjust="spacingAndGlyphs"
text-anchor="start" opacity="0" stroke-opacity="0">GP14</text>
<g class="stroked-text"><desc>GP14</desc>
<path d="M7.6210 27.9605
L7.5000 27.9000
" />
<path d="M7.5000 27.9000
L7.3186 27.9000
" />
<path d="M7.3186 27.9000
L7.1372 27.9605
" />
<path d="M7.1372 27.9605
L7.0162 28.0815
" />
<path d="M7.0162 28.0815
L6.9557 28.2024
" />
<path d="M6.9557 28.2024
L6.8953 28.4443
" />
<path d="M6.8953 28.4443
L6.8953 28.6257
" />
<path d="M6.8953 28.6257
L6.9557 28.8676
" />
<path d="M6.9557 28.8676
L7.0162 28.9886
" />
<path d="M7.0162 28.9886
L7.1372 29.1096
" />
<path d="M7.1372 29.1096
L7.3186 29.1700
" />
<path d="M7.3186 29.1700
L7.4395 29.1700
" />
<path d="M7.4395 29.1700
L7.6210 29.1096
" />
<path d="M7.6210 29.1096
L7.6814 29.0491
" />
<path d="M7.6814 29.0491
L7.6814 28.6257
" />
<path d="M7.6814 28.6257
L7.4395 28.6257
" />
<path d="M8.2257 29.1700
L8.2257 27.9000
" />
<path d="M8.2257 27.9000
L8.7095 27.9000
" />
<path d="M8.7095 27.9000
L8.8305 27.9605
" />
<path d="M8.8305 27.9605
L8.8910 28.0210
" />
<path d="M8.8910 28.0210
L8.9514 28.1419
" />
<path d="M8.9514 28.1419
L8.9514 28.3234
" />
<path d="M8.9514 28.3234
L8.8910 28.4443
" />
<path d="M8.8910 28.4443
L8.8305 28.5048
" />
<path d="M8.8305 28.5048
L8.7095 28.5653
" />
<path d="M8.7095 28.5653
L8.2257 28.5653
" />
<path d="M10.1610 29.1700
L9.4353 29.1700
" />
<path d="M9.7981 29.1700
L9.7981 27.9000
" />
<path d="M9.7981 27.9000
L9.6772 28.0815
" />
<path d="M9.6772 28.0815
L9.5562 28.2024
" />
<path d="M9.5562 28.2024
L9.4353 28.2629
" />
<path d="M11.2495 28.3234
L11.2495 29.1700
" />
<path d="M10.9471 27.8396
L10.6448 28.7467
" />
<path d="M10.6448 28.7467
L11.4309 28.7467
" />
</g></g>
<g style="fill:none; 
stroke:#A90000; stroke-width:0.1524; stroke-opacity:1; 
stroke-linecap:round; stroke-linejoin:round;">
<text x="4.7752" y="28.3365"
textLength="1.4127" font-size="1.6933" lengthAdjust="spacingAndGlyphs"
text-anchor="middle" opacity="0" stroke-opacity="0">9</text>
<g class="stroked-text"><desc>9</desc>
<path d="M4.5333 28.1730
L4.7752 28.1730
" />
<path d="M4.7752 28.1730
L4.8962 28.1126
" />
<path d="M4.8962 28.1126
L4.9566 28.0521
" />
<path d="M4.9566 28.0521
L5.0776 27.8706
" />
<path d="M5.0776 27.8706
L5.1381 27.6287
" />
<path d="M5.1381 27.6287
L5.1381 27.1449
" />
<path d="M5.1381 27.1449
L5.0776 27.0240
" />
<path d="M5.0776 27.0240
L5.0171 26.9635
" />
<path d="M5.0171 26.9635
L4.8962 26.9030
" />
<path d="M4.8962 26.9030
L4.6543 26.9030
" />
<path d="M4.6543 26.9030
L4.5333 26.9635
" />
<path d="M4.5333 26.9635
L4.4728 27.0240
" />
<path d="M4.4728 27.0240
L4.4124 27.1449
" />
<path d="M4.4124 27.1449
L4.4124 27.4473
" />
<path d="M4.4124 27.4473
L4.4728 27.5683
" />
<path d="M4.4728 27.5683
L4.5333 27.6287
" />
<path d="M4.5333 27.6287
L4.6543 27.6892
" />
<path d="M4.6543 27.6892
L4.8962 27.6892
" />
<path d="M4.8962 27.6892
L5.0171 27.6287
" />
<path d="M5.0171 27.6287
L5.0776 27.5683
" />
<path d="M5.0776 27.5683
L5.1381 27.4473
" />
</g></g>
<g style="fill:none; 
stroke:#840000; stroke-width:0.1524; stroke-opacity:1; 
stroke-linecap:round; stroke-linejoin:round;">
<path d="M13.6652 34.9405
L13.6652 37.4805
" />
</g>
<g style="fill:none; 
stroke:#006464; stroke-width:0.1524; stroke-opacity:1; 
stroke-linecap:round; stroke-linejoin:round;">
<g transform="rotate(-90.000000 13.6652 34.4325)">
<text x="13.6652" y="35.0675"
textLength="5.1622" font-size="1.6933" lengthAdjust="spacingAndGlyphs"
text-anchor="start" opacity="0" stroke-opacity="0">GP13</text>
</g>
<g class="stroked-text"><desc>GP13</desc>
<path d="M13.0352 33.3646
L12.9747 33.4856
" />
<path d="M12.9747 33.4856
L12.9747 33.6670
" />
<path d="M12.9747 33.6670
L13.0352 33.8484
" />
<path d="M13.0352 33.8484
L13.1562 33.9694
" />
<path d="M13.1562 33.9694
L13.2771 34.0299
" />
<path d="M13.2771 34.0299
L13.5190 34.0903
" />
<path d="M13.5190 34.0903
L13.7004 34.0903
" />
<path d="M13.7004 34.0903
L13.9423 34.0299
" />
<path d="M13.9423 34.0299
L14.0633 33.9694
" />
<path d="M14.0633 33.9694
L14.1843 33.8484
" />
<path d="M14.1843 33.8484
L14.2447 33.6670
" />
<path d="M14.2447 33.6670
L14.2447 33.5461
" />
<path d="M14.2447 33.5461
L14.1843 33.3646
" />
<path d="M14.1843 33.3646
L14.1238 33.3042
" />
<path d="M14.1238 33.3042
L13.7004 33.3042
" />
<path d="M13.7004 33.3042
L13.7004 33.5461
" />
<path d="M14.2447 32.7599
L12.9747 32.7599
" />
<path d="M12.9747 32.7599
L12.9747 32.2761
" />
<path d="M12.9747 32.2761
L13.0352 32.1551
" />
<path d="M13.0352 32.1551
L13.0957 32.0946
" />
<path d="M13.0957 32.0946
L13.2166 32.0342
" />
<path d="M13.2166 32.0342
L13.3981 32.0342
" />
<path d="M13.3981 32.0342
L13.5190 32.0946
" />
<path d="M13.5190 32.0946
L13.5795 32.1551
" />
<path d="M13.5795 32.1551
L13.6400 32.2761
" />
<path d="M13.6400 32.2761
L13.6400 32.7599
" />
<path d="M14.2447 30.8246
L14.2447 31.5503
" />
<path d="M14.2447 31.1875
L12.9747 31.1875
" />
<path d="M12.9747 31.1875
L13.1562 31.3084
" />
<path d="M13.1562 31.3084
L13.2771 31.4294
" />
<path d="M13.2771 31.4294
L13.3376 31.5503
" />
<path d="M12.9747 30.4013
L12.9747 29.6151
" />
<path d="M12.9747 29.6151
L13.4585 30.0385
" />
<path d="M13.4585 30.0385
L13.4585 29.8570
" />
<path d="M13.4585 29.8570
L13.5190 29.7361
" />
<path d="M13.5190 29.7361
L13.5795 29.6756
" />
<path d="M13.5795 29.6756
L13.7004 29.6151
" />
<path d="M13.7004 29.6151
L14.0028 29.6151
" />
<path d="M14.0028 29.6151
L14.1238 29.6756
" />
<path d="M14.1238 29.6756
L14.1843 29.7361
" />
<path d="M14.1843 29.7361
L14.2447 29.8570
" />
<path d="M14.2447 29.8570
L14.2447 30.2199
" />
<path d="M14.2447 30.2199
L14.1843 30.3408
" />
<path d="M14.1843 30.3408
L14.1238 30.4013
" />
</g></g>
<g style="fill:none; 
stroke:#A90000; stroke-width:0.1524; stroke-opacity:1; 
stroke-linecap:round; stroke-linejoin:round;">
<g transform="rotate(-90.000000 13.4112 36.2105)">
<text x="13.4112" y="36.2105"
textLength="2.6222" font-size="1.6933" lengthAdjust="spacingAndGlyphs"
text-anchor="middle" opacity="0" stroke-opacity="0">19</text>
</g>
<g class="stroked-text"><desc>19</desc>
<path d="M13.2477 36.4523
L13.2477 37.1780
" />
<path d="M13.2477 36.8152
L11.9777 36.8152
" />
<path d="M11.9777 36.8152
L12.1592 36.9361
" />
<path d="M12.1592 36.9361
L12.2801 37.0571
" />
<path d="M12.2801 37.0571
L12.3406 37.1780
" />
<path d="M13.2477 35.8476
L13.2477 35.6057
" />
<path d="M13.2477 35.6057
L13.1873 35.4847
" />
<path d="M13.1873 35.4847
L13.1268 35.4243
" />
<path d="M13.1268 35.4243
L12.9453 35.3033
" />
<path d="M12.9453 35.3033
L12.7034 35.2428
" />
<path d="M12.7034 35.2428
L12.2196 35.2428
" />
<path d="M12.2196 35.2428
L12.0987 35.3033
" />
<path d="M12.0987 35.3033
L12.0382 35.3638
" />
<path d="M12.0382 35.3638
L11.9777 35.4847
" />
<path d="M11.9777 35.4847
L11.9777 35.7266
" />
<path d="M11.9777 35.7266
L12.0382 35.8476
" />
<path d="M12.0382 35.8476
L12.0987 35.9081
" />
<path d="M12.0987 35.9081
L12.2196 35.9685
" />
<path d="M12.2196 35.9685
L12.5220 35.9685
" />
<path d="M12.5220 35.9685
L12.6430 35.9081
" />
<path d="M12.6430 35.9081
L12.7034 35.8476
" />
<path d="M12.7034 35.8476
L12.7639 35.7266
" />
<path d="M12.7639 35.7266
L12.7639 35.4847
" />
<path d="M12.7639 35.4847
L12.7034 35.3638
" />
<path d="M12.7034 35.3638
L12.6430 35.3033
" />
<path d="M12.6430 35.3033
L12.5220 35.2428
" />
</g></g>
<g style="fill:none; 
stroke:#840000; stroke-width:0.1524; stroke-opacity:1; 
stroke-linecap:round; stroke-linejoin:round;">
<path d="M16.2052 34.9405
L16.2052 37.4805
" />
</g>
<g style="fill:none; 
stroke:#006464; stroke-width:0.1524; stroke-opacity:1; 
stroke-linecap:round; stroke-linejoin:round;">
<g transform="rotate(-90.000000 16.2052 34.4325)">
<text x="16.2052" y="35.0675"
textLength="5.1622" font-size="1.6933" lengthAdjust="spacingAndGlyphs"
text-anchor="start" opacity="0" stroke-opacity="0">GP12</text>
</g>
<g class="stroked-text"><desc>GP12</desc>
<path d="M15.5752 33.3646
L15.5147 33.4856
" />
<path d="M15.5147 33.4856
L15.5147 33.6670
" />
<path d="M15.5147 33.6670
L15.5752 33.8484
" />
<path d="M15.5752 33.8484
L15.6962 33.9694
" />
<path d="M15.6962 33.9694
L15.8171 34.0299
" />
<path d="M15.8171 34.0299
L16.0590 34.0903
" />
<path d="M16.0590 34.0903
L16.2404 34.0903
" />
<path d="M16.2404 34.0903
L16.4823 34.0299
" />
<path d="M16.4823 34.0299
L16.6033 33.9694
" />
<path d="M16.6033 33.9694
L16.7243 33.8484
" />
<path d="M16.7243 33.8484
L16.7847 33.6670
" />
<path d="M16.7847 33.6670
L16.7847 33.5461
" />
<path d="M16.7847 33.5461
L16.7243 33.3646
" />
<path d="M16.7243 33.3646
L16.6638 33.3042
" />
<path d="M16.6638 33.3042
L16.2404 33.3042
" />
<path d="M16.2404 33.3042
L16.2404 33.5461
" />
<path d="M16.7847 32.7599
L15.5147 32.7599
" />
<path d="M15.5147 32.7599
L15.5147 32.2761
" />
<path d="M15.5147 32.2761
L15.5752 32.1551
" />
<path d="M15.5752 32.1551
L15.6357 32.0946
" />
<path d="M15.6357 32.0946
L15.7566 32.0342
" />
<path d="M15.7566 32.0342
L15.9381 32.0342
" />
<path d="M15.9381 32.0342
L16.0590 32.0946
" />
<path d="M16.0590 32.0946
L16.1195 32.1551
" />
<path d="M16.1195 32.1551
L16.1800 32.2761
" />
<path d="M16.1800 32.2761
L16.1800 32.7599
" />
<path d="M16.7847 30.8246
L16.7847 31.5503
" />
<path d="M16.7847 31.1875
L15.5147 31.1875
" />
<path d="M15.5147 31.1875
L15.6962 31.3084
" />
<path d="M15.6962 31.3084
L15.8171 31.4294
" />
<path d="M15.8171 31.4294
L15.8776 31.5503
" />
<path d="M15.6357 30.3408
L15.5752 30.2804
" />
<path d="M15.5752 30.2804
L15.5147 30.1594
" />
<path d="M15.5147 30.1594
L15.5147 29.8570
" />
<path d="M15.5147 29.8570
L15.5752 29.7361
" />
<path d="M15.5752 29.7361
L15.6357 29.6756
" />
<path d="M15.6357 29.6756
L15.7566 29.6151
" />
<path d="M15.7566 29.6151
L15.8776 29.6151
" />
<path d="M15.8776 29.6151
L16.0590 29.6756
" />
<path d="M16.0590 29.6756
L16.7847 30.4013
" />
<path d="M16.7847 30.4013
L16.7847 29.6151
" />
</g></g>
<g style="fill:none; 
stroke:#A90000; stroke-width:0.1524; stroke-opacity:1; 
stroke-linecap:round; stroke-linejoin:round;">
<g transform="rotate(-90.000000 15.9512 36.2105)">
<text x="15.9512" y="36.2105"
textLength="2.6222" font-size="1.6933" lengthAdjust="spacingAndGlyphs"
text-anchor="middle" opacity="0" stroke-opacity="0">20</text>
</g>
<g class="stroked-text"><desc>20</desc>
<path d="M14.6387 37.1780
L14.5782 37.1176
" />
<path d="M14.5782 37.1176
L14.5177 36.9966
" />
<path d="M14.5177 36.9966
L14.5177 36.6942
" />
<path d="M14.5177 36.6942
L14.5782 36.5733
" />
<path d="M14.5782 36.5733
L14.6387 36.5128
" />
<path d="M14.6387 36.5128
L14.7596 36.4523
" />
<path d="M14.7596 36.4523
L14.8806 36.4523
" />
<path d="M14.8806 36.4523
L15.0620 36.5128
" />
<path d="M15.0620 36.5128
L15.7877 37.2385
" />
<path d="M15.7877 37.2385
L15.7877 36.4523
" />
<path d="M14.5177 35.6662
L14.5177 35.5452
" />
<path d="M14.5177 35.5452
L14.5782 35.4243
" />
<path d="M14.5782 35.4243
L14.6387 35.3638
" />
<path d="M14.6387 35.3638
L14.7596 35.3033
" />
<path d="M14.7596 35.3033
L15.0015 35.2428
" />
<path d="M15.0015 35.2428
L15.3039 35.2428
" />
<path d="M15.3039 35.2428
L15.5458 35.3033
" />
<path d="M15.5458 35.3033
L15.6668 35.3638
" />
<path d="M15.6668 35.3638
L15.7273 35.4243
" />
<path d="M15.7273 35.4243
L15.7877 35.5452
" />
<path d="M15.7877 35.5452
L15.7877 35.6662
" />
<path d="M15.7877 35.6662
L15.7273 35.7871
" />
<path d="M15.7273 35.7871
L15.6668 35.8476
" />
<path d="M15.6668 35.8476
L15.5458 35.9081
" />
<path d="M15.5458 35.9081
L15.3039 35.9685
" />
<path d="M15.3039 35.9685
L15.0015 35.9685
" />
<path d="M15.0015 35.9685
L14.7596 35.9081
" />
<path d="M14.7596 35.9081
L14.6387 35.8476
" />
<path d="M14.6387 35.8476
L14.5782 35.7871
" />
<path d="M14.5782 35.7871
L14.5177 35.6662
" />
</g></g>
<g style="fill:none; 
stroke:#840000; stroke-width:0.1524; stroke-opacity:1; 
stroke-linecap:round; stroke-linejoin:round;">
<path d="M18.7452 34.9405
L18.7452 37.4805
" />
</g>
<g style="fill:none; 
stroke:#006464; stroke-width:0.1524; stroke-opacity:1; 
stroke-linecap:round; stroke-linejoin:round;">
<g transform="rotate(-90.000000 18.7452 34.4325)">
<text x="18.7452" y="35.0675"
textLength="5.1622" font-size="1.6933" lengthAdjust="spacingAndGlyphs"
text-anchor="start" opacity="0" stroke-opacity="0">GP11</text>
</g>
<g class="stroked-text"><desc>GP11</desc>
<path d="M18.1152 33.3646
L18.0547 33.4856
" />
<path d="M18.0547 33.4856
L18.0547 33.6670
" />
<path d="M18.0547 33.6670
L18.1152 33.8484
" />
<path d="M18.1152 33.8484
L18.2362 33.9694
" />
<path d="M18.2362 33.9694
L18.3571 34.0299
" />
<path d="M18.3571 34.0299
L18.5990 34.0903
" />
<path d="M18.5990 34.0903
L18.7804 34.0903
" />
<path d="M18.7804 34.0903
L19.0223 34.0299
" />
<path d="M19.0223 34.0299
L19.1433 33.9694
" />
<path d="M19.1433 33.9694
L19.2643 33.8484
" />
<path d="M19.2643 33.8484
L19.3247 33.6670
" />
<path d="M19.3247 33.6670
L19.3247 33.5461
" />
<path d="M19.3247 33.5461
L19.2643 33.3646
" />
<path d="M19.2643 33.3646
L19.2038 33.3042
" />
<path d="M19.2038 33.3042
L18.7804 33.3042
" />
<path d="M18.7804 33.3042
L18.7804 33.5461
" />
<path d="M19.3247 32.7599
L18.0547 32.7599
" />
<path d="M18.0547 32.7599
L18.0547 32.2761
" />
<path d="M18.0547 32.2761
L18.1152 32.1551
" />
<path d="M18.1152 32.1551
L18.1757 32.0946
" />
<path d="M18.1757 32.0946
L18.2966 32.0342
" />
<path d="M18.2966 32.0342
L18.4781 32.0342
" />
<path d="M18.4781 32.0342
L18.5990 32.0946
" />
<path d="M18.5990 32.0946
L18.6595 32.1551
" />
<path d="M18.6595 32.1551
L18.7200 32.2761
" />
<path d="M18.7200 32.2761
L18.7200 32.7599
" />
<path d="M19.3247 30.8246
L19.3247 31.5503
" />
<path d="M19.3247 31.1875
L18.0547 31.1875
" />
<path d="M18.0547 31.1875
L18.2362 31.3084
" />
<path d="M18.2362 31.3084
L18.3571 31.4294
" />
<path d="M18.3571 31.4294
L18.4176 31.5503
" />
<path d="M19.3247 29.6151
L19.3247 30.3408
" />
<path d="M19.3247 29.9780
L18.0547 29.9780
" />
<path d="M18.0547 29.9780
L18.2362 30.0989
" />
<path d="M18.2362 30.0989
L18.3571 30.2199
" />
<path d="M18.3571 30.2199
L18.4176 30.3408
" />
</g></g>
<g style="fill:none; 
stroke:#A90000; stroke-width:0.1524; stroke-opacity:1; 
stroke-linecap:round; stroke-linejoin:round;">
<g transform="rotate(-90.000000 18.4912 36.2105)">
<text x="18.4912" y="36.2105"
textLength="2.6222" font-size="1.6933" lengthAdjust="spacingAndGlyphs"
text-anchor="middle" opacity="0" stroke-opacity="0">21</text>
</g>
<g class="stroked-text"><desc>21</desc>
<path d="M17.1787 37.1780
L17.1182 37.1176
" />
<path d="M17.1182 37.1176
L17.0577 36.9966
" />
<path d="M17.0577 36.9966
L17.0577 36.6942
" />
<path d="M17.0577 36.6942
L17.1182 36.5733
" />
<path d="M17.1182 36.5733
L17.1787 36.5128
" />
<path d="M17.1787 36.5128
L17.2996 36.4523
" />
<path d="M17.2996 36.4523
L17.4206 36.4523
" />
<path d="M17.4206 36.4523
L17.6020 36.5128
" />
<path d="M17.6020 36.5128
L18.3277 37.2385
" />
<path d="M18.3277 37.2385
L18.3277 36.4523
" />
<path d="M18.3277 35.2428
L18.3277 35.9685
" />
<path d="M18.3277 35.6057
L17.0577 35.6057
" />
<path d="M17.0577 35.6057
L17.2392 35.7266
" />
<path d="M17.2392 35.7266
L17.3601 35.8476
" />
<path d="M17.3601 35.8476
L17.4206 35.9685
" />
</g></g>
<g style="fill:none; 
stroke:#840000; stroke-width:0.1524; stroke-opacity:1; 
stroke-linecap:round; stroke-linejoin:round;">
<path d="M21.2852 34.9405
L21.2852 37.4805
" />
</g>
<g style="fill:none; 
stroke:#006464; stroke-width:0.1524; stroke-opacity:1; 
stroke-linecap:round; stroke-linejoin:round;">
<g transform="rotate(-90.000000 21.2852 34.4325)">
<text x="21.2852" y="35.0675"
textLength="5.1622" font-size="1.6933" lengthAdjust="spacingAndGlyphs"
text-anchor="start" opacity="0" stroke-opacity="0">GP10</text>
</g>
<g class="stroked-text"><desc>GP10</desc>
<path d="M20.6552 33.3646
L20.5947 33.4856
" />
<path d="M20.5947 33.4856
L20.5947 33.6670
" />
<path d="M20.5947 33.6670
L20.6552 33.8484
" />
<path d="M20.6552 33.8484
L20.7762 33.9694
" />
<path d="M20.7762 33.9694
L20.8971 34.0299
" />
<path d="M20.8971 34.0299
L21.1390 34.0903
" />
<path d="M21.1390 34.0903
L21.3204 34.0903
" />
<path d="M21.3204 34.0903
L21.5623 34.0299
" />
<path d="M21.5623 34.0299
L21.6833 33.9694
" />
<path d="M21.6833 33.9694
L21.8043 33.8484
" />
<path d="M21.8043 33.8484
L21.8647 33.6670
" />
<path d="M21.8647 33.6670
L21.8647 33.5461
" />
<path d="M21.8647 33.5461
L21.8043 33.3646
" />
<path d="M21.8043 33.3646
L21.7438 33.3042
" />
<path d="M21.7438 33.3042
L21.3204 33.3042
" />
<path d="M21.3204 33.3042
L21.3204 33.5461
" />
<path d="M21.8647 32.7599
L20.5947 32.7599
" />
<path d="M20.5947 32.7599
L20.5947 32.2761
" />
<path d="M20.5947 32.2761
L20.6552 32.1551
" />
<path d="M20.6552 32.1551
L20.7157 32.0946
" />
<path d="M20.7157 32.0946
L20.8366 32.0342
" />
<path d="M20.8366 32.0342
L21.0181 32.0342
" />
<path d="M21.0181 32.0342
L21.1390 32.0946
" />
<path d="M21.1390 32.0946
L21.1995 32.1551
" />
<path d="M21.1995 32.1551
L21.2600 32.2761
" />
<path d="M21.2600 32.2761
L21.2600 32.7599
" />
<path d="M21.8647 30.8246
L21.8647 31.5503
" />
<path d="M21.8647 31.1875
L20.5947 31.1875
" />
<path d="M20.5947 31.1875
L20.7762 31.3084
" />
<path d="M20.7762 31.3084
L20.8971 31.4294
" />
<path d="M20.8971 31.4294
L20.9576 31.5503
" />
<path d="M20.5947 30.0385
L20.5947 29.9175
" />
<path d="M20.5947 29.9175
L20.6552 29.7966
" />
<path d="M20.6552 29.7966
L20.7157 29.7361
" />
<path d="M20.7157 29.7361
L20.8366 29.6756
" />
<path d="M20.8366 29.6756
L21.0785 29.6151
" />
<path d="M21.0785 29.6151
L21.3809 29.6151
" />
<path d="M21.3809 29.6151
L21.6228 29.6756
" />
<path d="M21.6228 29.6756
L21.7438 29.7361
" />
<path d="M21.7438 29.7361
L21.8043 29.7966
" />
<path d="M21.8043 29.7966
L21.8647 29.9175
" />
<path d="M21.8647 29.9175
L21.8647 30.0385
" />
<path d="M21.8647 30.0385
L21.8043 30.1594
" />
<path d="M21.8043 30.1594
L21.7438 30.2199
" />
<path d="M21.7438 30.2199
L21.6228 30.2804
" />
<path d="M21.6228 30.2804
L21.3809 30.3408
" />
<path d="M21.3809 30.3408
L21.0785 30.3408
" />
<path d="M21.0785 30.3408
L20.8366 30.2804
" />
<path d="M20.8366 30.2804
L20.7157 30.2199
" />
<path d="M20.7157 30.2199
L20.6552 30.1594
" />
<path d="M20.6552 30.1594
L20.5947 30.0385
" />
</g></g>
<g style="fill:none; 
stroke:#A90000; stroke-width:0.1524; stroke-opacity:1; 
stroke-linecap:round; stroke-linejoin:round;">
<g transform="rotate(-90.000000 21.0312 36.2105)">
<text x="21.0312" y="36.2105"
textLength="2.6222" font-size="1.6933" lengthAdjust="spacingAndGlyphs"
text-anchor="middle" opacity="0" stroke-opacity="0">22</text>
</g>
<g class="stroked-text"><desc>22</desc>
<path d="M19.7187 37.1780
L19.6582 37.1176
" />
<path d="M19.6582 37.1176
L19.5977 36.9966
" />
<path d="M19.5977 36.9966
L19.5977 36.6942
" />
<path d="M19.5977 36.6942
L19.6582 36.5733
" />
<path d="M19.6582 36.5733
L19.7187 36.5128
" />
<path d="M19.7187 36.5128
L19.8396 36.4523
" />
<path d="M19.8396 36.4523
L19.9606 36.4523
" />
<path d="M19.9606 36.4523
L20.1420 36.5128
" />
<path d="M20.1420 36.5128
L20.8677 37.2385
" />
<path d="M20.8677 37.2385
L20.8677 36.4523
" />
<path d="M19.7187 35.9685
L19.6582 35.9081
" />
<path d="M19.6582 35.9081
L19.5977 35.7871
" />
<path d="M19.5977 35.7871
L19.5977 35.4847
" />
<path d="M19.5977 35.4847
L19.6582 35.3638
" />
<path d="M19.6582 35.3638
L19.7187 35.3033
" />
<path d="M19.7187 35.3033
L19.8396 35.2428
" />
<path d="M19.8396 35.2428
L19.9606 35.2428
" />
<path d="M19.9606 35.2428
L20.1420 35.3033
" />
<path d="M20.1420 35.3033
L20.8677 36.0290
" />
<path d="M20.8677 36.0290
L20.8677 35.2428
" />
</g></g>
<g style="fill:none; 
stroke:#840000; stroke-width:0.1524; stroke-opacity:1; 
stroke-linecap:round; stroke-linejoin:round;">
<path d="M23.8252 34.9405
L23.8252 37.4805
" />
</g>
<g style="fill:none; 
stroke:#006464; stroke-width:0.1524; stroke-opacity:1; 
stroke-linecap:round; stroke-linejoin:round;">
<g transform="rotate(-90.000000 23.8252 34.4325)">
<text x="23.8252" y="35.0675"
textLength="3.9527" font-size="1.6933" lengthAdjust="spacingAndGlyphs"
text-anchor="start" opacity="0" stroke-opacity="0">GP9</text>
</g>
<g class="stroked-text"><desc>GP9</desc>
<path d="M23.1952 33.3646
L23.1347 33.4856
" />
<path d="M23.1347 33.4856
L23.1347 33.6670
" />
<path d="M23.1347 33.6670
L23.1952 33.8484
" />
<path d="M23.1952 33.8484
L23.3162 33.9694
" />
<path d="M23.3162 33.9694
L23.4371 34.0299
" />
<path d="M23.4371 34.0299
L23.6790 34.0903
" />
<path d="M23.6790 34.0903
L23.8604 34.0903
" />
<path d="M23.8604 34.0903
L24.1023 34.0299
" />
<path d="M24.1023 34.0299
L24.2233 33.9694
" />
<path d="M24.2233 33.9694
L24.3443 33.8484
" />
<path d="M24.3443 33.8484
L24.4047 33.6670
" />
<path d="M24.4047 33.6670
L24.4047 33.5461
" />
<path d="M24.4047 33.5461
L24.3443 33.3646
" />
<path d="M24.3443 33.3646
L24.2838 33.3042
" />
<path d="M24.2838 33.3042
L23.8604 33.3042
" />
<path d="M23.8604 33.3042
L23.8604 33.5461
" />
<path d="M24.4047 32.7599
L23.1347 32.7599
" />
<path d="M23.1347 32.7599
L23.1347 32.2761
" />
<path d="M23.1347 32.2761
L23.1952 32.1551
" />
<path d="M23.1952 32.1551
L23.2557 32.0946
" />
<path d="M23.2557 32.0946
L23.3766 32.0342
" />
<path d="M23.3766 32.0342
L23.5581 32.0342
" />
<path d="M23.5581 32.0342
L23.6790 32.0946
" />
<path d="M23.6790 32.0946
L23.7395 32.1551
" />
<path d="M23.7395 32.1551
L23.8000 32.2761
" />
<path d="M23.8000 32.2761
L23.8000 32.7599
" />
<path d="M24.4047 31.4294
L24.4047 31.1875
" />
<path d="M24.4047 31.1875
L24.3443 31.0665
" />
<path d="M24.3443 31.0665
L24.2838 31.0061
" />
<path d="M24.2838 31.0061
L24.1023 30.8851
" />
<path d="M24.1023 30.8851
L23.8604 30.8246
" />
<path d="M23.8604 30.8246
L23.3766 30.8246
" />
<path d="M23.3766 30.8246
L23.2557 30.8851
" />
<path d="M23.2557 30.8851
L23.1952 30.9456
" />
<path d="M23.1952 30.9456
L23.1347 31.0665
" />
<path d="M23.1347 31.0665
L23.1347 31.3084
" />
<path d="M23.1347 31.3084
L23.1952 31.4294
" />
<path d="M23.1952 31.4294
L23.2557 31.4899
" />
<path d="M23.2557 31.4899
L23.3766 31.5503
" />
<path d="M23.3766 31.5503
L23.6790 31.5503
" />
<path d="M23.6790 31.5503
L23.8000 31.4899
" />
<path d="M23.8000 31.4899
L23.8604 31.4294
" />
<path d="M23.8604 31.4294
L23.9209 31.3084
" />
<path d="M23.9209 31.3084
L23.9209 31.0665
" />
<path d="M23.9209 31.0665
L23.8604 30.9456
" />
<path d="M23.8604 30.9456
L23.8000 30.8851
" />
<path d="M23.8000 30.8851
L23.6790 30.8246
" />
</g></g>
<g style="fill:none; 
stroke:#A90000; stroke-width:0.1524; stroke-opacity:1; 
stroke-linecap:round; stroke-linejoin:round;">
<g transform="rotate(-90.000000 23.5712 36.2105)">
<text x="23.5712" y="36.2105"
textLength="2.6222" font-size="1.6933" lengthAdjust="spacingAndGlyphs"
text-anchor="middle" opacity="0" stroke-opacity="0">23</text>
</g>
<g class="stroked-text"><desc>23</desc>
<path d="M22.2587 37.1780
L22.1982 37.1176
" />
<path d="M22.1982 37.1176
L22.1377 36.9966
" />
<path d="M22.1377 36.9966
L22.1377 36.6942
" />
<path d="M22.1377 36.6942
L22.1982 36.5733
" />
<path d="M22.1982 36.5733
L22.2587 36.5128
" />
<path d="M22.2587 36.5128
L22.3796 36.4523
" />
<path d="M22.3796 36.4523
L22.5006 36.4523
" />
<path d="M22.5006 36.4523
L22.6820 36.5128
" />
<path d="M22.6820 36.5128
L23.4077 37.2385
" />
<path d="M23.4077 37.2385
L23.4077 36.4523
" />
<path d="M22.1377 36.0290
L22.1377 35.2428
" />
<path d="M22.1377 35.2428
L22.6215 35.6662
" />
<path d="M22.6215 35.6662
L22.6215 35.4847
" />
<path d="M22.6215 35.4847
L22.6820 35.3638
" />
<path d="M22.6820 35.3638
L22.7425 35.3033
" />
<path d="M22.7425 35.3033
L22.8634 35.2428
" />
<path d="M22.8634 35.2428
L23.1658 35.2428
" />
<path d="M23.1658 35.2428
L23.2868 35.3033
" />
<path d="M23.2868 35.3033
L23.3473 35.3638
" />
<path d="M23.3473 35.3638
L23.4077 35.4847
" />
<path d="M23.4077 35.4847
L23.4077 35.8476
" />
<path d="M23.4077 35.8476
L23.3473 35.9685
" />
<path d="M23.3473 35.9685
L23.2868 36.0290
" />
</g></g>
<g style="fill:none; 
stroke:#840000; stroke-width:0.1524; stroke-opacity:1; 
stroke-linecap:round; stroke-linejoin:round;">
<path d="M31.4452 8.2705
L33.9852 8.2705
" />
</g>
<g style="fill:none; 
stroke:#006464; stroke-width:0.1524; stroke-opacity:1; 
stroke-linecap:round; stroke-linejoin:round;">
<text x="30.9372" y="8.9055"
textLength="3.9527" font-size="1.6933" lengthAdjust="spacingAndGlyphs"
text-anchor="end" opacity="0" stroke-opacity="0">GP0</text>
<g class="stroked-text"><desc>GP0</desc>
<path d="M28.0551 7.6405
L27.9341 7.5800
" />
<path d="M27.9341 7.5800
L27.7527 7.5800
" />
<path d="M27.7527 7.5800
L27.5713 7.6405
" />
<path d="M27.5713 7.6405
L27.4503 7.7615
" />
<path d="M27.4503 7.7615
L27.3898 7.8824
" />
<path d="M27.3898 7.8824
L27.3294 8.1243
" />
<path d="M27.3294 8.1243
L27.3294 8.3057
" />
<path d="M27.3294 8.3057
L27.3898 8.5476
" />
<path d="M27.3898 8.5476
L27.4503 8.6686
" />
<path d="M27.4503 8.6686
L27.5713 8.7896
" />
<path d="M27.5713 8.7896
L27.7527 8.8500
" />
<path d="M27.7527 8.8500
L27.8736 8.8500
" />
<path d="M27.8736 8.8500
L28.0551 8.7896
" />
<path d="M28.0551 8.7896
L28.1155 8.7291
" />
<path d="M28.1155 8.7291
L28.1155 8.3057
" />
<path d="M28.1155 8.3057
L27.8736 8.3057
" />
<path d="M28.6598 8.8500
L28.6598 7.5800
" />
<path d="M28.6598 7.5800
L29.1436 7.5800
" />
<path d="M29.1436 7.5800
L29.2646 7.6405
" />
<path d="M29.2646 7.6405
L29.3251 7.7010
" />
<path d="M29.3251 7.7010
L29.3855 7.8219
" />
<path d="M29.3855 7.8219
L29.3855 8.0034
" />
<path d="M29.3855 8.0034
L29.3251 8.1243
" />
<path d="M29.3251 8.1243
L29.2646 8.1848
" />
<path d="M29.2646 8.1848
L29.1436 8.2453
" />
<path d="M29.1436 8.2453
L28.6598 8.2453
" />
<path d="M30.1717 7.5800
L30.2927 7.5800
" />
<path d="M30.2927 7.5800
L30.4136 7.6405
" />
<path d="M30.4136 7.6405
L30.4741 7.7010
" />
<path d="M30.4741 7.7010
L30.5346 7.8219
" />
<path d="M30.5346 7.8219
L30.5951 8.0638
" />
<path d="M30.5951 8.0638
L30.5951 8.3662
" />
<path d="M30.5951 8.3662
L30.5346 8.6081
" />
<path d="M30.5346 8.6081
L30.4741 8.7291
" />
<path d="M30.4741 8.7291
L30.4136 8.7896
" />
<path d="M30.4136 8.7896
L30.2927 8.8500
" />
<path d="M30.2927 8.8500
L30.1717 8.8500
" />
<path d="M30.1717 8.8500
L30.0508 8.7896
" />
<path d="M30.0508 8.7896
L29.9903 8.7291
" />
<path d="M29.9903 8.7291
L29.9298 8.6081
" />
<path d="M29.9298 8.6081
L29.8694 8.3662
" />
<path d="M29.8694 8.3662
L29.8694 8.0638
" />
<path d="M29.8694 8.0638
L29.9298 7.8219
" />
<path d="M29.9298 7.8219
L29.9903 7.7010
" />
<path d="M29.9903 7.7010
L30.0508 7.6405
" />
<path d="M30.0508 7.6405
L30.1717 7.5800
" />
</g></g>
<g style="fill:none; 
stroke:#A90000; stroke-width:0.1524; stroke-opacity:1; 
stroke-linecap:round; stroke-linejoin:round;">
<text x="32.7152" y="8.0165"
textLength="2.6222" font-size="1.6933" lengthAdjust="spacingAndGlyphs"
text-anchor="middle" opacity="0" stroke-opacity="0">10</text>
<g class="stroked-text"><desc>10</desc>
<path d="M32.4733 7.8530
L31.7476 7.8530
" />
<path d="M32.1104 7.8530
L32.1104 6.5830
" />
<path d="M32.1104 6.5830
L31.9895 6.7645
" />
<path d="M31.9895 6.7645
L31.8685 6.8854
" />
<path d="M31.8685 6.8854
L31.7476 6.9459
" />
<path d="M33.2594 6.5830
L33.3804 6.5830
" />
<path d="M33.3804 6.5830
L33.5013 6.6435
" />
<path d="M33.5013 6.6435
L33.5618 6.7040
" />
<path d="M33.5618 6.7040
L33.6223 6.8249
" />
<path d="M33.6223 6.8249
L33.6828 7.0668
" />
<path d="M33.6828 7.0668
L33.6828 7.3692
" />
<path d="M33.6828 7.3692
L33.6223 7.6111
" />
<path d="M33.6223 7.6111
L33.5618 7.7321
" />
<path d="M33.5618 7.7321
L33.5013 7.7926
" />
<path d="M33.5013 7.7926
L33.3804 7.8530
" />
<path d="M33.3804 7.8530
L33.2594 7.8530
" />
<path d="M33.2594 7.8530
L33.1385 7.7926
" />
<path d="M33.1385 7.7926
L33.0780 7.7321
" />
<path d="M33.0780 7.7321
L33.0175 7.6111
" />
<path d="M33.0175 7.6111
L32.9571 7.3692
" />
<path d="M32.9571 7.3692
L32.9571 7.0668
" />
<path d="M32.9571 7.0668
L33.0175 6.8249
" />
<path d="M33.0175 6.8249
L33.0780 6.7040
" />
<path d="M33.0780 6.7040
L33.1385 6.6435
" />
<path d="M33.1385 6.6435
L33.2594 6.5830
" />
</g></g>
<g style="fill:none; 
stroke:#840000; stroke-width:0.1524; stroke-opacity:1; 
stroke-linecap:round; stroke-linejoin:round;">
<path d="M31.4452 10.8105
L33.9852 10.8105
" />
</g>
<g style="fill:none; 
stroke:#006464; stroke-width:0.1524; stroke-opacity:1; 
stroke-linecap:round; stroke-linejoin:round;">
<text x="30.9372" y="11.4455"
textLength="3.9527" font-size="1.6933" lengthAdjust="spacingAndGlyphs"
text-anchor="end" opacity="0" stroke-opacity="0">GP1</text>
<g class="stroked-text"><desc>GP1</desc>
<path d="M28.0551 10.1805
L27.9341 10.1200
" />
<path d="M27.9341 10.1200
L27.7527 10.1200
" />
<path d="M27.7527 10.1200
L27.5713 10.1805
" />
<path d="M27.5713 10.1805
L27.4503 10.3015
" />
<path d="M27.4503 10.3015
L27.3898 10.4224
" />
<path d="M27.3898 10.4224
L27.3294 10.6643
" />
<path d="M27.3294 10.6643
L27.3294 10.8457
" />
<path d="M27.3294 10.8457
L27.3898 11.0876
" />
<path d="M27.3898 11.0876
L27.4503 11.2086
" />
<path d="M27.4503 11.2086
L27.5713 11.3296
" />
<path d="M27.5713 11.3296
L27.7527 11.3900
" />
<path d="M27.7527 11.3900
L27.8736 11.3900
" />
<path d="M27.8736 11.3900
L28.0551 11.3296
" />
<path d="M28.0551 11.3296
L28.1155 11.2691
" />
<path d="M28.1155 11.2691
L28.1155 10.8457
" />
<path d="M28.1155 10.8457
L27.8736 10.8457
" />
<path d="M28.6598 11.3900
L28.6598 10.1200
" />
<path d="M28.6598 10.1200
L29.1436 10.1200
" />
<path d="M29.1436 10.1200
L29.2646 10.1805
" />
<path d="M29.2646 10.1805
L29.3251 10.2410
" />
<path d="M29.3251 10.2410
L29.3855 10.3619
" />
<path d="M29.3855 10.3619
L29.3855 10.5434
" />
<path d="M29.3855 10.5434
L29.3251 10.6643
" />
<path d="M29.3251 10.6643
L29.2646 10.7248
" />
<path d="M29.2646 10.7248
L29.1436 10.7853
" />
<path d="M29.1436 10.7853
L28.6598 10.7853
" />
<path d="M30.5951 11.3900
L29.8694 11.3900
" />
<path d="M30.2322 11.3900
L30.2322 10.1200
" />
<path d="M30.2322 10.1200
L30.1113 10.3015
" />
<path d="M30.1113 10.3015
L29.9903 10.4224
" />
<path d="M29.9903 10.4224
L29.8694 10.4829
" />
</g></g>
<g style="fill:none; 
stroke:#A90000; stroke-width:0.1524; stroke-opacity:1; 
stroke-linecap:round; stroke-linejoin:round;">
<text x="32.7152" y="10.5565"
textLength="2.6222" font-size="1.6933" lengthAdjust="spacingAndGlyphs"
text-anchor="middle" opacity="0" stroke-opacity="0">11</text>
<g class="stroked-text"><desc>11</desc>
<path d="M32.4733 10.3930
L31.7476 10.3930
" />
<path d="M32.1104 10.3930
L32.1104 9.1230
" />
<path d="M32.1104 9.1230
L31.9895 9.3045
" />
<path d="M31.9895 9.3045
L31.8685 9.4254
" />
<path d="M31.8685 9.4254
L31.7476 9.4859
" />
<path d="M33.6828 10.3930
L32.9571 10.3930
" />
<path d="M33.3199 10.3930
L33.3199 9.1230
" />
<path d="M33.3199 9.1230
L33.1990 9.3045
" />
<path d="M33.1990 9.3045
L33.0780 9.4254
" />
<path d="M33.0780 9.4254
L32.9571 9.4859
" />
</g></g>
<g style="fill:none; 
stroke:#840000; stroke-width:0.1524; stroke-opacity:1; 
stroke-linecap:round; stroke-linejoin:round;">
<path d="M31.4452 13.3505
L33.9852 13.3505
" />
</g>
<g style="fill:none; 
stroke:#006464; stroke-width:0.1524; stroke-opacity:1; 
stroke-linecap:round; stroke-linejoin:round;">
<text x="30.9372" y="13.9855"
textLength="3.9527" font-size="1.6933" lengthAdjust="spacingAndGlyphs"
text-anchor="end" opacity="0" stroke-opacity="0">GP2</text>
<g class="stroked-text"><desc>GP2</desc>
<path d="M28.0551 12.7205
L27.9341 12.6600
" />
<path d="M27.9341 12.6600
L27.7527 12.6600
" />
<path d="M27.7527 12.6600
L27.5713 12.7205
" />
<path d="M27.5713 12.7205
L27.4503 12.8415
" />
<path d="M27.4503 12.8415
L27.3898 12.9624
" />
<path d="M27.3898 12.9624
L27.3294 13.2043
" />
<path d="M27.3294 13.2043
L27.3294 13.3857
" />
<path d="M27.3294 13.3857
L27.3898 13.6276
" />
<path d="M27.3898 13.6276
L27.4503 13.7486
" />
<path d="M27.4503 13.7486
L27.5713 13.8696
" />
<path d="M27.5713 13.8696
L27.7527 13.9300
" />
<path d="M27.7527 13.9300
L27.8736 13.9300
" />
<path d="M27.8736 13.9300
L28.0551 13.8696
" />
<path d="M28.0551 13.8696
L28.1155 13.8091
" />
<path d="M28.1155 13.8091
L28.1155 13.3857
" />
<path d="M28.1155 13.3857
L27.8736 13.3857
" />
<path d="M28.6598 13.9300
L28.6598 12.6600
" />
<path d="M28.6598 12.6600
L29.1436 12.6600
" />
<path d="M29.1436 12.6600
L29.2646 12.7205
" />
<path d="M29.2646 12.7205
L29.3251 12.7810
" />
<path d="M29.3251 12.7810
L29.3855 12.9019
" />
<path d="M29.3855 12.9019
L29.3855 13.0834
" />
<path d="M29.3855 13.0834
L29.3251 13.2043
" />
<path d="M29.3251 13.2043
L29.2646 13.2648
" />
<path d="M29.2646 13.2648
L29.1436 13.3253
" />
<path d="M29.1436 13.3253
L28.6598 13.3253
" />
<path d="M29.8694 12.7810
L29.9298 12.7205
" />
<path d="M29.9298 12.7205
L30.0508 12.6600
" />
<path d="M30.0508 12.6600
L30.3532 12.6600
" />
<path d="M30.3532 12.6600
L30.4741 12.7205
" />
<path d="M30.4741 12.7205
L30.5346 12.7810
" />
<path d="M30.5346 12.7810
L30.5951 12.9019
" />
<path d="M30.5951 12.9019
L30.5951 13.0229
" />
<path d="M30.5951 13.0229
L30.5346 13.2043
" />
<path d="M30.5346 13.2043
L29.8089 13.9300
" />
<path d="M29.8089 13.9300
L30.5951 13.9300
" />
</g></g>
<g style="fill:none; 
stroke:#A90000; stroke-width:0.1524; stroke-opacity:1; 
stroke-linecap:round; stroke-linejoin:round;">
<text x="32.7152" y="13.0965"
textLength="2.6222" font-size="1.6933" lengthAdjust="spacingAndGlyphs"
text-anchor="middle" opacity="0" stroke-opacity="0">12</text>
<g class="stroked-text"><desc>12</desc>
<path d="M32.4733 12.9330
L31.7476 12.9330
" />
<path d="M32.1104 12.9330
L32.1104 11.6630
" />
<path d="M32.1104 11.6630
L31.9895 11.8445
" />
<path d="M31.9895 11.8445
L31.8685 11.9654
" />
<path d="M31.8685 11.9654
L31.7476 12.0259
" />
<path d="M32.9571 11.7840
L33.0175 11.7235
" />
<path d="M33.0175 11.7235
L33.1385 11.6630
" />
<path d="M33.1385 11.6630
L33.4409 11.6630
" />
<path d="M33.4409 11.6630
L33.5618 11.7235
" />
<path d="M33.5618 11.7235
L33.6223 11.7840
" />
<path d="M33.6223 11.7840
L33.6828 11.9049
" />
<path d="M33.6828 11.9049
L33.6828 12.0259
" />
<path d="M33.6828 12.0259
L33.6223 12.2073
" />
<path d="M33.6223 12.2073
L32.8966 12.9330
" />
<path d="M32.8966 12.9330
L33.6828 12.9330
" />
</g></g>
<g style="fill:none; 
stroke:#840000; stroke-width:0.1524; stroke-opacity:1; 
stroke-linecap:round; stroke-linejoin:round;">
<path d="M31.4452 15.8905
L33.9852 15.8905
" />
</g>
<g style="fill:none; 
stroke:#006464; stroke-width:0.1524; stroke-opacity:1; 
stroke-linecap:round; stroke-linejoin:round;">
<text x="30.9372" y="16.5255"
textLength="3.9527" font-size="1.6933" lengthAdjust="spacingAndGlyphs"
text-anchor="end" opacity="0" stroke-opacity="0">GP3</text>
<g class="stroked-text"><desc>GP3</desc>
<path d="M28.0551 15.2605
L27.9341 15.2000
" />
<path d="M27.9341 15.2000
L27.7527 15.2000
" />
<path d="M27.7527 15.2000
L27.5713 15.2605
" />
<path d="M27.5713 15.2605
L27.4503 15.3815
" />
<path d="M27.4503 15.3815
L27.3898 15.5024
" />
<path d="M27.3898 15.5024
L27.3294 15.7443
" />
<path d="M27.3294 15.7443
L27.3294 15.9257
" />
<path d="M27.3294 15.9257
L27.3898 16.1676
" />
<path d="M27.3898 16.1676
L27.4503 16.2886
" />
<path d="M27.4503 16.2886
L27.5713 16.4096
" />
<path d="M27.5713 16.4096
L27.7527 16.4700
" />
<path d="M27.7527 16.4700
L27.8736 16.4700
" />
<path d="M27.8736 16.4700
L28.0551 16.4096
" />
<path d="M28.0551 16.4096
L28.1155 16.3491
" />
<path d="M28.1155 16.3491
L28.1155 15.9257
" />
<path d="M28.1155 15.9257
L27.8736 15.9257
" />
<path d="M28.6598 16.4700
L28.6598 15.2000
" />
<path d="M28.6598 15.2000
L29.1436 15.2000
" />
<path d="M29.1436 15.2000
L29.2646 15.2605
" />
<path d="M29.2646 15.2605
L29.3251 15.3210
" />
<path d="M29.3251 15.3210
L29.3855 15.4419
" />
<path d="M29.3855 15.4419
L29.3855 15.6234
" />
<path d="M29.3855 15.6234
L29.3251 15.7443
" />
<path d="M29.3251 15.7443
L29.2646 15.8048
" />
<path d="M29.2646 15.8048
L29.1436 15.8653
" />
<path d="M29.1436 15.8653
L28.6598 15.8653
" />
<path d="M29.8089 15.2000
L30.5951 15.2000
" />
<path d="M30.5951 15.2000
L30.1717 15.6838
" />
<path d="M30.1717 15.6838
L30.3532 15.6838
" />
<path d="M30.3532 15.6838
L30.4741 15.7443
" />
<path d="M30.4741 15.7443
L30.5346 15.8048
" />
<path d="M30.5346 15.8048
L30.5951 15.9257
" />
<path d="M30.5951 15.9257
L30.5951 16.2281
" />
<path d="M30.5951 16.2281
L30.5346 16.3491
" />
<path d="M30.5346 16.3491
L30.4741 16.4096
" />
<path d="M30.4741 16.4096
L30.3532 16.4700
" />
<path d="M30.3532 16.4700
L29.9903 16.4700
" />
<path d="M29.9903 16.4700
L29.8694 16.4096
" />
<path d="M29.8694 16.4096
L29.8089 16.3491
" />
</g></g>
<g style="fill:none; 
stroke:#A90000; stroke-width:0.1524; stroke-opacity:1; 
stroke-linecap:round; stroke-linejoin:round;">
<text x="32.7152" y="15.6365"
textLength="2.6222" font-size="1.6933" lengthAdjust="spacingAndGlyphs"
text-anchor="middle" opacity="0" stroke-opacity="0">13</text>
<g class="stroked-text"><desc>13</desc>
<path d="M32.4733 15.4730
L31.7476 15.4730
" />
<path d="M32.1104 15.4730
L32.1104 14.2030
" />
<path d="M32.1104 14.2030
L31.9895 14.3845
" />
<path d="M31.9895 14.3845
L31.8685 14.5054
" />
<path d="M31.8685 14.5054
L31.7476 14.5659
" />
<path d="M32.8966 14.2030
L33.6828 14.2030
" />
<path d="M33.6828 14.2030
L33.2594 14.6868
" />
<path d="M33.2594 14.6868
L33.4409 14.6868
" />
<path d="M33.4409 14.6868
L33.5618 14.7473
" />
<path d="M33.5618 14.7473
L33.6223 14.8078
" />
<path d="M33.6223 14.8078
L33.6828 14.9287
" />
<path d="M33.6828 14.9287
L33.6828 15.2311
" />
<path d="M33.6828 15.2311
L33.6223 15.3521
" />
<path d="M33.6223 15.3521
L33.5618 15.4126
" />
<path d="M33.5618 15.4126
L33.4409 15.4730
" />
<path d="M33.4409 15.4730
L33.0780 15.4730
" />
<path d="M33.0780 15.4730
L32.9571 15.4126
" />
<path d="M32.9571 15.4126
L32.8966 15.3521
" />
</g></g>
<g style="fill:none; 
stroke:#840000; stroke-width:0.1524; stroke-opacity:1; 
stroke-linecap:round; stroke-linejoin:round;">
<path d="M31.4452 18.4305
L33.9852 18.4305
" />
</g>
<g style="fill:none; 
stroke:#006464; stroke-width:0.1524; stroke-opacity:1; 
stroke-linecap:round; stroke-linejoin:round;">
<text x="30.9372" y="19.0655"
textLength="3.9527" font-size="1.6933" lengthAdjust="spacingAndGlyphs"
text-anchor="end" opacity="0" stroke-opacity="0">GP4</text>
<g class="stroked-text"><desc>GP4</desc>
<path d="M28.0551 17.8005
L27.9341 17.7400
" />
<path d="M27.9341 17.7400
L27.7527 17.7400
" />
<path d="M27.7527 17.7400
L27.5713 17.8005
" />
<path d="M27.5713 17.8005
L27.4503 17.9215
" />
<path d="M27.4503 17.9215
L27.3898 18.0424
" />
<path d="M27.3898 18.0424
L27.3294 18.2843
" />
<path d="M27.3294 18.2843
L27.3294 18.4657
" />
<path d="M27.3294 18.4657
L27.3898 18.7076
" />
<path d="M27.3898 18.7076
L27.4503 18.8286
" />
<path d="M27.4503 18.8286
L27.5713 18.9496
" />
<path d="M27.5713 18.9496
L27.7527 19.0100
" />
<path d="M27.7527 19.0100
L27.8736 19.0100
" />
<path d="M27.8736 19.0100
L28.0551 18.9496
" />
<path d="M28.0551 18.9496
L28.1155 18.8891
" />
<path d="M28.1155 18.8891
L28.1155 18.4657
" />
<path d="M28.1155 18.4657
L27.8736 18.4657
" />
<path d="M28.6598 19.0100
L28.6598 17.7400
" />
<path d="M28.6598 17.7400
L29.1436 17.7400
" />
<path d="M29.1436 17.7400
L29.2646 17.8005
" />
<path d="M29.2646 17.8005
L29.3251 17.8610
" />
<path d="M29.3251 17.8610
L29.3855 17.9819
" />
<path d="M29.3855 17.9819
L29.3855 18.1634
" />
<path d="M29.3855 18.1634
L29.3251 18.2843
" />
<path d="M29.3251 18.2843
L29.2646 18.3448
" />
<path d="M29.2646 18.3448
L29.1436 18.4053
" />
<path d="M29.1436 18.4053
L28.6598 18.4053
" />
<path d="M30.4741 18.1634
L30.4741 19.0100
" />
<path d="M30.1717 17.6796
L29.8694 18.5867
" />
<path d="M29.8694 18.5867
L30.6555 18.5867
" />
</g></g>
<g style="fill:none; 
stroke:#A90000; stroke-width:0.1524; stroke-opacity:1; 
stroke-linecap:round; stroke-linejoin:round;">
<text x="32.7152" y="18.1765"
textLength="2.6222" font-size="1.6933" lengthAdjust="spacingAndGlyphs"
text-anchor="middle" opacity="0" stroke-opacity="0">14</text>
<g class="stroked-text"><desc>14</desc>
<path d="M32.4733 18.0130
L31.7476 18.0130
" />
<path d="M32.1104 18.0130
L32.1104 16.7430
" />
<path d="M32.1104 16.7430
L31.9895 16.9245
" />
<path d="M31.9895 16.9245
L31.8685 17.0454
" />
<path d="M31.8685 17.0454
L31.7476 17.1059
" />
<path d="M33.5618 17.1664
L33.5618 18.0130
" />
<path d="M33.2594 16.6826
L32.9571 17.5897
" />
<path d="M32.9571 17.5897
L33.7432 17.5897
" />
</g></g>
<g style="fill:none; 
stroke:#840000; stroke-width:0.1524; stroke-opacity:1; 
stroke-linecap:round; stroke-linejoin:round;">
<path d="M31.4452 20.9705
L33.9852 20.9705
" />
</g>
<g style="fill:none; 
stroke:#006464; stroke-width:0.1524; stroke-opacity:1; 
stroke-linecap:round; stroke-linejoin:round;">
<text x="30.9372" y="21.6055"
textLength="3.9527" font-size="1.6933" lengthAdjust="spacingAndGlyphs"
text-anchor="end" opacity="0" stroke-opacity="0">GP5</text>
<g class="stroked-text"><desc>GP5</desc>
<path d="M28.0551 20.3405
L27.9341 20.2800
" />
<path d="M27.9341 20.2800
L27.7527 20.2800
" />
<path d="M27.7527 20.2800
L27.5713 20.3405
" />
<path d="M27.5713 20.3405
L27.4503 20.4615
" />
<path d="M27.4503 20.4615
L27.3898 20.5824
" />
<path d="M27.3898 20.5824
L27.3294 20.8243
" />
<path d="M27.3294 20.8243
L27.3294 21.0057
" />
<path d="M27.3294 21.0057
L27.3898 21.2476
" />
<path d="M27.3898 21.2476
L27.4503 21.3686
" />
<path d="M27.4503 21.3686
L27.5713 21.4896
" />
<path d="M27.5713 21.4896
L27.7527 21.5500
" />
<path d="M27.7527 21.5500
L27.8736 21.5500
" />
<path d="M27.8736 21.5500
L28.0551 21.4896
" />
<path d="M28.0551 21.4896
L28.1155 21.4291
" />
<path d="M28.1155 21.4291
L28.1155 21.0057
" />
<path d="M28.1155 21.0057
L27.8736 21.0057
" />
<path d="M28.6598 21.5500
L28.6598 20.2800
" />
<path d="M28.6598 20.2800
L29.1436 20.2800
" />
<path d="M29.1436 20.2800
L29.2646 20.3405
" />
<path d="M29.2646 20.3405
L29.3251 20.4010
" />
<path d="M29.3251 20.4010
L29.3855 20.5219
" />
<path d="M29.3855 20.5219
L29.3855 20.7034
" />
<path d="M29.3855 20.7034
L29.3251 20.8243
" />
<path d="M29.3251 20.8243
L29.2646 20.8848
" />
<path d="M29.2646 20.8848
L29.1436 20.9453
" />
<path d="M29.1436 20.9453
L28.6598 20.9453
" />
<path d="M30.5346 20.2800
L29.9298 20.2800
" />
<path d="M29.9298 20.2800
L29.8694 20.8848
" />
<path d="M29.8694 20.8848
L29.9298 20.8243
" />
<path d="M29.9298 20.8243
L30.0508 20.7638
" />
<path d="M30.0508 20.7638
L30.3532 20.7638
" />
<path d="M30.3532 20.7638
L30.4741 20.8243
" />
<path d="M30.4741 20.8243
L30.5346 20.8848
" />
<path d="M30.5346 20.8848
L30.5951 21.0057
" />
<path d="M30.5951 21.0057
L30.5951 21.3081
" />
<path d="M30.5951 21.3081
L30.5346 21.4291
" />
<path d="M30.5346 21.4291
L30.4741 21.4896
" />
<path d="M30.4741 21.4896
L30.3532 21.5500
" />
<path d="M30.3532 21.5500
L30.0508 21.5500
" />
<path d="M30.0508 21.5500
L29.9298 21.4896
" />
<path d="M29.9298 21.4896
L29.8694 21.4291
" />
</g></g>
<g style="fill:none; 
stroke:#A90000; stroke-width:0.1524; stroke-opacity:1; 
stroke-linecap:round; stroke-linejoin:round;">
<text x="32.7152" y="20.7165"
textLength="2.6222" font-size="1.6933" lengthAdjust="spacingAndGlyphs"
text-anchor="middle" opacity="0" stroke-opacity="0">15</text>
<g class="stroked-text"><desc>15</desc>
<path d="M32.4733 20.5530
L31.7476 20.5530
" />
<path d="M32.1104 20.5530
L32.1104 19.2830
" />
<path d="M32.1104 19.2830
L31.9895 19.4645
" />
<path d="M31.9895 19.4645
L31.8685 19.5854
" />
<path d="M31.8685 19.5854
L31.7476 19.6459
" />
<path d="M33.6223 19.2830
L33.0175 19.2830
" />
<path d="M33.0175 19.2830
L32.9571 19.8878
" />
<path d="M32.9571 19.8878
L33.0175 19.8273
" />
<path d="M33.0175 19.8273
L33.1385 19.7668
" />
<path d="M33.1385 19.7668
L33.4409 19.7668
" />
<path d="M33.4409 19.7668
L33.5618 19.8273
" />
<path d="M33.5618 19.8273
L33.6223 19.8878
" />
<path d="M33.6223 19.8878
L33.6828 20.0087
" />
<path d="M33.6828 20.0087
L33.6828 20.3111
" />
<path d="M33.6828 20.3111
L33.6223 20.4321
" />
<path d="M33.6223 20.4321
L33.5618 20.4926
" />
<path d="M33.5618 20.4926
L33.4409 20.5530
" />
<path d="M33.4409 20.5530
L33.1385 20.5530
" />
<path d="M33.1385 20.5530
L33.0175 20.4926
" />
<path d="M33.0175 20.4926
L32.9571 20.4321
" />
</g></g>
<g style="fill:none; 
stroke:#840000; stroke-width:0.1524; stroke-opacity:1; 
stroke-linecap:round; stroke-linejoin:round;">
<path d="M31.4452 23.5105
L33.9852 23.5105
" />
</g>
<g style="fill:none; 
stroke:#006464; stroke-width:0.1524; stroke-opacity:1; 
stroke-linecap:round; stroke-linejoin:round;">
<text x="30.9372" y="24.1455"
textLength="3.9527" font-size="1.6933" lengthAdjust="spacingAndGlyphs"
text-anchor="end" opacity="0" stroke-opacity="0">GP6</text>
<g class="stroked-text"><desc>GP6</desc>
<path d="M28.0551 22.8805
L27.9341 22.8200
" />
<path d="M27.9341 22.8200
L27.7527 22.8200
" />
<path d="M27.7527 22.8200
L27.5713 22.8805
" />
<path d="M27.5713 22.8805
L27.4503 23.0015
" />
<path d="M27.4503 23.0015
L27.3898 23.1224
" />
<path d="M27.3898 23.1224
L27.3294 23.3643
" />
<path d="M27.3294 23.3643
L27.3294 23.5457
" />
<path d="M27.3294 23.5457
L27.3898 23.7876
" />
<path d="M27.3898 23.7876
L27.4503 23.9086
" />
<path d="M27.4503 23.9086
L27.5713 24.0296
" />
<path d="M27.5713 24.0296
L27.7527 24.0900
" />
<path d="M27.7527 24.0900
L27.8736 24.0900
" />
<path d="M27.8736 24.0900
L28.0551 24.0296
" />
<path d="M28.0551 24.0296
L28.1155 23.9691
" />
<path d="M28.1155 23.9691
L28.1155 23.5457
" />
<path d="M28.1155 23.5457
L27.8736 23.5457
" />
<path d="M28.6598 24.0900
L28.6598 22.8200
" />
<path d="M28.6598 22.8200
L29.1436 22.8200
" />
<path d="M29.1436 22.8200
L29.2646 22.8805
" />
<path d="M29.2646 22.8805
L29.3251 22.9410
" />
<path d="M29.3251 22.9410
L29.3855 23.0619
" />
<path d="M29.3855 23.0619
L29.3855 23.2434
" />
<path d="M29.3855 23.2434
L29.3251 23.3643
" />
<path d="M29.3251 23.3643
L29.2646 23.4248
" />
<path d="M29.2646 23.4248
L29.1436 23.4853
" />
<path d="M29.1436 23.4853
L28.6598 23.4853
" />
<path d="M30.4741 22.8200
L30.2322 22.8200
" />
<path d="M30.2322 22.8200
L30.1113 22.8805
" />
<path d="M30.1113 22.8805
L30.0508 22.9410
" />
<path d="M30.0508 22.9410
L29.9298 23.1224
" />
<path d="M29.9298 23.1224
L29.8694 23.3643
" />
<path d="M29.8694 23.3643
L29.8694 23.8481
" />
<path d="M29.8694 23.8481
L29.9298 23.9691
" />
<path d="M29.9298 23.9691
L29.9903 24.0296
" />
<path d="M29.9903 24.0296
L30.1113 24.0900
" />
<path d="M30.1113 24.0900
L30.3532 24.0900
" />
<path d="M30.3532 24.0900
L30.4741 24.0296
" />
<path d="M30.4741 24.0296
L30.5346 23.9691
" />
<path d="M30.5346 23.9691
L30.5951 23.8481
" />
<path d="M30.5951 23.8481
L30.5951 23.5457
" />
<path d="M30.5951 23.5457
L30.5346 23.4248
" />
<path d="M30.5346 23.4248
L30.4741 23.3643
" />
<path d="M30.4741 23.3643
L30.3532 23.3038
" />
<path d="M30.3532 23.3038
L30.1113 23.3038
" />
<path d="M30.1113 23.3038
L29.9903 23.3643
" />
<path d="M29.9903 23.3643
L29.9298 23.4248
" />
<path d="M29.9298 23.4248
L29.8694 23.5457
" />
</g></g>
<g style="fill:none; 
stroke:#A90000; stroke-width:0.1524; stroke-opacity:1; 
stroke-linecap:round; stroke-linejoin:round;">
<text x="32.7152" y="23.2565"
textLength="2.6222" font-size="1.6933" lengthAdjust="spacingAndGlyphs"
text-anchor="middle" opacity="0" stroke-opacity="0">16</text>
<g class="stroked-text"><desc>16</desc>
<path d="M32.4733 23.0930
L31.7476 23.0930
" />
<path d="M32.1104 23.0930
L32.1104 21.8230
" />
<path d="M32.1104 21.8230
L31.9895 22.0045
" />
<path d="M31.9895 22.0045
L31.8685 22.1254
" />
<path d="M31.8685 22.1254
L31.7476 22.1859
" />
<path d="M33.5618 21.8230
L33.3199 21.8230
" />
<path d="M33.3199 21.8230
L33.1990 21.8835
" />
<path d="M33.1990 21.8835
L33.1385 21.9440
" />
<path d="M33.1385 21.9440
L33.0175 22.1254
" />
<path d="M33.0175 22.1254
L32.9571 22.3673
" />
<path d="M32.9571 22.3673
L32.9571 22.8511
" />
<path d="M32.9571 22.8511
L33.0175 22.9721
" />
<path d="M33.0175 22.9721
L33.0780 23.0326
" />
<path d="M33.0780 23.0326
L33.1990 23.0930
" />
<path d="M33.1990 23.0930
L33.4409 23.0930
" />
<path d="M33.4409 23.0930
L33.5618 23.0326
" />
<path d="M33.5618 23.0326
L33.6223 22.9721
" />
<path d="M33.6223 22.9721
L33.6828 22.8511
" />
<path d="M33.6828 22.8511
L33.6828 22.5487
" />
<path d="M33.6828 22.5487
L33.6223 22.4278
" />
<path d="M33.6223 22.4278
L33.5618 22.3673
" />
<path d="M33.5618 22.3673
L33.4409 22.3068
" />
<path d="M33.4409 22.3068
L33.1990 22.3068
" />
<path d="M33.1990 22.3068
L33.0780 22.3673
" />
<path d="M33.0780 22.3673
L33.0175 22.4278
" />
<path d="M33.0175 22.4278
L32.9571 22.5487
" />
</g></g>
<g style="fill:none; 
stroke:#840000; stroke-width:0.1524; stroke-opacity:1; 
stroke-linecap:round; stroke-linejoin:round;">
<path d="M31.4452 26.0505
L33.9852 26.0505
" />
</g>
<g style="fill:none; 
stroke:#006464; stroke-width:0.1524; stroke-opacity:1; 
stroke-linecap:round; stroke-linejoin:round;">
<text x="30.9372" y="26.6855"
textLength="3.9527" font-size="1.6933" lengthAdjust="spacingAndGlyphs"
text-anchor="end" opacity="0" stroke-opacity="0">GP7</text>
<g class="stroked-text"><desc>GP7</desc>
<path d="M28.0551 25.4205
L27.9341 25.3600
" />
<path d="M27.9341 25.3600
L27.7527 25.3600
" />
<path d="M27.7527 25.3600
L27.5713 25.4205
" />
<path d="M27.5713 25.4205
L27.4503 25.5415
" />
<path d="M27.4503 25.5415
L27.3898 25.6624
" />
<path d="M27.3898 25.6624
L27.3294 25.9043
" />
<path d="M27.3294 25.9043
L27.3294 26.0857
" />
<path d="M27.3294 26.0857
L27.3898 26.3276
" />
<path d="M27.3898 26.3276
L27.4503 26.4486
" />
<path d="M27.4503 26.4486
L27.5713 26.5696
" />
<path d="M27.5713 26.5696
L27.7527 26.6300
" />
<path d="M27.7527 26.6300
L27.8736 26.6300
" />
<path d="M27.8736 26.6300
L28.0551 26.5696
" />
<path d="M28.0551 26.5696
L28.1155 26.5091
" />
<path d="M28.1155 26.5091
L28.1155 26.0857
" />
<path d="M28.1155 26.0857
L27.8736 26.0857
" />
<path d="M28.6598 26.6300
L28.6598 25.3600
" />
<path d="M28.6598 25.3600
L29.1436 25.3600
" />
<path d="M29.1436 25.3600
L29.2646 25.4205
" />
<path d="M29.2646 25.4205
L29.3251 25.4810
" />
<path d="M29.3251 25.4810
L29.3855 25.6019
" />
<path d="M29.3855 25.6019
L29.3855 25.7834
" />
<path d="M29.3855 25.7834
L29.3251 25.9043
" />
<path d="M29.3251 25.9043
L29.2646 25.9648
" />
<path d="M29.2646 25.9648
L29.1436 26.0253
" />
<path d="M29.1436 26.0253
L28.6598 26.0253
" />
<path d="M29.8089 25.3600
L30.6555 25.3600
" />
<path d="M30.6555 25.3600
L30.1113 26.6300
" />
</g></g>
<g style="fill:none; 
stroke:#A90000; stroke-width:0.1524; stroke-opacity:1; 
stroke-linecap:round; stroke-linejoin:round;">
<text x="32.7152" y="25.7965"
textLength="2.6222" font-size="1.6933" lengthAdjust="spacingAndGlyphs"
text-anchor="middle" opacity="0" stroke-opacity="0">17</text>
<g class="stroked-text"><desc>17</desc>
<path d="M32.4733 25.6330
L31.7476 25.6330
" />
<path d="M32.1104 25.6330
L32.1104 24.3630
" />
<path d="M32.1104 24.3630
L31.9895 24.5445
" />
<path d="M31.9895 24.5445
L31.8685 24.6654
" />
<path d="M31.8685 24.6654
L31.7476 24.7259
" />
<path d="M32.8966 24.3630
L33.7432 24.3630
" />
<path d="M33.7432 24.3630
L33.1990 25.6330
" />
</g></g>
<g style="fill:none; 
stroke:#840000; stroke-width:0.1524; stroke-opacity:1; 
stroke-linecap:round; stroke-linejoin:round;">
<path d="M31.4452 28.5905
L33.9852 28.5905
" />
</g>
<g style="fill:none; 
stroke:#006464; stroke-width:0.1524; stroke-opacity:1; 
stroke-linecap:round; stroke-linejoin:round;">
<text x="30.9372" y="29.2255"
textLength="3.9527" font-size="1.6933" lengthAdjust="spacingAndGlyphs"
text-anchor="end" opacity="0" stroke-opacity="0">GP8</text>
<g class="stroked-text"><desc>GP8</desc>
<path d="M28.0551 27.9605
L27.9341 27.9000
" />
<path d="M27.9341 27.9000
L27.7527 27.9000
" />
<path d="M27.7527 27.9000
L27.5713 27.9605
" />
<path d="M27.5713 27.9605
L27.4503 28.0815
" />
<path d="M27.4503 28.0815
L27.3898 28.2024
" />
<path d="M27.3898 28.2024
L27.3294 28.4443
" />
<path d="M27.3294 28.4443
L27.3294 28.6257
" />
<path d="M27.3294 28.6257
L27.3898 28.8676
" />
<path d="M27.3898 28.8676
L27.4503 28.9886
" />
<path d="M27.4503 28.9886
L27.5713 29.1096
" />
<path d="M27.5713 29.1096
L27.7527 29.1700
" />
<path d="M27.7527 29.1700
L27.8736 29.1700
" />
<path d="M27.8736 29.1700
L28.0551 29.1096
" />
<path d="M28.0551 29.1096
L28.1155 29.0491
" />
<path d="M28.1155 29.0491
L28.1155 28.6257
" />
<path d="M28.1155 28.6257
L27.8736 28.6257
" />
<path d="M28.6598 29.1700
L28.6598 27.9000
" />
<path d="M28.6598 27.9000
L29.1436 27.9000
" />
<path d="M29.1436 27.9000
L29.2646 27.9605
" />
<path d="M29.2646 27.9605
L29.3251 28.0210
" />
<path d="M29.3251 28.0210
L29.3855 28.1419
" />
<path d="M29.3855 28.1419
L29.3855 28.3234
" />
<path d="M29.3855 28.3234
L29.3251 28.4443
" />
<path d="M29.3251 28.4443
L29.2646 28.5048
" />
<path d="M29.2646 28.5048
L29.1436 28.5653
" />
<path d="M29.1436 28.5653
L28.6598 28.5653
" />
<path d="M30.1113 28.4443
L29.9903 28.3838
" />
<path d="M29.9903 28.3838
L29.9298 28.3234
" />
<path d="M29.9298 28.3234
L29.8694 28.2024
" />
<path d="M29.8694 28.2024
L29.8694 28.1419
" />
<path d="M29.8694 28.1419
L29.9298 28.0210
" />
<path d="M29.9298 28.0210
L29.9903 27.9605
" />
<path d="M29.9903 27.9605
L30.1113 27.9000
" />
<path d="M30.1113 27.9000
L30.3532 27.9000
" />
<path d="M30.3532 27.9000
L30.4741 27.9605
" />
<path d="M30.4741 27.9605
L30.5346 28.0210
" />
<path d="M30.5346 28.0210
L30.5951 28.1419
" />
<path d="M30.5951 28.1419
L30.5951 28.2024
" />
<path d="M30.5951 28.2024
L30.5346 28.3234
" />
<path d="M30.5346 28.3234
L30.4741 28.3838
" />
<path d="M30.4741 28.3838
L30.3532 28.4443
" />
<path d="M30.3532 28.4443
L30.1113 28.4443
" />
<path d="M30.1113 28.4443
L29.9903 28.5048
" />
<path d="M29.9903 28.5048
L29.9298 28.5653
" />
<path d="M29.9298 28.5653
L29.8694 28.6862
" />
<path d="M29.8694 28.6862
L29.8694 28.9281
" />
<path d="M29.8694 28.9281
L29.9298 29.0491
" />
<path d="M29.9298 29.0491
L29.9903 29.1096
" />
<path d="M29.9903 29.1096
L30.1113 29.1700
" />
<path d="M30.1113 29.1700
L30.3532 29.1700
" />
<path d="M30.3532 29.1700
L30.4741 29.1096
" />
<path d="M30.4741 29.1096
L30.5346 29.0491
" />
<path d="M30.5346 29.0491
L30.5951 28.9281
" />
<path d="M30.5951 28.9281
L30.5951 28.6862
" />
<path d="M30.5951 28.6862
L30.5346 28.5653
" />
<path d="M30.5346 28.5653
L30.4741 28.5048
" />
<path d="M30.4741 28.5048
L30.3532 28.4443
" />
</g></g>
<g style="fill:none; 
stroke:#A90000; stroke-width:0.1524; stroke-opacity:1; 
stroke-linecap:round; stroke-linejoin:round;">
<text x="32.7152" y="28.3365"
textLength="2.6222" font-size="1.6933" lengthAdjust="spacingAndGlyphs"
text-anchor="middle" opacity="0" stroke-opacity="0">18</text>
<g class="stroked-text"><desc>18</desc>
<path d="M32.4733 28.1730
L31.7476 28.1730
" />
<path d="M32.1104 28.1730
L32.1104 26.9030
" />
<path d="M32.1104 26.9030
L31.9895 27.0845
" />
<path d="M31.9895 27.0845
L31.8685 27.2054
" />
<path d="M31.8685 27.2054
L31.7476 27.2659
" />
<path d="M33.1990 27.4473
L33.0780 27.3868
" />
<path d="M33.0780 27.3868
L33.0175 27.3264
" />
<path d="M33.0175 27.3264
L32.9571 27.2054
" />
<path d="M32.9571 27.2054
L32.9571 27.1449
" />
<path d="M32.9571 27.1449
L33.0175 27.0240
" />
<path d="M33.0175 27.0240
L33.0780 26.9635
" />
<path d="M33.0780 26.9635
L33.1990 26.9030
" />
<path d="M33.1990 26.9030
L33.4409 26.9030
" />
<path d="M33.4409 26.9030
L33.5618 26.9635
" />
<path d="M33.5618 26.9635
L33.6223 27.0240
" />
<path d="M33.6223 27.0240
L33.6828 27.1449
" />
<path d="M33.6828 27.1449
L33.6828 27.2054
" />
<path d="M33.6828 27.2054
L33.6223 27.3264
" />
<path d="M33.6223 27.3264
L33.5618 27.3868
" />
<path d="M33.5618 27.3868
L33.4409 27.4473
" />
<path d="M33.4409 27.4473
L33.1990 27.4473
" />
<path d="M33.1990 27.4473
L33.0780 27.5078
" />
<path d="M33.0780 27.5078
L33.0175 27.5683
" />
<path d="M33.0175 27.5683
L32.9571 27.6892
" />
<path d="M32.9571 27.6892
L32.9571 27.9311
" />
<path d="M32.9571 27.9311
L33.0175 28.0521
" />
<path d="M33.0175 28.0521
L33.0780 28.1126
" />
<path d="M33.0780 28.1126
L33.1990 28.1730
" />
<path d="M33.1990 28.1730
L33.4409 28.1730
" />
<path d="M33.4409 28.1730
L33.5618 28.1126
" />
<path d="M33.5618 28.1126
L33.6223 28.0521
" />
<path d="M33.6223 28.0521
L33.6828 27.9311
" />
<path d="M33.6828 27.9311
L33.6828 27.6892
" />
<path d="M33.6828 27.6892
L33.6223 27.5683
" />
<path d="M33.6223 27.5683
L33.5618 27.5078
" />
<path d="M33.5618 27.5078
L33.4409 27.4473
" />
</g></g>
<g style="fill:none; 
stroke:#006464; stroke-width:0.1524; stroke-opacity:1; 
stroke-linecap:round; stroke-linejoin:round;">
<text x="11.9380" y="-15.5547"
textLength="2.6223" font-size="1.6933" lengthAdjust="spacingAndGlyphs"
text-anchor="middle" opacity="0" stroke-opacity="0">U?</text>
<g class="stroked-text"><desc>U?</desc>
<path d="M11.0308 -16.8801
L11.0308 -15.8520
" />
<path d="M11.0308 -15.8520
L11.0913 -15.7310
" />
<path d="M11.0913 -15.7310
L11.1518 -15.6706
" />
<path d="M11.1518 -15.6706
L11.2727 -15.6101
" />
<path d="M11.2727 -15.6101
L11.5146 -15.6101
" />
<path d="M11.5146 -15.6101
L11.6356 -15.6706
" />
<path d="M11.6356 -15.6706
L11.6961 -15.7310
" />
<path d="M11.6961 -15.7310
L11.7565 -15.8520
" />
<path d="M11.7565 -15.8520
L11.7565 -16.8801
" />
<path d="M12.5428 -15.7310
L12.6032 -15.6706
" />
<path d="M12.6032 -15.6706
L12.5428 -15.6101
" />
<path d="M12.5428 -15.6101
L12.4823 -15.6706
" />
<path d="M12.4823 -15.6706
L12.5428 -15.7310
" />
<path d="M12.5428 -15.7310
L12.5428 -15.6101
" />
<path d="M12.3009 -16.8196
L12.4218 -16.8801
" />
<path d="M12.4218 -16.8801
L12.7242 -16.8801
" />
<path d="M12.7242 -16.8801
L12.8451 -16.8196
" />
<path d="M12.8451 -16.8196
L12.9056 -16.6986
" />
<path d="M12.9056 -16.6986
L12.9056 -16.5777
" />
<path d="M12.9056 -16.5777
L12.8451 -16.4567
" />
<path d="M12.8451 -16.4567
L12.7847 -16.3963
" />
<path d="M12.7847 -16.3963
L12.6637 -16.3358
" />
<path d="M12.6637 -16.3358
L12.6032 -16.2753
" />
<path d="M12.6032 -16.2753
L12.5428 -16.1544
" />
<path d="M12.5428 -16.1544
L12.5428 -16.0939
" />
</g></g> 
</svg>
